<svg width="13" height="10" viewBox="0 0 13 10" fill="none" xmlns="http://www.w3.org/2000/svg">
<path fill-rule="evenodd" clip-rule="evenodd" d="M11.1356 0.0614003C10.8291 0.126399 11.0099 -0.0469316 7.68757 3.3685L4.59908 6.54356L3.43709 5.3473C2.18114 4.05432 2.15547 4.03213 1.84605 3.97347C1.7223 3.94998 1.65276 3.94958 1.54582 3.97167C1.27143 4.02842 1.16163 4.10217 0.804592 4.46968C0.527174 4.75523 0.45894 4.84062 0.392135 4.98588C0.318814 5.14522 0.312105 5.17995 0.312517 5.39679C0.312928 5.60386 0.321842 5.65405 0.383367 5.79571C0.449421 5.94778 0.568643 6.07633 2.31805 7.88177C3.66447 9.27131 4.21669 9.82531 4.30609 9.8762C4.47838 9.97428 4.71356 9.97558 4.89007 9.87942C4.98141 9.82965 5.93732 8.85868 8.77985 5.9284C12.3665 2.23096 12.5519 2.03553 12.6186 1.8813C12.6798 1.73988 12.6888 1.68905 12.6892 1.48238C12.6899 1.13958 12.6235 1.00565 12.2637 0.623355C11.9585 0.299007 11.8096 0.176514 11.6413 0.11124C11.4989 0.0560148 11.2682 0.0332763 11.1356 0.0614003Z" fill="black"/>
</svg>
