<svg width="40" height="40" viewBox="0 0 40 40" fill="none" xmlns="http://www.w3.org/2000/svg">
<rect width="40" height="40" rx="6" fill="#615DFA"/>
<path fill-rule="evenodd" clip-rule="evenodd" d="M22.96 19.5787C24.5719 18.316 25.2053 16.1699 24.5375 14.2344C23.8696 12.2988 22.0475 11 20 11C17.9525 11 16.1304 12.2988 15.4625 14.2344C14.7947 16.1699 15.4281 18.316 17.04 19.5787C13.9997 20.7895 12.0034 23.7301 12 27.0027V27.8027C12 28.2445 12.3582 28.6027 12.8 28.6027C13.2418 28.6027 13.6 28.2445 13.6 27.8027V27.0027C13.6 23.4681 16.4654 20.6027 20 20.6027C23.5346 20.6027 26.4 23.4681 26.4 27.0027V27.8027C26.4 28.2445 26.7582 28.6027 27.2 28.6027C27.6418 28.6027 28 28.2445 28 27.8027V27.0027C27.9966 23.7301 26.0003 20.7895 22.96 19.5787ZM16.8 15.8027C16.8 14.0354 18.2327 12.6027 20 12.6027C21.7673 12.6027 23.2 14.0354 23.2 15.8027C23.2 17.57 21.7673 19.0027 20 19.0027C19.1513 19.0027 18.3374 18.6655 17.7373 18.0654C17.1371 17.4653 16.8 16.6514 16.8 15.8027Z" fill="white"/>
</svg>
