<svg width="12" height="12" viewBox="0 0 12 12" fill="none" xmlns="http://www.w3.org/2000/svg">
<path d="M5.56599 5.17707C5.43418 5.03953 5.36827 4.86186 5.36827 4.64409C5.36827 4.40912 5.44278 4.21713 5.59178 4.06812C5.74652 3.91338 5.94997 3.81882 6.20213 3.78444V5.56391C5.90985 5.44356 5.6978 5.31461 5.56599 5.17707Z" fill="#C2F532"/>
<path d="M7.37985 8.12567C7.23085 8.28613 7.0188 8.38643 6.74371 8.42654V6.5611C7.04172 6.68719 7.2595 6.82186 7.39704 6.96514C7.54032 7.10268 7.61196 7.28894 7.61196 7.52391C7.61196 7.75888 7.53459 7.95947 7.37985 8.12567Z" fill="#C2F532"/>
<path fill-rule="evenodd" clip-rule="evenodd" d="M6.44038 11.579C9.49248 11.579 11.9667 9.10478 11.9667 6.05268C11.9667 3.00058 9.49248 0.526367 6.44038 0.526367C3.38828 0.526367 0.914062 3.00058 0.914062 6.05268C0.914062 9.10478 3.38828 11.579 6.44038 11.579ZM7.94722 8.67584C8.25669 8.3721 8.41143 7.98526 8.41143 7.51531C8.41143 7.25742 8.36845 7.03105 8.28248 6.83619C8.19652 6.64134 8.06184 6.478 7.87845 6.34619C7.69506 6.20865 7.52599 6.10262 7.37126 6.02812C7.21652 5.95362 7.00734 5.86765 6.74371 5.77023V3.79303C7.16207 3.87327 7.45435 4.12257 7.62055 4.54093L8.29108 4.16268C8.14207 3.83029 7.93289 3.56666 7.66354 3.37181C7.39418 3.17695 7.08757 3.0566 6.74371 3.01075V2.24567H6.20213V3.00216C5.73792 3.048 5.35108 3.21707 5.04161 3.50935C4.73213 3.80163 4.5774 4.17988 4.5774 4.64409C4.5774 4.89625 4.61751 5.11976 4.69775 5.31461C4.78371 5.50374 4.91266 5.6642 5.08459 5.79602C5.25652 5.92783 5.41985 6.03385 5.57459 6.11409C5.73506 6.18859 5.94424 6.27169 6.20213 6.36338V8.44374C5.57745 8.37496 5.16769 8.07409 4.97283 7.5411L4.28511 7.93654C4.43412 8.31479 4.67196 8.61567 4.99862 8.83917C5.33102 9.06268 5.73219 9.19163 6.20213 9.22602V9.98251H6.74371V9.21742C7.23658 9.16011 7.63775 8.97958 7.94722 8.67584Z" fill="#C2F532"/>
</svg>
