<svg width="25" height="17" viewBox="0 0 25 17" fill="none" xmlns="http://www.w3.org/2000/svg">
<path fill-rule="evenodd" clip-rule="evenodd" d="M23.5097 0.0757061C23.5532 0.117319 23.6014 0.211893 23.6169 0.285871C23.6437 0.414025 23.6574 0.42033 23.9075 0.42033C24.085 0.42033 24.1699 0.439245 24.1698 0.478709C24.1696 0.541618 24.0376 1.30998 23.9973 1.48283C23.9733 1.58567 23.982 1.58791 24.4056 1.58791C24.7628 1.58791 24.8525 1.60281 24.9192 1.67333C24.9913 1.74955 25 1.94473 25 3.4921V5.22549L24.8915 5.29816C24.8048 5.35626 24.6333 5.37088 24.0392 5.37088H23.2955L23.2603 5.54602C23.2409 5.64237 23.1794 5.97335 23.1237 6.28159L23.0225 6.84203L18.4616 6.86538L13.9006 6.88874L13.7936 7.19231C13.5674 7.83331 13.2263 8.32542 12.6661 8.81922C12.2328 9.20106 11.7864 9.42907 11.1895 9.57329C10.6849 9.69523 9.70732 9.76631 9.04966 9.72886L8.55347 9.7006L8.50371 9.87298C8.47632 9.96779 8.06514 11.5629 7.58999 13.4176C7.11479 15.2724 6.69531 16.8371 6.65781 16.8949L6.58955 17H3.37559C0.323975 17 0.15752 16.9957 0.0808105 16.9146C0.036377 16.8676 0 16.8063 0 16.7783C0 16.7504 0.560059 14.4729 1.24463 11.7172L2.48921 6.70697L2.34419 6.57139C2.1958 6.43259 2.10039 6.1958 2.0999 5.96518C2.09966 5.86981 2.06714 5.82381 1.97666 5.79088C1.90903 5.76632 1.83213 5.69192 1.80576 5.62555C1.77695 5.55307 1.75781 4.66608 1.75781 3.40416V1.30344L1.87769 1.18883C1.99507 1.07651 2.01362 1.07418 2.79321 1.07399L3.58887 1.07376L3.80776 0.93486C3.92817 0.858453 4.13994 0.752016 4.27832 0.698261C4.52275 0.603406 4.52847 0.596868 4.47866 0.470629C4.45044 0.399173 4.44121 0.306187 4.45815 0.264014C4.51011 0.134505 4.79409 -0.00326938 4.98047 0.0106482C5.12822 0.0216235 5.1646 0.0500191 5.24902 0.220159L5.34668 0.416967L13.5322 0.418648L21.7176 0.42033L21.7496 0.257429C21.7672 0.167852 21.8231 0.0732775 21.8739 0.0472638C21.9247 0.0212501 22.2957 0 22.6984 0C23.3083 0 23.4438 0.0126567 23.5097 0.0757061ZM10.2539 6.9161C10.2539 6.94399 10.3253 7.10441 10.4126 7.27264C10.5932 7.62067 10.8823 7.95656 11.0896 8.05907C11.2718 8.14921 11.2838 8.33864 11.112 8.41351C11.0144 8.45605 10.9631 8.44718 10.8211 8.36325C10.4686 8.15482 10.0566 7.59129 9.81797 6.99102C9.773 6.87781 9.74395 6.86538 9.52456 6.86538C9.28437 6.86538 9.28047 6.86772 9.23286 7.04052C9.04849 7.7102 8.74023 8.92906 8.74023 8.98852C8.74023 9.05026 8.84927 9.06044 9.50928 9.06039C10.618 9.0603 11.3385 8.91669 11.8714 8.58962C12.3524 8.29437 12.9036 7.61273 13.1069 7.06163L13.1792 6.86538H11.7166C10.6972 6.86538 10.2539 6.88075 10.2539 6.9161Z" fill="white"/>
</svg>
