<svg width="26" height="30" viewBox="0 0 26 30" fill="none" xmlns="http://www.w3.org/2000/svg">
<path fill-rule="evenodd" clip-rule="evenodd" d="M23.16 0.0766228C22.9946 0.177094 22.8911 0.386008 22.8887 0.62382C22.8872 0.778279 22.9526 0.88977 23.2435 1.22788L23.6003 1.64254L23.1517 2.13698L22.7031 2.63142L22.5143 2.43834C22.2294 2.14701 22.1584 2.09765 21.9502 2.04612C21.5151 1.93856 21.5783 1.87953 18.3525 5.40715C16.6966 7.21798 15.3046 8.77668 15.2591 8.87088C15.2136 8.96514 15.1764 9.1669 15.1764 9.31925C15.1764 9.57565 15.1556 9.61867 14.8958 9.90004C14.6729 10.1414 14.5834 10.2011 14.4609 10.1903C14.0589 10.1547 14.0208 10.1775 13.4313 10.8079L12.8575 11.4214L12.3793 10.8894C11.8191 10.2662 11.5153 10.0778 11.0724 10.0789C10.8984 10.0793 10.6911 10.1244 10.5645 10.1892C10.3888 10.2793 8.12002 12.2613 7.02107 13.2849C6.68604 13.5969 6.53005 13.9049 6.48969 14.3338C6.43868 14.8752 6.55512 15.0999 7.33722 15.97L8.0238 16.7339L7.48856 17.3182C6.93104 17.9269 6.80039 18.1798 6.87502 18.5059C6.9033 18.6293 6.86219 18.7057 6.62793 18.9658C6.36689 19.2557 6.33316 19.2753 6.15172 19.2435C6.02112 19.2206 5.89624 19.2423 5.77467 19.309C5.56036 19.4264 0.197465 25.2693 0.0786796 25.5147C-0.0328356 25.7451 -0.0245495 26.1623 0.0955192 26.3659C0.234085 26.6008 3.29536 29.7809 3.49957 29.9021C3.71822 30.0318 3.96338 30.0326 4.20843 29.9046C4.37228 29.8189 4.76403 29.2506 6.58185 26.4607C7.77927 24.623 8.81034 23.0272 8.87304 22.9143C8.99878 22.6882 9.02519 22.2843 8.92789 22.0752C8.89512 22.0048 8.74538 21.8084 8.59511 21.6388L8.32188 21.3305L8.54796 21.0827L8.77398 20.8348L9.14232 21.2445L9.51065 21.6541L10.2144 23.94C10.6654 25.4048 10.9603 26.2753 11.0354 26.3636C11.1998 26.5567 11.4113 26.6661 11.6177 26.6649C11.8565 26.6636 15.4245 25.5883 15.5938 25.4667C15.9258 25.2281 16.0409 24.655 15.8321 24.2796C15.7505 24.1327 15.5061 23.9131 15.254 23.7601C15.2457 23.7551 15.0107 22.8308 14.7316 21.7061C14.4525 20.5813 14.2137 19.629 14.2009 19.5896C14.1881 19.5504 14.3935 19.3174 14.6573 19.072L15.137 18.6257L15.5237 18.8984C16.3179 19.4584 17.252 19.8786 18.2667 20.1325C18.7906 20.2636 19.0755 20.297 19.8664 20.3204C20.5105 20.3395 20.9045 20.3263 21.0579 20.2806C21.4854 20.1531 21.5603 20.0246 22.1129 18.4713C22.6581 16.9385 22.7028 16.7047 22.515 16.367C22.3081 15.9949 22.2291 15.9719 21.0184 15.9312C19.8236 15.8909 19.2486 15.7748 18.4623 15.415C17.7686 15.0976 17.8083 15.1348 17.8074 14.801C17.8054 14.0413 17.5272 13.3317 16.9678 12.6597L16.6156 12.2365L16.8375 11.9932L17.0594 11.7498L17.5006 12.2263C17.9784 12.7423 18.191 12.8907 18.4523 12.8907C18.8492 12.8907 18.8752 12.8588 21.5656 9.06479C22.9833 7.06569 24.1852 5.34836 24.2367 5.24853C24.3397 5.04871 24.3583 4.71423 24.2792 4.48592C24.251 4.40491 24.1441 4.23667 24.0414 4.11205L23.8547 3.88549L24.8167 2.83407C25.3458 2.2558 25.8278 1.69653 25.8879 1.59125C26.0993 1.2209 26.0014 0.665439 25.6808 0.417017C25.3365 0.150071 24.9218 0.204468 24.5896 0.560162L24.3865 0.777634L24.0686 0.445153C23.643 6.78934e-05 23.4289 -0.0868038 23.16 0.0766228ZM11.4076 12.3496L11.7128 12.6877L10.4429 14.0793L9.173 15.4707L8.7194 14.9705L8.2658 14.4704L8.42618 14.3301C8.51439 14.253 9.12783 13.7015 9.78938 13.1047C10.4509 12.5078 11.017 12.0177 11.0473 12.0155C11.0777 12.0133 11.2398 12.1636 11.4076 12.3496ZM11.4044 17.2811C11.7399 17.6098 11.6014 18.0753 11.0231 18.562C10.8987 18.6668 10.7373 18.7525 10.6647 18.7525C10.4698 18.7525 10.2467 18.6067 10.174 18.4317C10.0527 18.1398 10.0946 17.9634 10.3632 17.6359C10.82 17.0788 11.1004 16.9832 11.4044 17.2811Z" fill="black"/>
</svg>
