<svg width="42" height="42" viewBox="0 0 42 42" fill="none" xmlns="http://www.w3.org/2000/svg">
<path d="M21.7929 22.231L26.2089 20.9062V19.1175C24.5769 17.909 23.4728 16.0263 23.316 13.8835C22.4635 13.6269 21.8407 12.8346 21.8407 11.8996C21.8407 11.2944 22.1128 10.7207 22.5688 10.3307V6.07538C22.5688 4.90873 23.1596 3.81747 24.128 3.16352C24.4518 1.94716 25.5428 1.09198 26.8242 1.09198H32.6484C35.7978 1.09198 38.3599 3.65406 38.3599 6.80341V10.3307C38.8159 10.7207 39.0879 11.2943 39.0879 11.8996C39.0879 12.8346 38.4651 13.6269 37.6126 13.8835C37.4559 16.0263 36.3518 17.909 34.7197 19.1175V20.9062L40.0051 22.4918C41.1983 22.8498 42 23.9273 42 25.1731V32.2844C42 32.6241 41.7245 32.8996 41.3848 32.8996H41.272V40.2927C41.272 40.6324 40.9965 40.9079 40.6567 40.9079C40.317 40.9079 40.0415 40.6324 40.0415 40.2927V32.8996H37.6318V40.2927C37.6318 40.6324 37.3564 40.9079 37.0166 40.9079C36.6768 40.9079 36.4014 40.6324 36.4014 40.2927V28.6442C36.4014 28.5487 36.4236 28.4545 36.4663 28.3691L37.9224 25.457C38.0743 25.1531 38.4438 25.0298 38.7478 25.1819C39.0517 25.3338 39.1749 25.7033 39.0229 26.0072L37.6318 28.7895V31.6691H40.6567H40.7695V25.1731C40.7695 24.4749 40.3202 23.871 39.6514 23.6703L37.4421 23.0075C36.691 26.199 33.8006 28.5314 30.4643 28.5314C28.7489 28.5314 27.0891 27.9159 25.7906 26.7982C24.6374 25.8056 23.8329 24.4738 23.4879 23.007L22.1466 23.4096C22.0876 23.4273 22.0281 23.4356 21.9695 23.4356C21.7049 23.4356 21.4604 23.2635 21.3805 22.997C21.2828 22.6716 21.4675 22.3286 21.7929 22.231ZM36.4014 13.3557C36.4014 13.0159 36.6768 12.7404 37.0166 12.7404C37.4802 12.7404 37.8574 12.3632 37.8574 11.8996C37.8574 11.6012 37.6996 11.3311 37.4352 11.1772C37.4216 11.1693 37.4092 11.1599 37.3963 11.1511C37.2793 11.0916 37.1494 11.0588 37.0166 11.0588H36.0853C35.5062 11.0588 34.994 10.6896 34.8109 10.1403L34.3871 8.86879C32.9407 8.83688 28.3824 8.63442 25.8211 7.35367C25.5171 7.20175 25.3939 6.8322 25.5459 6.52827C25.6978 6.22435 26.0673 6.10114 26.3713 6.25314C29.1186 7.62675 34.7758 7.64423 34.8326 7.64423C35.0974 7.64431 35.3325 7.8137 35.4162 8.06488L35.9783 9.7512C35.9937 9.7973 36.0366 9.82831 36.0853 9.82831H37.0166C37.0543 9.82831 37.0918 9.82995 37.1294 9.832V6.80341C37.1294 4.33262 35.1192 2.32245 32.6484 2.32245H26.8242C26.0525 2.32245 25.404 2.87862 25.2824 3.64487C25.2529 3.83027 25.1404 3.99211 24.977 4.08432C24.2506 4.49398 23.7994 5.25687 23.7994 6.07538V10.6455C23.7994 10.8645 23.6829 11.0671 23.4936 11.1772C23.2292 11.3311 23.0714 11.6012 23.0714 11.8996C23.0714 12.3632 23.4486 12.7404 23.9122 12.7404C24.252 12.7404 24.5274 13.0159 24.5274 13.3557C24.5274 16.6294 27.1907 19.2927 30.4644 19.2927C33.7381 19.2927 36.4014 16.6293 36.4014 13.3557ZM27.4395 19.852V21.364C27.4395 23.0319 28.7964 24.3889 30.4644 24.3889C32.1297 24.3889 33.4847 23.0362 33.4891 21.3718C33.4891 21.3689 33.4893 21.3659 33.4893 21.3631V19.852C32.5696 20.2819 31.5448 20.5231 30.4644 20.5231C29.3839 20.5231 28.3591 20.282 27.4395 19.852ZM26.5935 25.8657C27.6687 26.7912 29.0435 27.301 30.4644 27.301C33.2534 27.301 35.6652 25.3333 36.2598 22.6529L34.6425 22.1678C34.2656 24.131 32.5359 25.6193 30.4644 25.6193C28.3927 25.6193 26.6631 24.131 26.2862 22.1677L24.669 22.6529C24.9447 23.8958 25.6187 25.0267 26.5935 25.8657Z" fill="white"/>
<path d="M28.6206 15.0621C28.8845 14.848 29.2719 14.8884 29.4859 15.1523C29.7476 15.475 30.095 15.6527 30.4642 15.6527C30.8333 15.6527 31.1807 15.475 31.4424 15.1523C31.6563 14.8884 32.0438 14.8481 32.3077 15.0621C32.5716 15.2761 32.612 15.6635 32.398 15.9274C31.9054 16.5347 31.2006 16.8831 30.4642 16.8831C29.7278 16.8831 29.023 16.5347 28.5304 15.9274C28.3163 15.6635 28.3567 15.2761 28.6206 15.0621Z" fill="white"/>
<path d="M33.3765 11.2844C33.7162 11.2844 33.9917 11.5598 33.9917 11.8996V12.6276C33.9917 12.9674 33.7162 13.2429 33.3765 13.2429C33.0367 13.2429 32.7612 12.9674 32.7612 12.6276V11.8996C32.7612 11.5599 33.0367 11.2844 33.3765 11.2844Z" fill="white"/>
<path d="M27.5522 11.2844C27.892 11.2844 28.1675 11.5598 28.1675 11.8996V12.6276C28.1675 12.9674 27.892 13.2429 27.5522 13.2429C27.2125 13.2429 26.937 12.9674 26.937 12.6276V11.8996C26.937 11.5599 27.2125 11.2844 27.5522 11.2844Z" fill="white"/>
<path d="M8.96385 18.702C9.22775 18.4879 9.61518 18.5284 9.8292 18.7923C10.0909 19.115 10.4383 19.2927 10.8074 19.2927C11.1766 19.2927 11.524 19.115 11.7856 18.7923C11.9996 18.5284 12.3871 18.488 12.651 18.702C12.9149 18.9161 12.9552 19.3035 12.7412 19.5674C12.2486 20.1748 11.5437 20.5231 10.8073 20.5231C10.0709 20.5231 9.3663 20.1748 8.87362 19.5674C8.6596 19.3036 8.69996 18.9161 8.96385 18.702Z" fill="white"/>
<path d="M13.7197 14.9245C14.0595 14.9245 14.335 15.2 14.335 15.5397V16.2678C14.335 16.6075 14.0595 16.883 13.7197 16.883C13.38 16.883 13.1045 16.6075 13.1045 16.2678V15.5397C13.1045 15.1999 13.38 14.9245 13.7197 14.9245Z" fill="white"/>
<path d="M7.89551 14.9245C8.23528 14.9245 8.51074 15.2 8.51074 15.5397V16.2678C8.51074 16.6075 8.23528 16.883 7.89551 16.883C7.55573 16.883 7.28027 16.6075 7.28027 16.2678V15.5397C7.28027 15.2 7.55573 14.9245 7.89551 14.9245Z" fill="white"/>
<path d="M1.75965 27.5239L6.75175 25.527C6.79416 25.51 6.83452 25.4897 6.87274 25.4668C3.49158 24.786 1.90813 24.1461 1.83808 24.1174C1.58099 24.012 1.42636 23.7474 1.46081 23.4717C1.46803 23.4138 2.18408 17.6276 2.18408 12.6276C2.18408 7.87254 6.05259 4.00403 10.8076 4.00403C15.5626 4.00403 19.4312 7.87262 19.4312 12.6277C19.4312 17.6254 20.1472 23.4139 20.1544 23.4718C20.1889 23.7476 20.0343 24.0121 19.7772 24.1175C19.7071 24.1462 18.1237 24.7861 14.7425 25.467C14.7807 25.4899 14.8211 25.5102 14.8635 25.5271L19.8555 27.5239C20.9244 27.9515 21.6152 28.9717 21.6152 30.123V31.6692H23.2969V28.7896L21.9058 26.0073C21.7538 25.7034 21.877 25.3339 22.1809 25.182C22.4848 25.0299 22.8544 25.1532 23.0063 25.4571L24.4624 28.3692C24.5051 28.4547 24.5273 28.5488 24.5273 28.6443V40.2928C24.5273 40.6325 24.2519 40.908 23.9121 40.908C23.5723 40.908 23.2969 40.6325 23.2969 40.2928V32.8997H21.6152V33.7408C21.6152 33.9041 21.5503 34.0606 21.4349 34.176C21.3196 34.2914 21.1632 34.3561 21 34.3561C20.9999 34.3561 20.9998 34.3561 20.9997 34.3561H20.8872V40.2928C20.8872 40.6325 20.6117 40.908 20.272 40.908C19.9322 40.908 19.6567 40.6325 19.6567 40.2928V34.3558H17.9751V40.2928C17.9751 40.6325 17.6996 40.908 17.3599 40.908C17.0201 40.908 16.7446 40.6325 16.7446 40.2928V32.2845C16.7446 31.9447 17.0201 31.6692 17.3599 31.6692C17.6996 31.6692 17.9751 31.9447 17.9751 32.2845V33.1253H20.3848V30.1229C20.3848 29.4777 19.9977 28.9059 19.3986 28.6663L16.9445 27.6846C16.1013 30.3436 13.6277 32.1716 10.8076 32.1716C7.98755 32.1716 5.51398 30.3435 4.67078 27.6846L2.21665 28.6663C1.61757 28.9059 1.23047 29.4778 1.23047 30.1229V33.1253H3.64014V32.2845C3.64014 31.9447 3.9156 31.6692 4.25537 31.6692C4.59514 31.6692 4.87061 31.9447 4.87061 32.2845V40.2928C4.87061 40.6325 4.59514 40.908 4.25537 40.908C3.9156 40.908 3.64014 40.6325 3.64014 40.2928V34.3558H1.9585V40.2928C1.9585 40.6325 1.68304 40.908 1.34326 40.908C1.00349 40.908 0.728027 40.6325 0.728027 40.2928V34.3558H0.615234C0.275461 34.3558 0 34.0803 0 33.7405V30.1229C0 28.9716 0.690702 27.9515 1.75965 27.5239ZM18.2008 12.6276C18.2007 8.55102 14.8842 5.23458 10.8076 5.23458C6.73107 5.23458 3.41455 8.5511 3.41455 12.6276C3.41455 16.8514 2.91219 21.6202 2.73935 23.1357C3.42095 23.3673 4.91261 23.8236 7.28027 24.2935V23.2343C6.9387 23.0415 6.61196 22.8209 6.30492 22.5727C5.05485 21.5623 4.17162 20.1472 3.81782 18.5882C3.69994 18.0687 3.64014 17.5329 3.64014 16.9958C3.64014 13.4123 6.23585 12.897 8.74601 12.3986C10.3514 12.0799 12.0113 11.7503 13.3354 10.6911C13.4802 10.5752 13.6699 10.5313 13.8511 10.5709C14.0323 10.6104 14.1862 10.7299 14.2697 10.8956C14.2731 10.9024 14.6178 11.581 15.2008 12.2418C15.6945 12.8014 16.47 13.4685 17.3599 13.4685C17.6628 13.4685 17.9505 13.5343 18.21 13.6517C18.204 13.3083 18.2008 12.9662 18.2008 12.6276ZM10.8076 22.9329C12.1813 22.9329 13.4708 22.4774 14.5368 21.6157C15.5728 20.7784 16.3046 19.6065 16.5975 18.3159C16.6952 17.8856 16.7446 17.4414 16.7446 16.9958C16.7446 16.656 17.0201 16.3806 17.3599 16.3806C17.8235 16.3806 18.2007 16.0034 18.2007 15.5398C18.2007 15.0761 17.8235 14.6989 17.3599 14.6989C15.4942 14.6989 14.141 13.0096 13.53 12.0644C12.0952 12.9882 10.4541 13.314 8.98562 13.6056C6.28163 14.1424 4.87061 14.537 4.87061 16.9959C4.87061 17.4416 4.92015 17.8857 5.01769 18.3159C5.31054 19.6065 6.04242 20.7784 7.07839 21.6158C8.14439 22.4775 9.43392 22.9329 10.8076 22.9329ZM18.8759 23.1357C18.767 22.181 18.5274 19.9356 18.365 17.3488C18.2361 17.4206 18.0996 17.4804 17.9558 17.5237C17.9296 17.8828 17.8767 18.2392 17.7974 18.5882C17.4436 20.1472 16.5603 21.5623 15.3103 22.5727C15.0033 22.8209 14.6765 23.0415 14.335 23.2343V24.2935C16.703 23.8235 18.1947 23.3672 18.8759 23.1357ZM10.8076 30.9412C13.1193 30.9412 15.1436 29.4235 15.7989 27.2265L14.4066 26.6696C13.6156 26.3532 13.1045 25.5983 13.1045 24.7464V23.783C12.3687 24.0319 11.5925 24.1635 10.8076 24.1635C10.0227 24.1635 9.24656 24.0319 8.51074 23.783V24.7464C8.51074 25.5983 7.99969 26.3532 7.20874 26.6696L5.81634 27.2266C6.47161 29.4234 8.49589 30.9412 10.8076 30.9412Z" fill="white"/>
</svg>
