<svg width="34" height="39" viewBox="0 0 34 39" fill="none" xmlns="http://www.w3.org/2000/svg">
<path d="M17.7555 38.2323C17.7555 38.6553 17.4196 39 17.0067 39C16.5945 39 16.2586 38.6553 16.2586 38.2323C16.2586 37.8093 16.5945 37.4646 17.0067 37.4646C17.4196 37.4646 17.7555 37.8093 17.7555 38.2323ZM1.29128 38.2323V37.2611C1.29128 32.1426 4.67388 29.3513 6.15498 28.4401C8.16651 27.2033 10.3271 26.2682 12.5866 25.6538V24.4177C12.2098 24.0764 11.8655 23.6884 11.5612 23.2558C10.6652 21.9823 9.93389 20.6014 9.38274 19.1435C8.87834 19.0728 8.41718 18.7434 8.18005 18.228C7.95392 17.7368 6.38538 14.7588 6.14503 14.2289C5.53576 12.8853 6.33204 11.5579 7.34151 11.1306C7.50959 11.0594 7.68239 11.0068 7.85818 10.9768C7.69473 10.2905 7.61215 9.58479 7.61215 8.8672C7.61215 3.97777 11.4879 0 16.2519 0C17.0891 0 17.882 0.328659 18.4845 0.925406C18.4909 0.931778 18.501 0.931778 18.5075 0.925406C19.1101 0.328659 19.9029 0 20.7401 0C23.978 0 26.6121 2.70351 26.6121 6.02658V7.42466C26.6121 8.62852 26.4511 9.81357 26.1333 10.9622C26.3129 10.9921 26.4922 11.0402 26.6623 11.1192C27.9043 11.6965 28.3893 13.123 27.8587 14.2175C27.605 14.7407 26.0499 17.7252 25.8236 18.2167C25.5866 18.7317 25.1256 19.0612 24.6216 19.1321C24.0701 20.5935 23.3377 21.9776 22.4399 23.254C22.1353 23.687 21.7905 24.0757 21.4133 24.4173V25.6537C23.6727 26.2681 25.8334 27.2032 27.8449 28.44C29.326 29.3513 32.7086 32.1425 32.7086 37.261V38.2323C32.7086 38.6563 32.3737 39 31.9606 39H20.3743C20.3736 39 20.3736 39 20.3728 39C19.9441 39 19.5979 38.6279 19.6264 38.1809C19.6525 37.7729 20.0007 37.4646 20.3991 37.4646H31.2125C31.2125 34.2228 29.6275 31.3267 27.0752 29.7575C25.2734 28.6493 23.3438 27.7977 21.3277 27.2204C20.9245 29.2943 19.1375 30.8622 16.9999 30.8622C14.8624 30.8622 13.0754 29.2944 12.6722 27.2204C10.6566 27.7977 8.72642 28.6493 6.92471 29.7575C4.37242 31.3267 2.78735 34.1337 2.78735 37.4646H13.6413C14.0707 37.4646 14.4164 37.8386 14.3868 38.2856C14.3598 38.6929 14.0119 39 13.6141 39H2.03931C1.62618 39 1.29128 38.6563 1.29128 38.2323ZM9.1109 8.98482C9.17995 8.90152 10.2122 7.60039 11.9887 7.60039C12.8748 7.60039 13.7259 7.91731 14.3999 8.48235C15.0207 9.00278 15.8112 9.28937 16.6259 9.28937C18.5538 9.28937 20.0982 7.69797 20.1418 5.66644C20.1508 5.24919 20.4829 4.91569 20.8896 4.91561C21.2962 4.91554 21.6284 5.24888 21.6376 5.66613C21.6591 6.64651 22.1732 7.4966 22.9795 7.88468C23.7725 8.26639 24.436 8.84425 24.9227 9.55132C25.0514 8.85323 25.1162 8.14279 25.1162 7.42474V6.02658C25.1162 3.55015 23.1531 1.53543 20.7402 1.53543C20.2926 1.53543 19.8686 1.71116 19.5465 2.03023C18.9575 2.61384 18.0346 2.61377 17.4455 2.03023C17.1234 1.71116 16.6995 1.53543 16.2519 1.53543C12.3129 1.53543 9.0732 4.78211 9.1109 8.98482ZM19.9173 25.4401C18.1462 26.2981 16.0999 26.3971 14.0826 25.4404V26.3327C14.0826 27.9837 15.3913 29.3268 16.9999 29.3268C18.6086 29.3268 19.9173 27.9837 19.9173 26.3327V25.4401ZM21.2269 22.3553C22.1548 21.0362 22.8904 19.5921 23.4115 18.0622C23.503 17.7938 23.8505 17.3876 24.4393 17.6253C24.7168 17.0186 26.2795 14.053 26.506 13.5616C26.6786 13.1874 26.4699 12.7 26.0777 12.5326C25.8562 12.4381 25.6111 12.4546 25.3958 12.5675C24.9315 12.811 24.3572 12.5237 24.298 11.997C24.1634 10.8015 23.4083 9.787 22.3442 9.27486C21.8063 9.01599 21.3477 8.63627 20.9903 8.17157C20.7652 8.58722 20.4731 8.96117 20.1522 9.31601C18.7325 10.8868 15.7644 11.5851 13.4535 9.67162C12.5519 8.92509 11.2112 8.97 10.3839 9.8313C9.93389 10.2998 9.66923 10.9323 9.66923 11.5785V11.8807C9.67163 12.4446 9.08772 12.821 8.58564 12.5669C8.37768 12.4617 8.13996 12.457 7.92602 12.5442C7.58679 12.6824 7.29723 13.1331 7.4977 13.5732C7.72211 14.0657 9.31931 17.0757 9.55583 17.6255C10.2145 17.3902 10.5237 17.8731 10.5922 18.0733C11.1138 19.5994 11.848 21.0407 12.7741 22.3571C13.7701 23.7728 15.3104 24.5847 16.9997 24.5846C18.6897 24.5843 20.2305 23.7718 21.2269 22.3553ZM33.0826 4.6063V0.767717C33.0826 0.343707 32.7477 0 32.3346 0H28.5944C28.1813 0 27.8464 0.343707 27.8464 0.767717C27.8464 1.19173 28.1813 1.53543 28.5944 1.53543H31.5866V4.6063C31.5866 5.03031 31.9214 5.37402 32.3346 5.37402C32.7477 5.37402 33.0826 5.03031 33.0826 4.6063ZM33.0826 25.565V21.7264C33.0826 21.3024 32.7477 20.9587 32.3346 20.9587C31.9214 20.9587 31.5866 21.3024 31.5866 21.7264V24.7972H28.5944C28.1813 24.7972 27.8464 25.141 27.8464 25.565C27.8464 25.989 28.1813 26.3327 28.5944 26.3327H32.3346C32.7477 26.3327 33.0826 25.989 33.0826 25.565ZM2.41333 4.6063V1.53543H5.40546C5.81859 1.53543 6.15349 1.19173 6.15349 0.767717C6.15349 0.343707 5.81859 0 5.40546 0H1.6653C1.25216 0 0.917267 0.343707 0.917267 0.767717V4.6063C0.917267 5.03031 1.25216 5.37402 1.6653 5.37402C2.07844 5.37402 2.41333 5.03031 2.41333 4.6063ZM6.15349 25.565C6.15349 25.141 5.81859 24.7972 5.40546 24.7972H2.41333V21.7264C2.41333 21.3024 2.07844 20.9587 1.6653 20.9587C1.25216 20.9587 0.917267 21.3024 0.917267 21.7264V25.565C0.917267 25.989 1.25216 26.3327 1.6653 26.3327H5.40546C5.81859 26.3327 6.15349 25.989 6.15349 25.565Z" fill="white"/>
</svg>
