<svg width="43" height="41" viewBox="0 0 43 41" fill="none" xmlns="http://www.w3.org/2000/svg">
<path d="M42.8919 20.7315C37.7715 -1.42083 19.0619 2.39625 19.0619 2.39625C19.0619 2.39625 17.1541 1.7432 20.2723 0.254081C14.5932 -1.1879 11.0576 3.97826 11.0576 3.97826C11.0576 3.97826 9.84713 4.02402 9.84713 1.83748C8.40377 2.02189 9.75423 5.83758 9.75423 5.83758C9.75423 5.83758 5.75136 5.93186 4.81963 5.28158C4.35514 6.76932 8.0405 6.46983 9.10257 6.8636C-9.60845 8.16554 6.31013 33.7648 6.40303 31.7169C3.61059 19.7097 10.313 15.3352 10.313 15.3352C10.313 15.3352 15.9908 21.0601 20.5524 20.5499C15.7121 18.6878 16.6577 17.7561 16.6577 17.7561C16.6577 17.7561 24.4152 18.4077 31.908 14.8707C35.072 15.0094 37.6787 21.8296 38.4232 30.3234C41.938 27.7875 41.0299 20.7343 41.0299 20.7343C41.0299 20.7343 43.5436 22.7808 42.8919 20.7315Z" fill="white"/>
<path d="M29.5218 36.395C28.3197 35.3995 25.5258 32.1869 22.011 35.6435C18.6016 32.5377 15.9007 35.6283 14.7249 36.6044C10.3269 38.6287 10.1175 36.151 10.0121 35.4855C6.69696 41.4558 17.2733 40.0929 18.8096 40.0929C20.2696 40.0929 22.1816 39.2194 22.3687 39.1334C23.0759 39.4218 24.375 39.8835 25.4371 39.8835C26.9706 39.8835 37.5483 41.2451 34.2332 35.2775C34.1306 35.9402 33.9198 38.4193 29.5218 36.395Z" fill="white"/>
</svg>
