<svg width="710" height="1080" viewBox="0 0 710 1080" fill="none" xmlns="http://www.w3.org/2000/svg">
<g filter="url(#filter0_d_69_3844)">
<g clip-path="url(#clip0_69_3844)">
<circle r="800" transform="matrix(-1 0 0 1 -174 594)" fill="#EFF0F6"/>
<g opacity="0.85">
<g opacity="0.5">
<path d="M551.185 267.148L601.69 317.653V295.654L573.184 267.148H551.185Z" fill="#E8EAF5"/>
<path d="M553.664 381.171L601.69 429.197V407.198L570.086 375.594L592.395 353.285C595.493 350.187 595.493 345.229 592.395 342.441C589.296 339.342 584.339 339.342 581.55 342.441L553.664 370.327C550.566 373.115 550.566 378.073 553.664 381.171Z" fill="#E8EAF5"/>
<path d="M439.641 267.148L497.892 325.399C499.441 326.949 501.3 327.568 503.469 327.568C505.328 327.568 507.497 326.949 509.046 325.399L531.355 303.09L553.664 325.399C556.762 328.498 561.72 328.498 564.508 325.399C567.607 322.301 567.607 317.343 564.508 314.555L536.622 286.669C533.524 283.57 528.566 283.57 525.778 286.669L503.469 308.978L461.64 267.148H439.641Z" fill="#E8EAF5"/>
<path d="M536.623 409.057C535.073 410.607 533.214 411.226 531.045 411.226C529.186 411.226 527.017 410.607 525.468 409.057L503.159 386.749L480.85 409.057C479.301 410.607 477.442 411.226 475.273 411.226C473.414 411.226 471.245 410.607 469.696 409.057C466.598 405.959 466.598 401.001 469.696 398.213L492.005 375.904L469.696 353.595C466.598 350.497 466.598 345.539 469.696 342.751C472.794 339.652 477.752 339.652 480.541 342.751L502.849 365.059L525.158 342.751C528.257 339.652 533.214 339.652 536.003 342.751C539.101 345.849 539.101 350.807 536.003 353.595L513.694 375.904L536.003 398.213C539.721 401.001 539.721 405.959 536.623 409.057Z" fill="#E8EAF5"/>
<path d="M553.664 481.561C550.566 484.66 550.566 489.617 553.664 492.406L601.69 540.742V518.743L570.086 487.138L592.395 464.83C595.493 461.731 595.493 456.774 592.395 453.985L564.509 426.099C561.41 423.001 556.453 423.001 553.664 426.099C550.566 429.197 550.566 434.155 553.664 436.944L575.973 459.252L553.664 481.561Z" fill="#E8EAF5"/>
<path d="M536.623 464.83C535.074 466.379 533.215 466.999 531.046 466.999C529.187 466.999 527.018 466.379 525.468 464.83L497.582 436.944C494.484 433.845 494.484 428.888 497.582 426.099C500.681 423.001 505.638 423.001 508.427 426.099L536.313 453.985C539.721 456.774 539.721 461.731 536.623 464.83Z" fill="#E8EAF5"/>
<path d="M414.234 342.131C411.136 345.229 411.136 350.187 414.234 352.976L442.12 380.862C443.669 382.411 445.528 383.03 447.697 383.03C449.556 383.03 451.725 382.411 453.274 380.862C456.373 377.763 456.373 372.806 453.274 370.017L430.966 347.708L453.274 325.399C456.373 322.301 456.373 317.343 453.274 314.555L405.868 267.148H383.869L436.543 319.822L414.234 342.131Z" fill="#E8EAF5"/>
<path d="M386.348 325.399L358.462 297.513C355.363 294.415 355.363 289.457 358.462 286.669C361.56 283.57 366.518 283.57 369.306 286.669L397.192 314.555C400.291 317.653 400.291 322.611 397.192 325.399C395.643 326.948 393.784 327.568 391.615 327.568C389.756 327.568 387.897 326.948 386.348 325.399Z" fill="#E8EAF5"/>
<path d="M313.534 409.057C311.985 410.607 310.126 411.226 307.957 411.226C306.098 411.226 303.929 410.607 302.38 409.057L280.071 386.749L257.762 409.057C256.213 410.607 254.354 411.226 252.185 411.226C250.326 411.226 248.157 410.607 246.608 409.057C243.509 405.959 243.509 401.001 246.608 398.213L268.916 375.904L246.608 353.595C243.509 350.497 243.509 345.539 246.608 342.751C249.706 339.652 254.664 339.652 257.452 342.751L279.761 365.059L302.07 342.751C305.168 339.652 310.126 339.652 312.914 342.751C316.013 345.849 316.013 350.807 312.914 353.595L290.606 375.904L312.914 398.213C316.633 401.001 316.633 405.959 313.534 409.057Z" fill="#E8EAF5"/>
<path d="M536.623 687.918C535.073 689.467 533.214 690.087 531.045 690.087C529.186 690.087 527.017 689.467 525.468 687.918L503.159 665.609L480.85 687.918C479.301 689.467 477.442 690.087 475.273 690.087C473.414 690.087 471.245 689.467 469.696 687.918C466.598 684.819 466.598 679.862 469.696 677.073L492.005 654.764L469.696 632.456C466.598 629.357 466.598 624.4 469.696 621.611C472.794 618.512 477.752 618.512 480.541 621.611L502.849 643.92L525.158 621.611C528.257 618.512 533.214 618.512 536.003 621.611C539.101 624.709 539.101 629.667 536.003 632.456L513.694 654.764L536.003 677.073C539.721 679.862 539.721 684.819 536.623 687.918Z" fill="#E8EAF5"/>
<path d="M592.395 576.374C590.845 577.923 588.986 578.543 586.817 578.543C584.958 578.543 582.789 577.923 581.24 576.374L531.045 526.179L508.736 548.488C507.187 550.037 505.328 550.657 503.159 550.657C501.3 550.657 499.131 550.037 497.582 548.488C494.483 545.389 494.483 540.432 497.582 537.643L519.891 515.334L469.696 465.139C466.597 462.041 466.597 457.083 469.696 454.295C472.794 451.196 477.752 451.196 480.54 454.295L592.085 565.839C595.493 568.318 595.493 573.275 592.395 576.374Z" fill="#E8EAF5"/>
<path d="M592.395 632.146C590.845 633.695 588.986 634.315 586.817 634.315C584.958 634.315 582.789 633.695 581.24 632.146L531.045 581.951L508.736 604.26C505.638 607.358 500.68 607.358 497.892 604.26L442.12 548.488C439.021 545.389 439.021 540.432 442.12 537.643L464.429 515.334L442.12 493.026C439.021 489.927 439.021 484.97 442.12 482.181C445.218 479.083 450.176 479.083 452.964 482.181L480.85 510.067C483.949 513.166 483.949 518.123 480.85 520.912L458.541 543.22L503.469 588.148L525.778 565.839C528.876 562.741 533.834 562.741 536.622 565.839L592.395 621.611C595.493 624.09 595.493 629.048 592.395 632.146Z" fill="#E8EAF5"/>
<path d="M452.964 425.789C456.063 428.887 456.063 433.845 452.964 436.634L425.078 464.52C423.529 466.069 421.67 466.689 419.501 466.689C417.642 466.689 415.473 466.069 413.924 464.52C410.825 461.421 410.825 456.464 413.924 453.675L441.81 425.789C444.908 423 449.866 423 452.964 425.789Z" fill="#E8EAF5"/>
<path d="M425.079 409.057C421.98 412.156 417.023 412.156 414.234 409.057L364.039 358.862L346.998 375.904L397.193 425.789C400.291 428.887 400.291 433.845 397.193 436.633C395.643 438.183 393.784 438.802 391.615 438.802C389.756 438.802 387.587 438.183 386.038 436.633L330.266 380.861C327.168 377.763 327.168 372.805 330.266 370.017L358.152 342.131C361.25 339.032 366.208 339.032 368.997 342.131L424.769 397.903C428.177 401.001 428.177 405.959 425.079 409.057Z" fill="#E8EAF5"/>
<path d="M330.576 325.399L308.267 303.09L285.958 325.399C284.409 326.948 282.55 327.568 280.381 327.568C278.522 327.568 276.353 326.948 274.804 325.399C271.705 322.301 271.705 317.343 274.804 314.555L302.69 286.669C305.788 283.57 310.746 283.57 313.534 286.669L341.42 314.555C344.519 317.653 344.519 322.611 341.42 325.399C338.322 328.188 333.364 328.188 330.576 325.399Z" fill="#E8EAF5"/>
<path d="M216.553 267.148L246.917 297.513C248.467 299.062 250.326 299.682 252.495 299.682C254.354 299.682 256.523 299.062 258.072 297.513C261.17 294.415 261.17 289.457 258.072 286.669L238.861 267.458H216.553V267.148Z" fill="#E8EAF5"/>
<path d="M224.299 327.568C222.44 327.568 220.271 326.948 218.722 325.399L190.836 297.513C187.737 294.415 187.737 289.457 190.836 286.669C193.934 283.57 198.892 283.57 201.68 286.669L229.566 314.555C232.665 317.653 232.665 322.611 229.566 325.399C228.327 326.948 226.468 327.568 224.299 327.568Z" fill="#E8EAF5"/>
<path d="M386.347 481.561C389.446 478.463 394.403 478.463 397.192 481.561L425.078 509.447C428.176 512.546 428.176 517.503 425.078 520.292C421.979 523.39 417.022 523.39 414.233 520.292L391.924 497.983L369.616 520.292C368.066 521.841 366.207 522.461 364.038 522.461C362.179 522.461 360.01 521.841 358.461 520.292L274.803 436.634C271.705 433.535 271.705 428.578 274.803 425.789C277.901 422.69 282.859 422.69 285.648 425.789L363.729 503.87L386.347 481.561Z" fill="#E8EAF5"/>
<path d="M452.964 660.032C451.415 661.581 449.556 662.201 447.387 662.201C445.528 662.201 443.359 661.581 441.81 660.032L358.152 576.374C355.053 573.275 355.053 568.318 358.152 565.529L386.038 537.643C389.136 534.545 394.094 534.545 396.882 537.643L452.654 593.415C455.753 596.514 455.753 601.471 452.654 604.26C449.556 607.358 444.598 607.358 441.81 604.26L391.615 554.065L374.573 571.106L452.964 648.878C456.063 651.976 456.063 656.934 452.964 660.032Z" fill="#E8EAF5"/>
<path d="M302.69 509.447C305.788 506.349 310.746 506.349 313.534 509.447L341.42 537.333C344.519 540.432 344.519 545.389 341.42 548.178L313.534 576.064C311.985 577.613 310.126 578.233 307.957 578.233C306.098 578.233 303.929 577.613 302.38 576.064C299.281 572.965 299.281 568.008 302.38 565.219L324.689 542.91L302.38 520.602C299.591 517.503 299.591 512.546 302.69 509.447Z" fill="#E8EAF5"/>
<path d="M229.876 381.171L207.567 403.48L285.648 481.561C288.746 484.66 288.746 489.617 285.648 492.406C284.099 493.955 282.24 494.575 280.071 494.575C278.212 494.575 276.043 493.955 274.493 492.406L224.298 442.211L201.99 464.52C200.44 466.069 198.581 466.689 196.412 466.689C194.553 466.689 192.384 466.069 190.835 464.52C187.737 461.421 187.737 456.464 190.835 453.675L213.144 431.366L190.835 409.058C187.737 405.959 187.737 401.002 190.835 398.213L213.144 375.904L162.949 325.709C159.851 322.611 159.851 317.653 162.949 314.865C166.048 311.766 171.005 311.766 173.794 314.865L229.566 370.637C232.974 373.115 232.974 378.073 229.876 381.171Z" fill="#E8EAF5"/>
<path d="M358.462 464.83L330.575 436.944C327.477 433.845 327.477 428.888 330.575 426.099C333.674 423.001 338.631 423.001 341.42 426.099L369.306 453.985C372.405 457.083 372.405 462.041 369.306 464.83C367.757 466.379 365.898 466.999 363.729 466.999C361.87 466.999 360.011 466.379 358.462 464.83Z" fill="#E8EAF5"/>
<path d="M553.664 660.032L601.69 708.058V686.059L564.509 648.877C561.41 645.779 556.453 645.779 553.664 648.877C550.566 651.976 550.566 656.933 553.664 660.032Z" fill="#E8EAF5"/>
<path d="M391.615 662.201C389.756 662.201 387.587 661.581 386.038 660.032L335.843 609.837L313.534 632.146C310.436 635.244 305.478 635.244 302.69 632.146C299.591 629.047 299.591 624.09 302.69 621.301L330.576 593.415C333.674 590.317 338.632 590.317 341.42 593.415L397.192 649.187C400.291 652.286 400.291 657.243 397.192 660.032C395.643 661.581 393.784 662.201 391.615 662.201Z" fill="#E8EAF5"/>
<path d="M224.299 606.429C222.44 606.429 220.271 605.809 218.722 604.26C215.623 601.161 215.623 596.204 218.722 593.415L241.031 571.106L218.722 548.798C215.623 545.699 215.623 540.742 218.722 537.953C221.82 534.855 226.778 534.855 229.566 537.953L251.875 560.262L274.184 537.953C277.282 534.855 282.24 534.855 285.028 537.953C288.127 541.051 288.127 546.009 285.028 548.798L262.72 571.106L285.028 593.415C288.127 596.514 288.127 601.471 285.028 604.26C283.479 605.809 281.62 606.429 279.451 606.429C277.592 606.429 275.423 605.809 273.874 604.26L251.565 581.951L229.256 604.26C228.327 605.809 226.468 606.429 224.299 606.429Z" fill="#E8EAF5"/>
<path d="M219.031 481.561C222.129 478.463 227.087 478.463 229.876 481.561L257.762 509.447C260.86 512.546 260.86 517.503 257.762 520.292C254.663 523.39 249.706 523.39 246.917 520.292L224.608 497.983L202.299 520.292C200.75 521.841 198.891 522.461 196.722 522.461C194.863 522.461 192.694 521.841 191.145 520.292L135.373 464.52C132.274 461.421 132.274 456.464 135.373 453.675L163.259 425.789C166.357 422.69 171.315 422.69 174.104 425.789C177.202 428.887 177.202 433.845 174.104 436.634L151.795 458.942L196.722 503.87L219.031 481.561Z" fill="#E8EAF5"/>
<path d="M135.373 353.285L113.064 330.977L96.0228 348.018L140.95 392.946L163.259 370.637C166.358 367.538 171.315 367.538 174.104 370.637C177.202 373.735 177.202 378.693 174.104 381.481L146.218 409.367C144.668 410.917 142.809 411.536 140.641 411.536C138.781 411.536 136.612 410.917 135.063 409.367L79.2912 353.595C76.1927 350.497 76.1927 345.539 79.2912 342.751L107.177 314.865C110.276 311.766 115.233 311.766 118.022 314.865L145.908 342.751C149.006 345.849 149.006 350.807 145.908 353.595C143.119 356.074 138.162 356.074 135.373 353.285Z" fill="#E8EAF5"/>
<path d="M49.2362 267.148L79.601 297.513C81.1502 299.062 83.0092 299.682 85.1782 299.682C87.0372 299.682 89.2062 299.062 90.7554 297.513L113.064 275.204L135.373 297.513C138.472 300.612 143.429 300.612 146.218 297.513C149.316 294.415 149.316 289.457 146.218 286.669L127.007 267.458H98.8114L84.8684 281.401L70.9254 267.458H49.2362V267.148Z" fill="#E8EAF5"/>
<path d="M525.778 861.431L551.185 886.839H573.184L536.622 850.277C533.524 847.179 528.566 847.179 525.778 850.277C522.679 853.375 522.679 858.333 525.778 861.431Z" fill="#E8EAF5"/>
<path d="M414.234 861.431L439.641 886.839H461.64L425.078 850.277C421.98 847.179 417.022 847.179 414.234 850.277C411.135 853.375 411.135 858.333 414.234 861.431Z" fill="#E8EAF5"/>
<path d="M191.145 861.431L216.552 886.838H238.551L232.354 880.641L252.494 860.501L274.803 882.81C277.902 885.909 282.859 885.909 285.648 882.81C288.746 879.712 288.746 874.754 285.648 871.966L257.762 844.08C254.663 840.981 249.706 840.981 246.917 844.08L221.51 869.487L202.299 850.277C199.201 847.178 194.244 847.178 191.455 850.277C188.047 853.375 188.047 858.333 191.145 861.431Z" fill="#E8EAF5"/>
<path d="M107.487 878.163L98.8114 886.839H127.007L118.332 878.163C115.233 875.374 110.276 875.374 107.487 878.163Z" fill="#E8EAF5"/>
<path d="M23.8287 861.431L49.236 886.839H71.2349L34.6732 850.277C31.5748 847.179 26.6173 847.179 23.8287 850.277C20.7302 853.375 20.7302 858.333 23.8287 861.431Z" fill="#E8EAF5"/>
<path d="M564.508 704.65L592.395 732.536C595.493 735.634 595.493 740.592 592.395 743.38C589.296 746.479 584.339 746.479 581.55 743.38L559.241 721.071L514.314 765.999L564.508 816.194C567.607 819.292 567.607 824.25 564.508 827.038C562.959 828.588 561.1 829.207 558.931 829.207C557.072 829.207 554.903 828.588 553.354 827.038L497.582 771.266C494.483 768.168 494.483 763.21 497.582 760.422L553.354 704.65C556.452 701.861 561.41 701.861 564.508 704.65Z" fill="#E8EAF5"/>
<path d="M553.664 771.576L601.69 819.602V797.603L564.509 760.421C561.41 757.323 556.453 757.323 553.664 760.421C550.566 763.52 550.566 768.477 553.664 771.576Z" fill="#E8EAF5"/>
<path d="M581.55 855.234L602 875.684V853.685L592.705 844.39C589.606 841.291 584.649 841.291 581.86 844.39C578.452 847.178 578.452 852.136 581.55 855.234Z" fill="#E8EAF5"/>
<path d="M-18.0001 295.654V317.653L-10.254 325.399C-8.70475 326.948 -6.84572 327.568 -4.6768 327.568C-2.81773 327.568 -0.648759 326.948 0.900466 325.399C3.99892 322.3 3.99892 317.343 0.900466 314.554L-18.0001 295.654Z" fill="#E8EAF5"/>
<path d="M-18.0001 407.198V429.197L-10.254 436.943C-8.70475 438.492 -6.84572 439.112 -4.6768 439.112C-2.81773 439.112 -0.648759 438.492 0.900466 436.943C3.99892 433.845 3.99892 428.887 0.900466 426.099L-18.0001 407.198Z" fill="#E8EAF5"/>
<path d="M-18.0001 518.742V540.741L-10.254 548.177C-8.70475 549.727 -6.84572 550.346 -4.6768 550.346C-2.81773 550.346 -0.648759 549.727 0.900466 548.177C3.99892 545.079 3.99892 540.121 0.900466 537.333L-18.0001 518.742Z" fill="#E8EAF5"/>
<path d="M-18.0001 686.059V708.058L-10.254 715.494C-8.70475 717.043 -6.84572 717.663 -4.6768 717.663C-2.81773 717.663 -0.648759 717.043 0.900466 715.494C3.99892 712.395 3.99892 707.438 0.900466 704.649L-18.0001 686.059Z" fill="#E8EAF5"/>
<path d="M-18.0001 797.603V819.602L-10.254 827.038C-8.70475 828.588 -6.84572 829.207 -4.6768 829.207C-2.81773 829.207 -0.648759 828.588 0.900466 827.038C3.99892 823.94 3.99892 818.982 0.900466 816.194L-18.0001 797.603Z" fill="#E8EAF5"/>
<path d="M-18 853.375V875.374L-6.53573 886.838H15.4632L-18 853.375Z" fill="#E8EAF5"/>
<path d="M-5.91644 267.148C-5.60659 268.078 -4.9869 268.698 -4.36721 269.627L51.4049 325.399C52.9541 326.949 54.8133 327.568 56.9822 327.568C58.8412 327.568 61.0101 326.949 62.5593 325.399C65.6578 322.301 65.6578 317.343 62.5593 314.555L15.4629 267.148H-5.91644Z" fill="#E8EAF5"/>
<path d="M330.576 704.649C333.674 701.551 338.632 701.551 341.42 704.649L391.615 754.844L413.924 732.535C417.022 729.437 421.98 729.437 424.768 732.535L480.541 788.307C483.639 791.406 483.639 796.363 480.541 799.152L458.232 821.461L475.273 838.502L497.582 816.194C500.681 813.095 505.638 813.095 508.427 816.194C511.525 819.292 511.525 824.249 508.427 827.038L480.541 854.924C478.991 856.473 477.132 857.093 474.963 857.093C473.104 857.093 470.935 856.473 469.386 854.924L441.5 827.038C438.402 823.94 438.402 818.982 441.5 816.194L463.809 793.885L418.881 748.957L396.573 771.266C393.474 774.364 388.517 774.364 385.728 771.266L329.956 715.494C327.477 712.705 327.477 707.748 330.576 704.649Z" fill="#E8EAF5"/>
<path d="M391.615 810.927L413.924 788.618C417.023 785.519 421.98 785.519 424.769 788.618C427.867 791.716 427.867 796.674 424.769 799.462L396.883 827.348C393.784 830.447 388.827 830.447 386.038 827.348L363.729 805.04L341.421 827.348C339.871 828.898 338.012 829.517 335.843 829.517C333.984 829.517 331.815 828.898 330.266 827.348C327.168 824.25 327.168 819.292 330.266 816.504L358.152 788.618C361.251 785.519 366.208 785.519 368.997 788.618L391.615 810.927Z" fill="#E8EAF5"/>
<path d="M163.26 760.421C166.358 757.323 171.316 757.323 174.104 760.421L196.413 782.73L218.722 760.421C221.82 757.323 226.778 757.323 229.566 760.421C232.665 763.52 232.665 768.477 229.566 771.266L207.258 793.575L229.566 815.884C232.665 818.982 232.665 823.94 229.566 826.728C228.017 828.278 226.158 828.897 223.989 828.897C222.13 828.897 219.961 828.278 218.412 826.728L196.103 804.419L173.794 826.728C172.245 828.278 170.386 828.897 168.217 828.897C166.358 828.897 164.189 828.278 162.64 826.728C159.541 823.63 159.541 818.672 162.64 815.884L184.949 793.575L162.64 771.266C160.161 768.477 160.161 763.52 163.26 760.421Z" fill="#E8EAF5"/>
<path d="M246.918 799.462C243.819 796.364 243.819 791.406 246.918 788.618C250.016 785.519 254.973 785.519 257.762 788.618L280.071 810.926L297.112 793.885L219.031 715.804C215.933 712.706 215.933 707.748 219.031 704.959L246.918 677.073C250.016 673.975 254.973 673.975 257.762 677.073L341.42 760.732C344.519 763.83 344.519 768.787 341.42 771.576C338.322 774.675 333.364 774.675 330.576 771.576L252.495 693.495L235.453 710.537L313.534 788.308C316.633 791.406 316.633 796.364 313.534 799.152L291.225 821.461L313.534 843.77C316.633 846.868 316.633 851.826 313.534 854.615C311.985 856.164 310.126 856.783 307.957 856.783C306.098 856.783 303.929 856.164 302.38 854.615L274.494 826.729L246.918 799.462Z" fill="#E8EAF5"/>
<path d="M112.755 439.113C110.896 439.113 108.727 438.493 107.177 436.944L79.2914 409.058C76.1929 405.959 76.1929 401.002 79.2914 398.213C82.3898 395.115 87.3473 395.115 90.1359 398.213L118.022 426.099C121.12 429.198 121.12 434.155 118.022 436.944C116.783 438.493 114.924 439.113 112.755 439.113Z" fill="#E8EAF5"/>
<path d="M-4.05735 370.017L23.8287 342.131C26.9272 339.032 31.8847 339.032 34.6733 342.131L62.5593 370.017C65.6578 373.115 65.6578 378.073 62.5593 380.861C59.4609 383.96 54.5034 383.96 51.7148 380.861L29.4059 358.553L12.3644 375.594L62.5593 425.789C65.6578 428.887 65.6578 433.845 62.5593 436.633C61.0101 438.183 59.1511 438.802 56.9822 438.802C55.1231 438.802 52.9541 438.183 51.4049 436.633L-4.36722 380.861C-7.15582 378.073 -7.15581 373.115 -4.05735 370.017Z" fill="#E8EAF5"/>
<path d="M23.8288 453.675C26.9273 450.576 31.8848 450.576 34.6734 453.675L84.8683 503.87L101.91 486.828L79.6009 464.519C76.5025 461.421 76.5025 456.464 79.6009 453.675C82.6994 450.576 87.6569 450.576 90.4455 453.675L118.332 481.561C121.43 484.659 121.43 489.617 118.332 492.406L90.4455 520.292C88.8963 521.841 87.0372 522.461 84.8683 522.461C83.0093 522.461 80.8403 521.841 79.2911 520.292L23.5189 464.519C20.7303 461.731 20.7304 456.773 23.8288 453.675Z" fill="#E8EAF5"/>
<path d="M79.6013 565.219C82.6997 562.121 87.6572 562.121 90.4458 565.219L112.755 587.528L135.064 565.219C138.162 562.121 143.119 562.121 145.908 565.219C149.007 568.318 149.007 573.275 145.908 576.064L123.599 598.373L145.908 620.681C149.007 623.78 149.007 628.737 145.908 631.526C144.359 633.075 142.5 633.695 140.331 633.695C138.472 633.695 136.303 633.075 134.754 631.526L112.445 609.217L90.136 631.526C88.5868 633.075 86.7277 633.695 84.5588 633.695C82.6997 633.695 80.5308 633.075 78.9815 631.526C75.8831 628.427 75.8831 623.47 78.9815 620.681L101.29 598.373L78.9815 576.064C76.5028 573.275 76.5028 568.318 79.6013 565.219Z" fill="#E8EAF5"/>
<path d="M-4.05735 481.561C-0.9589 478.462 3.99862 478.462 6.78722 481.561L62.5593 537.333C65.6578 540.431 65.6578 545.389 62.5593 548.177C61.0101 549.727 59.1511 550.346 56.9822 550.346C55.1231 550.346 52.9541 549.727 51.4049 548.177L-4.36722 492.405C-7.15582 489.617 -7.15581 484.659 -4.05735 481.561Z" fill="#E8EAF5"/>
<path d="M-4.05735 593.105L23.8287 565.219C26.9272 562.121 31.8847 562.121 34.6733 565.219L62.5593 593.105C65.6578 596.204 65.6578 601.161 62.5593 603.95C59.4609 607.048 54.5034 607.048 51.7148 603.95L29.4059 581.641L12.3644 598.682L62.5593 648.877C65.6578 651.976 65.6578 656.933 62.5593 659.722C61.0101 661.271 59.1511 661.891 56.9822 661.891C55.1231 661.891 52.9541 661.271 51.4049 659.722L-4.36722 603.95C-7.15582 601.161 -7.15581 596.204 -4.05735 593.105Z" fill="#E8EAF5"/>
<path d="M174.104 648.877C177.202 651.976 177.202 656.933 174.104 659.722L146.218 687.608C144.668 689.157 142.809 689.777 140.641 689.777C138.781 689.777 136.612 689.157 135.063 687.608L107.177 659.722C104.079 656.623 104.079 651.666 107.177 648.877C110.276 645.779 115.233 645.779 118.022 648.877L140.331 671.186L162.639 648.877C166.048 646.089 171.005 646.089 174.104 648.877Z" fill="#E8EAF5"/>
<path d="M79.6014 676.763C82.6998 673.665 87.6574 673.665 90.446 676.763L140.641 726.958L162.95 704.649C166.048 701.551 171.006 701.551 173.794 704.649L201.68 732.535C204.779 735.634 204.779 740.591 201.68 743.38C198.582 746.478 193.624 746.478 190.836 743.38L168.527 721.071L146.218 743.38C144.669 744.929 142.81 745.549 140.641 745.549C138.782 745.549 136.613 744.929 135.064 743.38L79.2915 687.608C76.5029 684.819 76.5029 679.862 79.6014 676.763Z" fill="#E8EAF5"/>
<path d="M-4.05735 648.877C-0.9589 645.779 3.99862 645.779 6.78722 648.877L62.5593 704.649C65.6578 707.748 65.6578 712.705 62.5593 715.494L40.2505 737.803L62.5593 760.112C65.6578 763.21 65.6578 768.168 62.5593 770.956L34.6733 798.842C33.1241 800.392 31.265 801.011 29.0961 801.011C27.237 801.011 25.0681 800.392 23.5188 798.842L-4.36722 770.956C-7.46567 767.858 -7.46567 762.9 -4.36722 760.112C-1.26877 757.013 3.68876 757.013 6.47736 760.112L28.7862 782.421L45.8277 765.379L23.5188 743.07C20.4204 739.972 20.4204 735.014 23.5188 732.226L45.8277 709.917L-4.36722 659.722C-7.15582 656.933 -7.15581 651.976 -4.05735 648.877Z" fill="#E8EAF5"/>
<path d="M90.4455 732.536L146.218 788.308C149.316 791.406 149.316 796.364 146.218 799.152C144.668 800.702 142.809 801.321 140.64 801.321C138.781 801.321 136.612 800.702 135.063 799.152L79.2911 743.38C76.1927 740.282 76.1927 735.324 79.2911 732.536C82.3896 729.747 87.3471 729.747 90.4455 732.536Z" fill="#E8EAF5"/>
<path d="M90.4456 855.234C87.3472 858.333 82.3896 858.333 79.601 855.234L51.715 827.348C48.6165 824.25 48.6165 819.292 51.715 816.504L79.601 788.618C82.6995 785.519 87.657 785.519 90.4456 788.618C93.5441 791.716 93.5441 796.674 90.4456 799.462L68.1367 821.771L85.1782 838.813L107.487 816.504C110.586 813.405 115.543 813.405 118.332 816.504L174.104 872.276C177.202 875.374 177.202 880.332 174.104 883.121C172.555 884.67 170.696 885.289 168.527 885.289C166.668 885.289 164.499 884.67 162.949 883.121L112.754 832.926L90.4456 855.234Z" fill="#E8EAF5"/>
<path d="M327.477 883.121C329.027 884.67 330.886 885.289 333.055 885.289C334.914 885.289 337.083 884.67 338.632 883.121L360.941 860.812L384.799 886.839H405.868L366.208 844.39C366.208 844.39 366.208 844.08 365.898 844.08C365.898 843.77 365.588 843.77 365.278 843.77C364.969 843.46 364.969 843.46 364.659 843.15C364.349 842.841 364.349 842.841 364.039 842.841C363.729 842.841 363.729 842.531 363.419 842.531C363.11 842.531 363.11 842.221 362.8 842.221C362.49 842.221 362.49 841.911 362.18 841.911C361.87 841.911 361.87 841.911 361.56 841.911C361.25 841.911 360.941 841.911 360.631 841.911C360.321 841.911 360.321 841.911 360.011 841.911C359.701 841.911 359.391 841.911 359.082 841.911C358.772 841.911 358.772 841.911 358.462 842.221C358.152 842.221 357.842 842.221 357.532 842.531C357.223 842.531 357.222 842.841 356.913 842.841C356.603 842.841 356.603 843.15 356.293 843.15C355.983 843.46 355.983 843.46 355.673 843.46C355.363 843.46 355.363 843.77 355.054 843.77C355.054 844.08 354.744 844.08 354.744 844.08L326.858 871.966C324.379 875.065 324.379 880.022 327.477 883.121Z" fill="#E8EAF5"/>
<path d="M302.69 687.918L246.918 632.146C243.819 629.048 243.819 624.09 246.918 621.301C250.016 618.203 254.974 618.203 257.762 621.301L307.957 671.496L330.266 649.187C333.365 646.089 338.322 646.089 341.111 649.187L391.306 699.382L413.614 677.073C416.713 673.975 421.67 673.975 424.459 677.073L474.654 727.268L496.963 704.96C500.061 701.861 505.019 701.861 507.807 704.96C510.906 708.058 510.906 713.016 507.807 715.804L479.921 743.69C478.372 745.239 476.513 745.859 474.344 745.859C472.485 745.859 470.316 745.239 468.767 743.69L418.572 693.495L396.263 715.804C393.165 718.903 388.207 718.903 385.419 715.804L335.224 665.609L312.915 687.918C310.436 690.707 305.478 690.707 302.69 687.918Z" fill="#E8EAF5"/>
<path d="M201.989 687.918C200.44 689.467 198.581 690.087 196.412 690.087C194.553 690.087 192.384 689.467 190.835 687.918C187.737 684.819 187.737 679.862 190.835 677.073L213.144 654.764L162.949 604.57C159.851 601.471 159.851 596.514 162.949 593.725L185.258 571.416L140.33 526.489L118.021 548.797C114.923 551.896 109.965 551.896 107.177 548.797C104.078 545.699 104.078 540.741 107.177 537.953L135.063 510.067C138.161 506.968 143.119 506.968 145.907 510.067L201.68 565.839C204.778 568.937 204.778 573.895 201.68 576.683L179.371 598.992L229.876 648.877C232.974 651.976 232.974 656.933 229.876 659.722L201.989 687.918Z" fill="#E8EAF5"/>
</g>
<g opacity="0.5">
<path d="M536.623 67.763C535.073 69.3122 533.214 69.9319 531.045 69.9319C529.186 69.9319 527.017 69.3122 525.468 67.763L503.159 45.4542L480.85 67.763C479.301 69.3122 477.442 69.9319 475.273 69.9319C473.414 69.9319 471.245 69.3122 469.696 67.763C466.598 64.6646 466.598 59.707 469.696 56.9184L492.005 34.6096L469.696 12.3007C466.598 9.20229 466.598 4.24477 469.696 1.45616C472.794 -1.64229 477.752 -1.64229 480.541 1.45616L502.849 23.765L525.158 1.45616C528.257 -1.64229 533.214 -1.64229 536.003 1.45616C539.101 4.55461 539.101 9.51213 536.003 12.3007L513.694 34.6096L536.003 56.9184C539.721 59.707 539.721 64.6646 536.623 67.763Z" fill="#E8EAF5"/>
<path d="M592.395 11.991C590.845 13.5402 588.986 14.1599 586.817 14.1599C584.958 14.1599 582.789 13.5402 581.24 11.991L531.045 -38.2039L508.736 -15.8951C505.638 -12.7966 500.68 -12.7966 497.892 -15.8951L442.12 -71.6672C439.021 -74.7656 439.021 -79.7231 442.12 -82.5117L464.429 -104.821L442.12 -127.129C439.021 -130.228 439.021 -135.185 442.12 -137.974C445.218 -141.072 450.176 -141.072 452.964 -137.974L480.85 -110.088C483.949 -106.99 483.949 -102.032 480.85 -99.2434L458.541 -76.9346L503.469 -32.007L525.778 -54.3158C528.876 -57.4143 533.834 -57.4143 536.622 -54.3158L592.395 1.45625C595.493 3.93501 595.493 8.89255 592.395 11.991Z" fill="#E8EAF5"/>
<path d="M452.964 39.8772C451.415 41.4264 449.556 42.0461 447.387 42.0461C445.528 42.0461 443.359 41.4264 441.81 39.8772L358.152 -43.781C355.053 -46.8794 355.053 -51.8369 358.152 -54.6256L386.038 -82.5116C389.136 -85.6101 394.094 -85.6101 396.882 -82.5116L452.654 -26.7395C455.753 -23.641 455.753 -18.6835 452.654 -15.8949C449.556 -12.7965 444.598 -12.7965 441.81 -15.8949L391.615 -66.0898L374.573 -49.0484L452.964 28.7228C456.063 31.8212 456.063 36.7788 452.964 39.8772Z" fill="#E8EAF5"/>
<path d="M553.664 39.877L601.69 87.9029V65.9039L564.509 28.7225C561.41 25.6241 556.453 25.6241 553.664 28.7225C550.566 31.821 550.566 36.7785 553.664 39.877Z" fill="#E8EAF5"/>
<path d="M391.615 42.046C389.756 42.046 387.587 41.4263 386.038 39.8771L335.843 -10.3179L313.534 11.991C310.436 15.0894 305.478 15.0894 302.69 11.991C299.591 8.89255 299.591 3.93502 302.69 1.14642L330.576 -26.7396C333.674 -29.8381 338.632 -29.8381 341.42 -26.7396L397.192 29.0325C400.291 32.1309 400.291 37.0884 397.192 39.8771C395.643 41.4263 393.784 42.046 391.615 42.046Z" fill="#E8EAF5"/>
<path d="M525.778 241.276L551.185 266.683H573.184L536.622 230.122C533.524 227.023 528.566 227.023 525.778 230.122C522.679 233.22 522.679 238.178 525.778 241.276Z" fill="#E8EAF5"/>
<path d="M414.234 241.276L439.641 266.683H461.64L425.078 230.122C421.98 227.023 417.022 227.023 414.234 230.122C411.135 233.22 411.135 238.178 414.234 241.276Z" fill="#E8EAF5"/>
<path d="M191.145 241.276L216.552 266.684H238.551L232.354 260.487L252.494 240.347L274.803 262.656C277.902 265.754 282.859 265.754 285.648 262.656C288.746 259.557 288.746 254.6 285.648 251.811L257.762 223.925C254.663 220.826 249.706 220.826 246.917 223.925L221.51 249.332L202.299 230.122C199.201 227.023 194.244 227.023 191.455 230.122C188.047 233.22 188.047 238.178 191.145 241.276Z" fill="#E8EAF5"/>
<path d="M107.487 258.008L98.8114 266.684H127.007L118.332 258.008C115.233 255.219 110.276 255.219 107.487 258.008Z" fill="#E8EAF5"/>
<path d="M23.8287 241.276L49.236 266.683H71.2349L34.6732 230.122C31.5748 227.023 26.6173 227.023 23.8287 230.122C20.7302 233.22 20.7302 238.178 23.8287 241.276Z" fill="#E8EAF5"/>
<path d="M564.508 84.4948L592.395 112.381C595.493 115.479 595.493 120.437 592.395 123.225C589.296 126.324 584.339 126.324 581.55 123.225L559.241 100.917L514.314 145.844L564.508 196.039C567.607 199.137 567.607 204.095 564.508 206.884C562.959 208.433 561.1 209.052 558.931 209.052C557.072 209.052 554.903 208.433 553.354 206.884L497.582 151.111C494.483 148.013 494.483 143.055 497.582 140.267L553.354 84.4948C556.452 81.7062 561.41 81.7062 564.508 84.4948Z" fill="#E8EAF5"/>
<path d="M553.664 151.421L601.69 199.447V177.448L564.509 140.267C561.41 137.168 556.453 137.168 553.664 140.267C550.566 143.365 550.566 148.323 553.664 151.421Z" fill="#E8EAF5"/>
<path d="M581.55 235.08L602 255.529V233.53L592.705 224.235C589.606 221.137 584.649 221.137 581.86 224.235C578.452 227.024 578.452 231.981 581.55 235.08Z" fill="#E8EAF5"/>
<path d="M-18.0001 65.9038V87.9028L-10.254 95.3391C-8.70475 96.8883 -6.84572 97.508 -4.6768 97.508C-2.81773 97.508 -0.648759 96.8883 0.900466 95.3391C3.99892 92.2406 3.99892 87.2831 0.900466 84.4945L-18.0001 65.9038Z" fill="#E8EAF5"/>
<path d="M-18.0001 177.448V199.447L-10.254 206.883C-8.70475 208.432 -6.84572 209.052 -4.6768 209.052C-2.81773 209.052 -0.648759 208.432 0.900466 206.883C3.99892 203.785 3.99892 198.827 0.900466 196.039L-18.0001 177.448Z" fill="#E8EAF5"/>
<path d="M-18 233.22V255.219L-6.53573 266.683H15.4632L-18 233.22Z" fill="#E8EAF5"/>
<path d="M330.576 84.4942C333.674 81.3958 338.632 81.3958 341.42 84.4942L391.615 134.689L413.924 112.38C417.022 109.282 421.98 109.282 424.768 112.38L480.541 168.152C483.639 171.251 483.639 176.208 480.541 178.997L458.232 201.306L475.273 218.347L497.582 196.038C500.681 192.94 505.638 192.94 508.427 196.038C511.525 199.137 511.525 204.094 508.427 206.883L480.541 234.769C478.991 236.318 477.132 236.938 474.963 236.938C473.104 236.938 470.935 236.318 469.386 234.769L441.5 206.883C438.402 203.785 438.402 198.827 441.5 196.038L463.809 173.73L418.881 128.802L396.573 151.111C393.474 154.209 388.517 154.209 385.728 151.111L329.956 95.3388C327.477 92.5502 327.477 87.5927 330.576 84.4942Z" fill="#E8EAF5"/>
<path d="M391.615 190.772L413.924 168.463C417.023 165.364 421.98 165.364 424.769 168.463C427.867 171.561 427.867 176.519 424.769 179.307L396.883 207.193C393.784 210.292 388.827 210.292 386.038 207.193L363.729 184.885L341.421 207.193C339.871 208.743 338.012 209.362 335.843 209.362C333.984 209.362 331.815 208.743 330.266 207.193C327.168 204.095 327.168 199.137 330.266 196.349L358.152 168.463C361.251 165.364 366.208 165.364 368.997 168.463L391.615 190.772Z" fill="#E8EAF5"/>
<path d="M163.26 140.267C166.358 137.168 171.316 137.168 174.104 140.267L196.413 162.576L218.722 140.267C221.82 137.168 226.778 137.168 229.566 140.267C232.665 143.365 232.665 148.323 229.566 151.111L207.258 173.42L229.566 195.729C232.665 198.827 232.665 203.785 229.566 206.574C228.017 208.123 226.158 208.742 223.989 208.742C222.13 208.742 219.961 208.123 218.412 206.574L196.103 184.265L173.794 206.574C172.245 208.123 170.386 208.742 168.217 208.742C166.358 208.742 164.189 208.123 162.64 206.574C159.541 203.475 159.541 198.518 162.64 195.729L184.949 173.42L162.64 151.111C160.161 148.323 160.161 143.365 163.26 140.267Z" fill="#E8EAF5"/>
<path d="M246.918 179.307C243.819 176.209 243.819 171.251 246.918 168.463C250.016 165.364 254.973 165.364 257.762 168.463L280.071 190.772L297.112 173.73L219.031 95.6492C215.933 92.5507 215.933 87.5932 219.031 84.8046L246.918 56.9186C250.016 53.8201 254.973 53.8201 257.762 56.9186L341.42 140.577C344.519 143.675 344.519 148.633 341.42 151.421C338.322 154.52 333.364 154.52 330.576 151.421L252.495 73.3404L235.453 90.3818L313.534 168.153C316.633 171.251 316.633 176.209 313.534 178.998L291.225 201.306L313.534 223.615C316.633 226.714 316.633 231.671 313.534 234.46C311.985 236.009 310.126 236.629 307.957 236.629C306.098 236.629 303.929 236.009 302.38 234.46L274.494 206.574L246.918 179.307Z" fill="#E8EAF5"/>
<path d="M79.6013 -54.9357C82.6997 -58.0341 87.6572 -58.0341 90.4458 -54.9357L112.755 -32.6268L135.064 -54.9357C138.162 -58.0341 143.119 -58.0341 145.908 -54.9357C149.007 -51.8372 149.007 -46.8797 145.908 -44.0911L123.599 -21.7822L145.908 0.526588C149.007 3.62504 149.007 8.58256 145.908 11.3712C144.359 12.9204 142.5 13.5401 140.331 13.5401C138.472 13.5401 136.303 12.9204 134.754 11.3712L112.445 -10.9377L90.136 11.3712C88.5868 12.9204 86.7277 13.5401 84.5588 13.5401C82.6997 13.5401 80.5308 12.9204 78.9815 11.3712C75.8831 8.27271 75.8831 3.31519 78.9815 0.526588L101.29 -21.7822L78.9815 -44.0911C76.5028 -46.8797 76.5028 -51.8372 79.6013 -54.9357Z" fill="#E8EAF5"/>
<path d="M-4.05735 -27.0496L23.8287 -54.9357C26.9272 -58.0341 31.8847 -58.0341 34.6733 -54.9357L62.5593 -27.0496C65.6578 -23.9512 65.6578 -18.9937 62.5593 -16.205C59.4609 -13.1066 54.5034 -13.1066 51.7148 -16.205L29.4059 -38.5139L12.3644 -21.4724L62.5593 28.7225C65.6578 31.8209 65.6578 36.7785 62.5593 39.5671C61.0101 41.1163 59.1511 41.736 56.9822 41.736C55.1231 41.736 52.9541 41.1163 51.4049 39.5671L-4.36722 -16.205C-7.15582 -18.9937 -7.15581 -23.9512 -4.05735 -27.0496Z" fill="#E8EAF5"/>
<path d="M174.104 28.7225C177.202 31.821 177.202 36.7785 174.104 39.5671L146.218 67.4531C144.668 69.0024 142.809 69.6221 140.641 69.6221C138.781 69.6221 136.612 69.0024 135.063 67.4531L107.177 39.5671C104.079 36.4686 104.079 31.5111 107.177 28.7225C110.276 25.6241 115.233 25.6241 118.022 28.7225L140.331 51.0314L162.639 28.7225C166.048 25.9339 171.005 25.9339 174.104 28.7225Z" fill="#E8EAF5"/>
<path d="M79.6014 56.6085C82.6998 53.5101 87.6574 53.5101 90.446 56.6085L140.641 106.803L162.95 84.4946C166.048 81.3961 171.006 81.3961 173.794 84.4946L201.68 112.381C204.779 115.479 204.779 120.437 201.68 123.225C198.582 126.324 193.624 126.324 190.836 123.225L168.527 100.916L146.218 123.225C144.669 124.774 142.81 125.394 140.641 125.394C138.782 125.394 136.613 124.774 135.064 123.225L79.2915 67.4531C76.5029 64.6645 76.5029 59.707 79.6014 56.6085Z" fill="#E8EAF5"/>
<path d="M-4.05735 28.7225C-0.9589 25.6241 3.99862 25.6241 6.78722 28.7225L62.5593 84.4946C65.6578 87.5931 65.6578 92.5506 62.5593 95.3392L40.2505 117.648L62.5593 139.957C65.6578 143.055 65.6578 148.013 62.5593 150.802L34.6733 178.688C33.1241 180.237 31.265 180.856 29.0961 180.856C27.237 180.856 25.0681 180.237 23.5188 178.688L-4.36722 150.802C-7.46567 147.703 -7.46567 142.746 -4.36722 139.957C-1.26877 136.858 3.68876 136.858 6.47736 139.957L28.7862 162.266L45.8277 145.224L23.5188 122.915C20.4204 119.817 20.4204 114.859 23.5188 112.071L45.8277 89.762L-4.36722 39.5671C-7.15582 36.7785 -7.15581 31.821 -4.05735 28.7225Z" fill="#E8EAF5"/>
<path d="M90.4455 112.381L146.218 168.153C149.316 171.251 149.316 176.209 146.218 178.997C144.668 180.547 142.809 181.166 140.64 181.166C138.781 181.166 136.612 180.547 135.063 178.997L79.2911 123.225C76.1927 120.127 76.1927 115.169 79.2911 112.381C82.3896 109.592 87.3471 109.592 90.4455 112.381Z" fill="#E8EAF5"/>
<path d="M90.4456 235.079C87.3472 238.178 82.3896 238.178 79.601 235.079L51.715 207.193C48.6165 204.095 48.6165 199.137 51.715 196.349L79.601 168.463C82.6995 165.364 87.657 165.364 90.4456 168.463C93.5441 171.561 93.5441 176.519 90.4456 179.307L68.1367 201.616L85.1782 218.658L107.487 196.349C110.586 193.25 115.543 193.25 118.332 196.349L174.104 252.121C177.202 255.219 177.202 260.177 174.104 262.965C172.555 264.515 170.696 265.134 168.527 265.134C166.668 265.134 164.499 264.515 162.949 262.965L112.754 212.771L90.4456 235.079Z" fill="#E8EAF5"/>
<path d="M327.477 262.965C329.027 264.514 330.886 265.134 333.055 265.134C334.914 265.134 337.083 264.514 338.632 262.965L360.941 240.656L384.799 266.683H405.868L366.208 224.235C366.208 224.235 366.208 223.925 365.898 223.925C365.898 223.615 365.588 223.615 365.278 223.615C364.969 223.305 364.969 223.305 364.659 222.995C364.349 222.685 364.349 222.685 364.039 222.685C363.729 222.685 363.729 222.376 363.419 222.376C363.11 222.376 363.11 222.066 362.8 222.066C362.49 222.066 362.49 221.756 362.18 221.756C361.87 221.756 361.87 221.756 361.56 221.756C361.25 221.756 360.941 221.756 360.631 221.756C360.321 221.756 360.321 221.756 360.011 221.756C359.701 221.756 359.391 221.756 359.082 221.756C358.772 221.756 358.772 221.756 358.462 222.066C358.152 222.066 357.842 222.066 357.532 222.376C357.223 222.376 357.222 222.685 356.913 222.685C356.603 222.685 356.603 222.995 356.293 222.995C355.983 223.305 355.983 223.305 355.673 223.305C355.363 223.305 355.363 223.615 355.054 223.615C355.054 223.925 354.744 223.925 354.744 223.925L326.858 251.811C324.379 254.909 324.379 259.867 327.477 262.965Z" fill="#E8EAF5"/>
<path d="M302.69 67.763L246.918 11.9909C243.819 8.89248 243.819 3.93495 246.918 1.14635C250.016 -1.9521 254.974 -1.9521 257.762 1.14635L307.957 51.3412L330.266 29.0324C333.365 25.934 338.322 25.934 341.111 29.0324L391.306 79.2273L413.614 56.9185C416.713 53.82 421.67 53.82 424.459 56.9185L474.654 107.113L496.963 84.8045C500.061 81.7061 505.019 81.7061 507.807 84.8045C510.906 87.903 510.906 92.8605 507.807 95.6491L479.921 123.535C478.372 125.084 476.513 125.704 474.344 125.704C472.485 125.704 470.316 125.084 468.767 123.535L418.572 73.3403L396.263 95.6491C393.165 98.7476 388.207 98.7476 385.419 95.6491L335.224 45.4542L312.915 67.763C310.436 70.5517 305.478 70.5517 302.69 67.763Z" fill="#E8EAF5"/>
<path d="M201.989 67.7631C200.44 69.3123 198.581 69.932 196.412 69.932C194.553 69.932 192.384 69.3123 190.835 67.7631C187.737 64.6646 187.737 59.7071 190.835 56.9185L213.144 34.6096L162.949 -15.5853C159.851 -18.6837 159.851 -23.6413 162.949 -26.4299L185.258 -48.7387L140.33 -93.6663L118.021 -71.3574C114.923 -68.2589 109.965 -68.2589 107.177 -71.3574C104.078 -74.4558 104.078 -79.4134 107.177 -82.202L135.063 -110.088C138.161 -113.186 143.119 -113.186 145.907 -110.088L201.68 -54.3159C204.778 -51.2175 204.778 -46.2599 201.68 -43.4713L179.371 -21.1625L229.876 28.7226C232.974 31.821 232.974 36.7785 229.876 39.5671L201.989 67.7631Z" fill="#E8EAF5"/>
</g>
<g opacity="0.5">
<path d="M551.185 886.994L601.69 937.498V915.499L573.184 886.994H551.185Z" fill="#E8EAF5"/>
<path d="M553.664 1001.02L601.69 1049.04V1027.04L570.086 995.439L592.395 973.13C595.493 970.032 595.493 965.074 592.395 962.286C589.296 959.187 584.339 959.187 581.55 962.286L553.664 990.172C550.566 992.96 550.566 997.918 553.664 1001.02Z" fill="#E8EAF5"/>
<path d="M439.641 886.994L497.892 945.245C499.441 946.794 501.3 947.413 503.469 947.413C505.328 947.413 507.497 946.794 509.046 945.245L531.355 922.936L553.664 945.245C556.762 948.343 561.72 948.343 564.508 945.245C567.607 942.146 567.607 937.189 564.508 934.4L536.622 906.514C533.524 903.415 528.566 903.415 525.778 906.514L503.469 928.823L461.64 886.994H439.641Z" fill="#E8EAF5"/>
<path d="M536.623 1028.9C535.073 1030.45 533.214 1031.07 531.045 1031.07C529.186 1031.07 527.017 1030.45 525.468 1028.9L503.159 1006.59L480.85 1028.9C479.301 1030.45 477.442 1031.07 475.273 1031.07C473.414 1031.07 471.245 1030.45 469.696 1028.9C466.598 1025.8 466.598 1020.85 469.696 1018.06L492.005 995.749L469.696 973.44C466.598 970.342 466.598 965.384 469.696 962.596C472.794 959.497 477.752 959.497 480.541 962.596L502.849 984.905L525.158 962.596C528.257 959.497 533.214 959.497 536.003 962.596C539.101 965.694 539.101 970.652 536.003 973.44L513.694 995.749L536.003 1018.06C539.721 1020.85 539.721 1025.8 536.623 1028.9Z" fill="#E8EAF5"/>
<path d="M553.664 1101.41C550.566 1104.51 550.566 1109.46 553.664 1112.25L601.69 1160.59V1138.59L570.086 1106.98L592.395 1084.68C595.493 1081.58 595.493 1076.62 592.395 1073.83L564.509 1045.94C561.41 1042.85 556.453 1042.85 553.664 1045.94C550.566 1049.04 550.566 1054 553.664 1056.79L575.973 1079.1L553.664 1101.41Z" fill="#E8EAF5"/>
<path d="M536.623 1084.68C535.074 1086.22 533.215 1086.84 531.046 1086.84C529.187 1086.84 527.018 1086.22 525.468 1084.68L497.582 1056.79C494.484 1053.69 494.484 1048.73 497.582 1045.94C500.681 1042.85 505.638 1042.85 508.427 1045.94L536.313 1073.83C539.721 1076.62 539.721 1081.58 536.623 1084.68Z" fill="#E8EAF5"/>
<path d="M414.234 961.976C411.136 965.075 411.136 970.032 414.234 972.821L442.12 1000.71C443.669 1002.26 445.528 1002.88 447.697 1002.88C449.556 1002.88 451.725 1002.26 453.274 1000.71C456.373 997.608 456.373 992.651 453.274 989.862L430.966 967.553L453.274 945.245C456.373 942.146 456.373 937.189 453.274 934.4L405.868 886.994H383.869L436.543 939.667L414.234 961.976Z" fill="#E8EAF5"/>
<path d="M386.348 945.245L358.462 917.359C355.363 914.26 355.363 909.303 358.462 906.514C361.56 903.416 366.518 903.416 369.306 906.514L397.192 934.4C400.291 937.499 400.291 942.456 397.192 945.245C395.643 946.794 393.784 947.414 391.615 947.414C389.756 947.414 387.897 946.794 386.348 945.245Z" fill="#E8EAF5"/>
<path d="M313.534 1028.9C311.985 1030.45 310.126 1031.07 307.957 1031.07C306.098 1031.07 303.929 1030.45 302.38 1028.9L280.071 1006.59L257.762 1028.9C256.213 1030.45 254.354 1031.07 252.185 1031.07C250.326 1031.07 248.157 1030.45 246.608 1028.9C243.509 1025.8 243.509 1020.85 246.608 1018.06L268.916 995.749L246.608 973.44C243.509 970.342 243.509 965.384 246.608 962.596C249.706 959.497 254.664 959.497 257.452 962.596L279.761 984.905L302.07 962.596C305.168 959.497 310.126 959.497 312.914 962.596C316.013 965.694 316.013 970.652 312.914 973.44L290.606 995.749L312.914 1018.06C316.633 1020.85 316.633 1025.8 313.534 1028.9Z" fill="#E8EAF5"/>
<path d="M592.395 1196.22C590.845 1197.77 588.986 1198.39 586.817 1198.39C584.958 1198.39 582.789 1197.77 581.24 1196.22L531.045 1146.02L508.736 1168.33C507.187 1169.88 505.328 1170.5 503.159 1170.5C501.3 1170.5 499.131 1169.88 497.582 1168.33C494.483 1165.23 494.483 1160.28 497.582 1157.49L519.891 1135.18L469.696 1084.98C466.597 1081.89 466.597 1076.93 469.696 1074.14C472.794 1071.04 477.752 1071.04 480.54 1074.14L592.085 1185.68C595.493 1188.16 595.493 1193.12 592.395 1196.22Z" fill="#E8EAF5"/>
<path d="M452.964 1045.63C456.063 1048.73 456.063 1053.69 452.964 1056.48L425.078 1084.36C423.529 1085.91 421.67 1086.53 419.501 1086.53C417.642 1086.53 415.473 1085.91 413.924 1084.36C410.825 1081.27 410.825 1076.31 413.924 1073.52L441.81 1045.63C444.908 1042.85 449.866 1042.85 452.964 1045.63Z" fill="#E8EAF5"/>
<path d="M425.079 1028.9C421.98 1032 417.023 1032 414.234 1028.9L364.039 978.708L346.998 995.749L397.193 1045.63C400.291 1048.73 400.291 1053.69 397.193 1056.48C395.643 1058.03 393.784 1058.65 391.615 1058.65C389.756 1058.65 387.587 1058.03 386.038 1056.48L330.266 1000.71C327.168 997.608 327.168 992.651 330.266 989.862L358.152 961.976C361.25 958.878 366.208 958.878 368.997 961.976L424.769 1017.75C428.177 1020.85 428.177 1025.8 425.079 1028.9Z" fill="#E8EAF5"/>
<path d="M330.576 945.245L308.267 922.936L285.958 945.245C284.409 946.794 282.55 947.414 280.381 947.414C278.522 947.414 276.353 946.794 274.804 945.245C271.705 942.146 271.705 937.189 274.804 934.4L302.69 906.514C305.788 903.416 310.746 903.416 313.534 906.514L341.42 934.4C344.519 937.499 344.519 942.456 341.42 945.245C338.322 948.033 333.364 948.033 330.576 945.245Z" fill="#E8EAF5"/>
<path d="M216.553 886.994L246.917 917.358C248.467 918.908 250.326 919.527 252.495 919.527C254.354 919.527 256.523 918.908 258.072 917.358C261.17 914.26 261.17 909.302 258.072 906.514L238.861 887.303H216.553V886.994Z" fill="#E8EAF5"/>
<path d="M224.299 947.414C222.44 947.414 220.271 946.794 218.722 945.245L190.836 917.359C187.737 914.26 187.737 909.303 190.836 906.514C193.934 903.416 198.892 903.416 201.68 906.514L229.566 934.4C232.665 937.499 232.665 942.456 229.566 945.245C228.327 946.794 226.468 947.414 224.299 947.414Z" fill="#E8EAF5"/>
<path d="M386.347 1101.41C389.446 1098.31 394.403 1098.31 397.192 1101.41L425.078 1129.29C428.176 1132.39 428.176 1137.35 425.078 1140.14C421.979 1143.24 417.022 1143.24 414.233 1140.14L391.924 1117.83L369.616 1140.14C368.066 1141.69 366.207 1142.31 364.038 1142.31C362.179 1142.31 360.01 1141.69 358.461 1140.14L274.803 1056.48C271.705 1053.38 271.705 1048.42 274.803 1045.63C277.901 1042.54 282.859 1042.54 285.648 1045.63L363.729 1123.72L386.347 1101.41Z" fill="#E8EAF5"/>
<path d="M229.876 1001.02L207.567 1023.33L285.648 1101.41C288.746 1104.5 288.746 1109.46 285.648 1112.25C284.099 1113.8 282.24 1114.42 280.071 1114.42C278.212 1114.42 276.043 1113.8 274.493 1112.25L224.298 1062.06L201.99 1084.37C200.44 1085.91 198.581 1086.53 196.412 1086.53C194.553 1086.53 192.384 1085.91 190.835 1084.37C187.737 1081.27 187.737 1076.31 190.835 1073.52L213.144 1051.21L190.835 1028.9C187.737 1025.8 187.737 1020.85 190.835 1018.06L213.144 995.749L162.949 945.554C159.851 942.456 159.851 937.498 162.949 934.71C166.048 931.611 171.005 931.611 173.794 934.71L229.566 990.482C232.974 992.961 232.974 997.918 229.876 1001.02Z" fill="#E8EAF5"/>
<path d="M358.462 1084.68L330.575 1056.79C327.477 1053.69 327.477 1048.73 330.575 1045.94C333.674 1042.85 338.631 1042.85 341.42 1045.94L369.306 1073.83C372.405 1076.93 372.405 1081.89 369.306 1084.68C367.757 1086.22 365.898 1086.84 363.729 1086.84C361.87 1086.84 360.011 1086.22 358.462 1084.68Z" fill="#E8EAF5"/>
<path d="M219.031 1101.41C222.129 1098.31 227.087 1098.31 229.876 1101.41L257.762 1129.29C260.86 1132.39 260.86 1137.35 257.762 1140.14C254.663 1143.24 249.706 1143.24 246.917 1140.14L224.608 1117.83L202.299 1140.14C200.75 1141.69 198.891 1142.31 196.722 1142.31C194.863 1142.31 192.694 1141.69 191.145 1140.14L135.373 1084.36C132.274 1081.27 132.274 1076.31 135.373 1073.52L163.259 1045.63C166.357 1042.54 171.315 1042.54 174.104 1045.63C177.202 1048.73 177.202 1053.69 174.104 1056.48L151.795 1078.79L196.722 1123.72L219.031 1101.41Z" fill="#E8EAF5"/>
<path d="M135.373 973.131L113.064 950.822L96.0228 967.863L140.95 1012.79L163.259 990.482C166.358 987.383 171.315 987.383 174.104 990.482C177.202 993.58 177.202 998.538 174.104 1001.33L146.218 1029.21C144.668 1030.76 142.809 1031.38 140.641 1031.38C138.781 1031.38 136.612 1030.76 135.063 1029.21L79.2912 973.44C76.1927 970.342 76.1927 965.384 79.2912 962.596L107.177 934.71C110.276 931.611 115.233 931.611 118.022 934.71L145.908 962.596C149.006 965.694 149.006 970.652 145.908 973.44C143.119 975.919 138.162 975.919 135.373 973.131Z" fill="#E8EAF5"/>
<path d="M49.2362 886.994L79.601 917.358C81.1502 918.908 83.0092 919.527 85.1782 919.527C87.0372 919.527 89.2062 918.908 90.7554 917.358L113.064 895.05L135.373 917.358C138.472 920.457 143.429 920.457 146.218 917.358C149.316 914.26 149.316 909.302 146.218 906.514L127.007 887.303H98.8114L84.8684 901.247L70.9254 887.303H49.2362V886.994Z" fill="#E8EAF5"/>
<path d="M-18.0001 915.499V937.498L-10.254 945.244C-8.70475 946.793 -6.84572 947.413 -4.6768 947.413C-2.81773 947.413 -0.648759 946.793 0.900466 945.244C3.99892 942.146 3.99892 937.188 0.900466 934.4L-18.0001 915.499Z" fill="#E8EAF5"/>
<path d="M-18.0001 1027.04V1049.04L-10.254 1056.79C-8.70475 1058.34 -6.84572 1058.96 -4.6768 1058.96C-2.81773 1058.96 -0.648759 1058.34 0.900466 1056.79C3.99892 1053.69 3.99892 1048.73 0.900466 1045.94L-18.0001 1027.04Z" fill="#E8EAF5"/>
<path d="M-5.91644 886.994C-5.60659 887.923 -4.9869 888.543 -4.36721 889.472L51.4049 945.245C52.9541 946.794 54.8133 947.413 56.9822 947.413C58.8412 947.413 61.0101 946.794 62.5593 945.245C65.6578 942.146 65.6578 937.189 62.5593 934.4L15.4629 886.994H-5.91644Z" fill="#E8EAF5"/>
<path d="M112.755 1058.96C110.896 1058.96 108.727 1058.34 107.177 1056.79L79.2914 1028.9C76.1929 1025.8 76.1929 1020.85 79.2914 1018.06C82.3898 1014.96 87.3473 1014.96 90.1359 1018.06L118.022 1045.94C121.12 1049.04 121.12 1054 118.022 1056.79C116.783 1058.34 114.924 1058.96 112.755 1058.96Z" fill="#E8EAF5"/>
<path d="M-4.05735 989.862L23.8287 961.976C26.9272 958.878 31.8847 958.878 34.6733 961.976L62.5593 989.862C65.6578 992.961 65.6578 997.918 62.5593 1000.71C59.4609 1003.81 54.5034 1003.81 51.7148 1000.71L29.4059 978.398L12.3644 995.439L62.5593 1045.63C65.6578 1048.73 65.6578 1053.69 62.5593 1056.48C61.0101 1058.03 59.1511 1058.65 56.9822 1058.65C55.1231 1058.65 52.9541 1058.03 51.4049 1056.48L-4.36722 1000.71C-7.15582 997.918 -7.15581 992.961 -4.05735 989.862Z" fill="#E8EAF5"/>
<path d="M23.8288 1073.52C26.9273 1070.42 31.8848 1070.42 34.6734 1073.52L84.8683 1123.72L101.91 1106.67L79.6009 1084.36C76.5025 1081.27 76.5025 1076.31 79.6009 1073.52C82.6994 1070.42 87.6569 1070.42 90.4455 1073.52L118.332 1101.41C121.43 1104.5 121.43 1109.46 118.332 1112.25L90.4455 1140.14C88.8963 1141.69 87.0372 1142.31 84.8683 1142.31C83.0093 1142.31 80.8403 1141.69 79.2911 1140.14L23.5189 1084.36C20.7303 1081.58 20.7304 1076.62 23.8288 1073.52Z" fill="#E8EAF5"/>
</g>
</g>
</g>
</g>
<defs>
<filter id="filter0_d_69_3844" x="-1058" y="-290" width="1768" height="1768" filterUnits="userSpaceOnUse" color-interpolation-filters="sRGB">
<feFlood flood-opacity="0" result="BackgroundImageFix"/>
<feColorMatrix in="SourceAlpha" type="matrix" values="0 0 0 0 0 0 0 0 0 0 0 0 0 0 0 0 0 0 127 0" result="hardAlpha"/>
<feOffset/>
<feGaussianBlur stdDeviation="42"/>
<feComposite in2="hardAlpha" operator="out"/>
<feColorMatrix type="matrix" values="0 0 0 0 0 0 0 0 0 0 0 0 0 0 0 0 0 0 0.2 0"/>
<feBlend mode="normal" in2="BackgroundImageFix" result="effect1_dropShadow_69_3844"/>
<feBlend mode="normal" in="SourceGraphic" in2="effect1_dropShadow_69_3844" result="shape"/>
</filter>
<clipPath id="clip0_69_3844">
<rect width="1600" height="1600" rx="800" transform="matrix(-1 0 0 1 626 -206)" fill="white"/>
</clipPath>
</defs>
</svg>
