<svg width="460" height="349" viewBox="0 0 460 349" fill="none" xmlns="http://www.w3.org/2000/svg">
<g opacity="0.5">
<g opacity="0.5">
<path d="M162.612 250.36L216.806 296.883L194.871 298.554L164.282 272.295L162.612 250.36Z" fill="#E8EAF5"/>
<path d="M276.494 244.171L328.028 288.411L306.093 290.081L272.18 260.969L251.63 284.907C248.775 288.232 243.832 288.609 240.816 285.731C237.491 282.877 237.115 277.933 239.993 274.918L265.68 244.994C268.226 241.693 273.169 241.316 276.494 244.171Z" fill="#E8EAF5"/>
<path d="M154.141 139.137L216.648 192.796C218.31 194.223 219.069 196.029 219.234 198.192C219.375 200.046 218.922 202.255 217.495 203.918L196.945 227.856L220.883 248.407C224.208 251.261 224.585 256.204 221.707 259.22C218.853 262.545 213.91 262.921 210.894 260.044L180.97 234.356C177.646 231.502 177.269 226.558 180.147 223.543L200.697 199.604L155.812 161.072L154.141 139.137Z" fill="#E8EAF5"/>
<path d="M303.006 225.062C304.433 223.4 304.909 221.499 304.745 219.336C304.604 217.483 303.821 215.367 302.158 213.94L278.22 193.39L298.77 169.451C300.197 167.789 300.674 165.888 300.509 163.725C300.368 161.872 299.585 159.756 297.923 158.329C294.598 155.475 289.655 155.851 287.11 159.153L266.559 183.091L242.621 162.541C239.296 159.687 234.353 160.063 231.808 163.365C228.953 166.689 229.33 171.633 232.631 174.178L256.57 194.728L236.02 218.667C233.165 221.992 233.542 226.935 236.843 229.48C240.168 232.334 245.111 231.958 247.656 228.656L268.207 204.718L292.145 225.268C295.208 228.764 300.151 228.387 303.006 225.062Z" fill="#E8EAF5"/>
<path d="M376.593 236.546C379.447 233.222 384.39 232.845 387.406 235.723L439.25 279.939L417.314 281.61L383.401 252.497L362.851 276.436C359.997 279.761 355.054 280.137 352.038 277.259L322.114 251.572C318.79 248.718 318.413 243.774 321.291 240.758C324.145 237.434 329.088 237.057 332.104 239.935L356.043 260.485L376.593 236.546Z" fill="#E8EAF5"/>
<path d="M358.616 220.827C360.043 219.164 360.52 217.264 360.355 215.101C360.214 213.247 359.431 211.132 357.769 209.705L327.845 184.017C324.521 181.163 319.577 181.539 317.032 184.841C314.178 188.165 314.554 193.109 317.856 195.654L347.779 221.341C350.818 224.528 355.762 224.152 358.616 220.827Z" fill="#E8EAF5"/>
<path d="M226.976 108.109C229.83 104.785 234.774 104.408 237.789 107.286L267.713 132.974C269.375 134.401 270.134 136.207 270.299 138.37C270.44 140.224 269.987 142.433 268.56 144.096C265.706 147.421 260.762 147.797 257.747 144.919L233.808 124.369L213.258 148.308C210.404 151.633 205.46 152.009 202.444 149.131L151.575 105.462L149.904 83.5269L206.426 132.048L226.976 108.109Z" fill="#E8EAF5"/>
<path d="M208.176 81.574L178.253 55.8863C174.928 53.0321 169.985 53.4086 167.439 56.7099C164.585 60.0347 164.962 64.9779 168.263 67.5231L198.186 93.2109C201.511 96.065 206.454 95.6885 209 92.3873C210.427 90.7249 210.903 88.8241 210.739 86.6615C210.598 84.8078 209.838 83.0011 208.176 81.574Z" fill="#E8EAF5"/>
<path d="M286.062 2.61693C287.489 0.95452 287.966 -0.946206 287.801 -3.10886C287.66 -4.96256 286.878 -7.0782 285.215 -8.5053L261.276 -29.0554L281.827 -52.9941C283.254 -54.6565 283.73 -56.5572 283.566 -58.7199C283.425 -60.5736 282.642 -62.6892 280.98 -64.1163C277.655 -66.9705 272.712 -66.594 270.166 -63.2928L249.616 -39.3541L225.677 -59.9043C222.353 -62.7585 217.409 -62.382 214.864 -59.0807C212.01 -55.7559 212.386 -50.8127 215.688 -48.2674L239.626 -27.7172L219.076 -3.77861C216.222 -0.453792 216.599 4.48941 219.9 7.03465C223.225 9.88884 228.168 9.51234 230.713 6.21106L251.263 -17.7275L275.202 2.82258C278.265 6.3182 283.208 5.94174 286.062 2.61693Z" fill="#E8EAF5"/>
<path d="M474.073 267.966C475.5 266.303 475.977 264.403 475.812 262.24C475.671 260.386 474.888 258.271 473.226 256.843L419.364 210.606L439.914 186.667C441.341 185.005 441.818 183.104 441.653 180.941C441.512 179.087 440.729 176.972 439.067 175.545C435.742 172.691 430.799 173.067 428.254 176.368L407.704 200.307L353.842 154.069C350.517 151.215 345.574 151.591 343.028 154.893C340.174 158.217 340.551 163.161 343.852 165.706L463.545 268.457C466.276 271.667 471.219 271.291 474.073 267.966Z" fill="#E8EAF5"/>
<path d="M529.684 263.731C531.111 262.068 531.588 260.167 531.423 258.005C531.282 256.151 530.5 254.035 528.837 252.608L474.975 206.371L495.525 182.432C498.38 179.107 498.003 174.164 494.702 171.619L434.855 120.243C431.53 117.389 426.587 117.765 424.042 121.067L403.492 145.005L379.553 124.455C376.228 121.601 371.285 121.978 368.74 125.279C365.886 128.604 366.262 133.547 369.563 136.092L399.487 161.78C402.811 164.634 407.755 164.257 410.3 160.956L430.85 137.017L479.06 178.403L458.51 202.342C455.656 205.667 456.032 210.61 459.333 213.155L519.18 264.531C521.887 267.432 526.83 267.055 529.684 263.731Z" fill="#E8EAF5"/>
<path d="M313.335 140.374C316.66 143.228 321.603 142.851 324.148 139.55L349.836 109.627C351.263 107.964 351.74 106.064 351.575 103.901C351.434 102.047 350.651 99.9316 348.989 98.5045C345.664 95.6503 340.721 96.0268 338.175 99.3281L312.488 129.251C309.942 132.553 310.319 137.496 313.335 140.374Z" fill="#E8EAF5"/>
<path d="M294.533 113.84C297.387 110.515 297.011 105.572 293.709 103.027L239.847 56.7886L255.545 38.5022L309.099 84.7636C312.423 87.6178 317.367 87.2413 319.912 83.94C321.339 82.2776 321.816 80.3769 321.651 78.2142C321.51 76.3605 320.727 74.2449 319.065 72.8178L259.218 21.4424C255.893 18.5882 250.95 18.9647 248.405 22.266L222.717 52.1893C219.863 55.5141 220.239 60.4573 223.541 63.0025L283.387 114.378C286.736 117.541 291.679 117.165 294.533 113.84Z" fill="#E8EAF5"/>
<path d="M203.94 25.9627L180.001 5.41247L200.551 -18.5261C201.978 -20.1885 202.455 -22.0894 202.29 -24.252C202.149 -26.1057 201.367 -28.2213 199.704 -29.6484C196.379 -32.5026 191.436 -32.1261 188.891 -28.8248L163.203 1.09855C160.349 4.42336 160.725 9.36657 164.027 11.9118L193.95 37.5995C197.275 40.4537 202.218 40.0772 204.763 36.7759C207.309 33.4747 206.932 28.5314 203.94 25.9627Z" fill="#E8EAF5"/>
<path d="M363.886 69.7145C361.032 73.0393 361.409 77.9825 364.71 80.5278L394.633 106.215C397.958 109.07 402.901 108.693 405.447 105.392C408.301 102.067 407.924 97.1239 404.623 94.5786L380.684 74.0284L401.235 50.0898C402.662 48.4274 403.138 46.5266 402.974 44.3639C402.832 42.5102 402.05 40.3947 400.387 38.9676L310.617 -38.0956C307.293 -40.9498 302.349 -40.5733 299.804 -37.272C296.95 -33.9472 297.327 -29.004 300.628 -26.4587L384.413 45.4669L363.886 69.7145Z" fill="#E8EAF5"/>
<path d="M546.901 122.585C548.328 120.922 548.804 119.022 548.64 116.859C548.499 115.005 547.716 112.89 546.053 111.462L456.284 34.3992C452.959 31.5451 448.015 31.9215 445.47 35.2228L419.783 65.1462C416.928 68.471 417.305 73.4142 420.606 75.9594L480.453 127.335C483.778 130.189 488.721 129.813 491.266 126.511C494.12 123.186 493.744 118.243 490.442 115.698L436.58 69.4602L452.278 51.1737L535.778 123.432C539.103 126.286 544.046 125.909 546.901 122.585Z" fill="#E8EAF5"/>
<path d="M385.338 -15.8194C382.484 -12.4946 382.86 -7.55141 386.162 -5.00617L416.085 20.6816C419.41 23.5357 424.353 23.1592 426.898 19.858L452.586 -10.0654C454.013 -11.7278 454.49 -13.6285 454.325 -15.7911C454.184 -17.6448 453.401 -19.7605 451.739 -21.1876C448.414 -24.0418 443.471 -23.6653 440.925 -20.364L420.375 3.5747L396.437 -16.9755C393.135 -19.5208 388.192 -19.1442 385.338 -15.8194Z" fill="#E8EAF5"/>
<path d="M345.086 43.1795L315.163 17.4918C311.838 14.6376 306.895 15.0141 304.35 18.3153C301.495 21.6402 301.872 26.5834 305.173 29.1286L335.097 54.8163C338.421 57.6705 343.365 57.294 345.91 53.9927C347.337 52.3303 347.814 50.4296 347.649 48.2669C347.508 46.4132 346.749 44.6066 345.086 43.1795Z" fill="#E8EAF5"/>
</g>
<g opacity="0.5">
<path d="M134.886 226.99L162.149 250.395L163.82 272.33L124.587 238.651C121.263 235.796 120.886 230.853 123.764 227.837C126.618 224.513 131.561 224.136 134.886 226.99Z" fill="#E8EAF5"/>
<path d="M126.413 115.768L153.677 139.172L155.347 161.107L116.115 127.428C112.79 124.574 112.413 119.631 115.291 116.615C118.145 113.29 123.088 112.913 126.413 115.768Z" fill="#E8EAF5"/>
<path d="M-18.5018 277.515L11.4215 303.203C14.7463 306.057 19.6895 305.681 22.2347 302.38C25.0889 299.055 24.7124 294.112 21.4111 291.566L-2.5275 271.016L38.8583 222.806L92.7202 269.044C96.045 271.898 100.988 271.522 103.533 268.221C104.961 266.558 105.437 264.657 105.273 262.495C105.131 260.641 104.349 258.525 102.686 257.098L42.8397 205.723C39.5149 202.869 34.5717 203.245 32.0265 206.547L-19.349 266.393C-21.8942 269.694 -21.5177 274.638 -18.5018 277.515Z" fill="#E8EAF5"/>
<path d="M47.4073 261.62L98.9419 305.86L77.0064 307.531L37.1086 273.281C33.7838 270.427 33.4073 265.483 36.285 262.467C39.1392 259.143 44.0824 258.766 47.4073 261.62Z" fill="#E8EAF5"/>
<path d="M132.943 283.072L154.886 301.91L132.951 303.58L122.976 295.018C119.652 292.164 119.275 287.221 122.153 284.205C124.675 280.594 129.618 280.218 132.943 283.072Z" fill="#E8EAF5"/>
<path d="M-36.2686 44.2588C-39.1228 47.5836 -38.7463 52.5268 -35.445 55.0721L18.417 101.31L-2.13317 125.249C-4.98737 128.573 -4.61087 133.517 -1.30958 136.062L58.5371 187.437C61.8619 190.291 66.8051 189.915 69.3503 186.614L89.9005 162.675L108.187 178.373L87.6368 202.312C84.7826 205.637 85.1591 210.58 88.4604 213.125C91.7852 215.979 96.7284 215.603 99.2737 212.301L124.961 182.378C126.388 180.716 126.865 178.815 126.7 176.652C126.559 174.799 125.777 172.683 124.114 171.256L94.1909 145.568C90.8661 142.714 85.9229 143.09 83.3777 146.392L62.8275 170.33L14.6177 128.945L35.1679 105.006C38.0221 101.681 37.6456 96.738 34.3443 94.1927L-25.5024 42.8173C-28.4712 40.5574 -33.4144 40.934 -36.2686 44.2588Z" fill="#E8EAF5"/>
<path d="M74.3379 97.0514L53.7878 120.99C50.9336 124.315 51.3101 129.258 54.6113 131.803C57.9362 134.657 62.8794 134.281 65.4246 130.98L91.1123 101.056C93.9665 97.7315 93.59 92.7883 90.2887 90.2431L66.3501 69.693L86.9003 45.7543C88.3274 44.0919 88.8041 42.1911 88.6393 40.0285C88.4982 38.1748 87.7155 36.0591 86.0531 34.632C82.7283 31.7779 77.7851 32.1544 75.2399 35.4556L49.5522 65.379C46.698 68.7038 47.0745 73.647 50.3757 76.1922L74.3379 97.0514Z" fill="#E8EAF5"/>
<path d="M51.917 -46.3581C48.5921 -49.2123 43.6489 -48.8358 41.1037 -45.5345C38.2495 -42.2097 38.626 -37.2665 41.9273 -34.7212L65.8659 -14.171L50.1679 4.11546L-33.6174 -67.8102C-36.9422 -70.6644 -41.8854 -70.2879 -44.4307 -66.9866L-70.1184 -37.0633C-72.9726 -33.7385 -72.5961 -28.7953 -69.2948 -26.25L20.4752 50.8131C23.8 53.6673 28.7432 53.2908 31.2884 49.9895C34.1426 46.6647 33.7661 41.7215 30.4648 39.1763L-53.3205 -32.7494L-37.6224 -51.0358L45.8539 20.9133C49.1787 23.7675 54.1219 23.391 56.6672 20.0898L77.2174 -3.84894L101.156 16.7013C104.481 19.5555 109.424 19.179 111.969 15.8777C113.396 14.2153 113.873 12.3146 113.708 10.1519C113.567 8.2982 112.785 6.18255 111.122 4.75546L81.1989 -20.9323L51.917 -46.3581Z" fill="#E8EAF5"/>
<path d="M141.451 27.6161C143.114 29.0432 143.873 30.8498 144.038 33.0125C144.179 34.8662 143.726 37.076 142.299 38.7384L121.748 62.677L149.512 84.4896L151.112 105.498L105.774 69.1763C105.774 69.1763 105.465 69.1998 105.442 68.8909C105.133 68.9144 105.109 68.6055 105.086 68.2966C104.753 68.0111 104.753 68.0111 104.421 67.7257C104.088 67.4403 104.088 67.4402 104.065 67.1313C104.041 66.8223 103.732 66.8459 103.709 66.537C103.685 66.228 103.376 66.2515 103.353 65.9426C103.329 65.6336 103.02 65.6572 102.997 65.3482C102.973 65.0393 102.973 65.0393 102.95 64.7303C102.926 64.4214 102.902 64.1124 102.879 63.8035C102.855 63.4945 102.855 63.4945 102.832 63.1856C102.808 62.8766 102.785 62.5677 102.761 62.2587C102.738 61.9498 102.738 61.9498 103.023 61.6173C103 61.3083 102.976 60.9994 103.261 60.6669C103.238 60.358 103.547 60.3344 103.523 60.0255C103.5 59.7165 103.809 59.6929 103.785 59.384C104.071 59.0515 104.071 59.0516 104.047 58.7426C104.024 58.4337 104.333 58.4101 104.309 58.1011C104.618 58.0776 104.594 57.7686 104.594 57.7686L130.282 27.8453C133.183 25.1384 138.127 24.7619 141.451 27.6161Z" fill="#E8EAF5"/>
<path d="M-55.0693 17.7248L-114.916 -33.6506C-118.241 -36.5048 -123.184 -36.1283 -125.729 -32.827C-128.583 -29.5022 -128.207 -24.559 -124.906 -22.0138L-71.0436 24.2242L-91.5938 48.1628C-94.448 51.4876 -94.0715 56.4308 -90.7702 58.976L-36.9082 105.214L-57.4584 129.153C-60.3126 132.477 -59.9361 137.421 -56.6348 139.966L-2.77284 186.204L-23.323 210.142C-26.1772 213.467 -25.8007 218.41 -22.4994 220.956C-19.1746 223.81 -14.2314 223.433 -11.6862 220.132L14.0016 190.209C15.4287 188.546 15.9054 186.646 15.7406 184.483C15.5995 182.629 14.8169 180.514 13.1544 179.087L-40.7075 132.849L-20.1574 108.91C-17.3032 105.585 -17.6797 100.642 -20.981 98.0968L-74.8429 51.8588L-54.2928 27.9201C-51.7005 25.2368 -52.077 20.2936 -55.0693 17.7248Z" fill="#E8EAF5"/>
</g>
</g>
</svg>
