<svg width="620" height="1600" viewBox="0 0 620 1600" fill="none" xmlns="http://www.w3.org/2000/svg">
<g opacity="0.85">
<g opacity="0.5">
<path d="M50.8143 473.148L0.30957 523.653V501.654L28.8153 473.148H50.8143Z" fill="#E8EAF5"/>
<path d="M48.3356 587.171L0.30957 635.197V613.198L31.9138 581.594L9.60492 559.285C6.50647 556.187 6.50647 551.229 9.60492 548.441C12.7034 545.342 17.6609 545.342 20.4495 548.441L48.3356 576.327C51.434 579.115 51.434 584.073 48.3356 587.171Z" fill="#E8EAF5"/>
<path d="M162.359 473.148L104.108 531.399C102.559 532.948 100.7 533.568 98.5313 533.568C96.6723 533.568 94.5033 532.948 92.9541 531.399L70.6453 509.09L48.3364 531.399C45.2379 534.498 40.2804 534.498 37.4918 531.399C34.3934 528.301 34.3934 523.343 37.4918 520.555L65.3779 492.669C68.4763 489.57 73.4338 489.57 76.2224 492.669L98.5313 514.977L140.36 473.148H162.359Z" fill="#E8EAF5"/>
<path d="M65.3776 615.057C66.9268 616.607 68.7859 617.226 70.9548 617.226C72.8139 617.226 74.9828 616.607 76.5321 615.057L98.8408 592.749L121.15 615.057C122.699 616.607 124.558 617.226 126.727 617.226C128.586 617.226 130.755 616.607 132.304 615.057C135.403 611.959 135.403 607.001 132.304 604.213L109.995 581.904L132.304 559.595C135.403 556.497 135.403 551.539 132.304 548.751C129.206 545.652 124.248 545.652 121.46 548.751L99.1507 571.059L76.8419 548.751C73.7435 545.652 68.786 545.652 65.9974 548.751C62.8989 551.849 62.8989 556.807 65.9974 559.595L88.3061 581.904L65.9974 604.213C62.2792 607.001 62.2792 611.959 65.3776 615.057Z" fill="#E8EAF5"/>
<path d="M48.3356 687.561C51.434 690.66 51.434 695.617 48.3356 698.406L0.30957 746.742V724.743L31.9138 693.139L9.60492 670.83C6.50647 667.731 6.50647 662.774 9.60492 659.985L37.491 632.099C40.5894 629.001 45.547 629.001 48.3356 632.099C51.434 635.197 51.434 640.155 48.3356 642.944L26.0267 665.252L48.3356 687.561Z" fill="#E8EAF5"/>
<path d="M65.3773 670.83C66.9265 672.379 68.7856 672.999 70.9545 672.999C72.8135 672.999 74.9825 672.379 76.5317 670.83L104.418 642.944C107.516 639.845 107.516 634.888 104.418 632.099C101.319 629.001 96.3618 629.001 93.5732 632.099L65.6872 659.985C62.2789 662.774 62.2789 667.731 65.3773 670.83Z" fill="#E8EAF5"/>
<path d="M187.766 548.131C190.864 551.229 190.864 556.187 187.766 558.975L159.88 586.861C158.33 588.411 156.471 589.03 154.302 589.03C152.443 589.03 150.274 588.411 148.725 586.861C145.627 583.763 145.627 578.805 148.725 576.017L171.034 553.708L148.725 531.399C145.627 528.301 145.627 523.343 148.725 520.555L196.132 473.148H218.13L165.457 525.822L187.766 548.131Z" fill="#E8EAF5"/>
<path d="M215.652 531.399L243.538 503.513C246.636 500.415 246.636 495.457 243.538 492.669C240.439 489.57 235.482 489.57 232.693 492.669L204.807 520.555C201.709 523.653 201.709 528.611 204.807 531.399C206.356 532.948 208.215 533.568 210.384 533.568C212.243 533.568 214.103 532.948 215.652 531.399Z" fill="#E8EAF5"/>
<path d="M288.466 615.057C290.015 616.607 291.874 617.226 294.043 617.226C295.902 617.226 298.071 616.607 299.62 615.057L321.929 592.749L344.238 615.057C345.787 616.607 347.646 617.226 349.815 617.226C351.674 617.226 353.843 616.607 355.392 615.057C358.491 611.959 358.491 607.001 355.392 604.213L333.083 581.904L355.392 559.595C358.491 556.497 358.491 551.539 355.392 548.751C352.294 545.652 347.336 545.652 344.547 548.751L322.239 571.059L299.93 548.751C296.831 545.652 291.874 545.652 289.085 548.751C285.987 551.849 285.987 556.807 289.085 559.595L311.394 581.904L289.085 604.213C285.367 607.001 285.367 611.959 288.466 615.057Z" fill="#E8EAF5"/>
<path d="M65.3776 893.918C66.9268 895.467 68.7859 896.087 70.9548 896.087C72.8139 896.087 74.9828 895.467 76.5321 893.918L98.8408 871.609L121.15 893.918C122.699 895.467 124.558 896.087 126.727 896.087C128.586 896.087 130.755 895.467 132.304 893.918C135.403 890.819 135.403 885.862 132.304 883.073L109.995 860.764L132.304 838.455C135.403 835.357 135.403 830.399 132.304 827.611C129.206 824.512 124.248 824.512 121.46 827.611L99.1507 849.92L76.8419 827.611C73.7435 824.512 68.786 824.512 65.9974 827.611C62.8989 830.709 62.8989 835.667 65.9974 838.455L88.3061 860.764L65.9974 883.073C62.2792 885.862 62.2792 890.819 65.3776 893.918Z" fill="#E8EAF5"/>
<path d="M9.60582 782.374C11.155 783.923 13.0141 784.543 15.183 784.543C17.0421 784.543 19.211 783.923 20.7603 782.374L70.9551 732.179L93.264 754.488C94.8132 756.037 96.6723 756.656 98.8412 756.656C100.7 756.656 102.869 756.037 104.418 754.488C107.517 751.389 107.517 746.432 104.418 743.643L82.1096 721.334L132.304 671.139C135.403 668.041 135.403 663.083 132.304 660.295C129.206 657.196 124.249 657.196 121.46 660.295L9.91568 771.839C6.50739 774.318 6.50737 779.275 9.60582 782.374Z" fill="#E8EAF5"/>
<path d="M9.60509 838.146C11.1543 839.695 13.0134 840.315 15.1823 840.315C17.0414 840.315 19.2103 839.695 20.7595 838.146L70.9544 787.951L93.2633 810.26C96.3617 813.358 101.319 813.358 104.108 810.26L159.88 754.488C162.978 751.389 162.978 746.432 159.88 743.643L137.571 721.334L159.88 699.025C162.978 695.927 162.978 690.969 159.88 688.181C156.782 685.082 151.824 685.082 149.035 688.181L121.149 716.067C118.051 719.165 118.051 724.123 121.149 726.912L143.458 749.22L98.5307 794.148L76.2218 771.839C73.1233 768.741 68.1658 768.741 65.3772 771.839L9.60509 827.611C6.50664 830.09 6.50664 835.047 9.60509 838.146Z" fill="#E8EAF5"/>
<path d="M149.036 631.789C145.937 634.887 145.937 639.845 149.036 642.634L176.922 670.52C178.471 672.069 180.33 672.689 182.499 672.689C184.358 672.689 186.527 672.069 188.076 670.52C191.175 667.421 191.175 662.464 188.076 659.675L160.19 631.789C157.092 629 152.134 629 149.036 631.789Z" fill="#E8EAF5"/>
<path d="M176.921 615.057C180.02 618.156 184.977 618.156 187.766 615.057L237.961 564.862L255.002 581.904L204.807 631.789C201.709 634.887 201.709 639.845 204.807 642.633C206.357 644.183 208.216 644.802 210.384 644.802C212.244 644.802 214.413 644.183 215.962 642.633L271.734 586.861C274.832 583.763 274.832 578.805 271.734 576.017L243.848 548.131C240.749 545.032 235.792 545.032 233.003 548.131L177.231 603.903C173.823 607.001 173.823 611.959 176.921 615.057Z" fill="#E8EAF5"/>
<path d="M271.424 531.399L293.733 509.09L316.042 531.399C317.591 532.948 319.45 533.568 321.619 533.568C323.478 533.568 325.647 532.948 327.196 531.399C330.295 528.301 330.295 523.343 327.196 520.555L299.31 492.669C296.212 489.57 291.254 489.57 288.466 492.669L260.58 520.555C257.481 523.653 257.481 528.611 260.58 531.399C263.678 534.188 268.636 534.188 271.424 531.399Z" fill="#E8EAF5"/>
<path d="M385.448 473.148L355.083 503.513C353.534 505.062 351.675 505.682 349.506 505.682C347.647 505.682 345.478 505.062 343.928 503.513C340.83 500.415 340.83 495.457 343.928 492.669L363.139 473.458H385.448V473.148Z" fill="#E8EAF5"/>
<path d="M377.701 533.568C379.56 533.568 381.729 532.948 383.278 531.399L411.164 503.513C414.262 500.415 414.262 495.457 411.164 492.669C408.065 489.57 403.108 489.57 400.319 492.669L372.433 520.555C369.335 523.653 369.335 528.611 372.433 531.399C373.673 532.948 375.532 533.568 377.701 533.568Z" fill="#E8EAF5"/>
<path d="M215.653 687.561C212.555 684.462 207.597 684.462 204.809 687.561L176.922 715.447C173.824 718.545 173.824 723.503 176.922 726.292C180.021 729.39 184.978 729.39 187.767 726.292L210.076 703.983L232.385 726.292C233.934 727.841 235.793 728.46 237.962 728.46C239.821 728.46 241.99 727.841 243.539 726.292L327.197 642.633C330.296 639.535 330.296 634.577 327.197 631.789C324.099 628.69 319.141 628.69 316.353 631.789L238.272 709.87L215.653 687.561Z" fill="#E8EAF5"/>
<path d="M149.036 866.032C150.585 867.581 152.444 868.201 154.613 868.201C156.472 868.201 158.641 867.581 160.19 866.032L243.848 782.374C246.947 779.275 246.947 774.318 243.848 771.529L215.962 743.643C212.864 740.545 207.906 740.545 205.118 743.643L149.346 799.415C146.247 802.514 146.247 807.471 149.346 810.26C152.444 813.358 157.402 813.358 160.19 810.26L210.385 760.065L227.427 777.106L149.036 854.878C145.937 857.976 145.937 862.934 149.036 866.032Z" fill="#E8EAF5"/>
<path d="M299.31 715.447C296.212 712.349 291.254 712.349 288.466 715.447L260.58 743.333C257.481 746.432 257.481 751.389 260.58 754.178L288.466 782.064C290.015 783.613 291.874 784.233 294.043 784.233C295.902 784.233 298.071 783.613 299.62 782.064C302.719 778.965 302.719 774.008 299.62 771.219L277.311 748.91L299.62 726.601C302.409 723.503 302.409 718.545 299.31 715.447Z" fill="#E8EAF5"/>
<path d="M372.124 587.171L394.433 609.48L316.352 687.561C313.254 690.66 313.254 695.617 316.352 698.406C317.901 699.955 319.76 700.575 321.929 700.575C323.788 700.575 325.957 699.955 327.507 698.406L377.701 648.211L400.01 670.52C401.56 672.069 403.419 672.689 405.587 672.689C407.447 672.689 409.616 672.069 411.165 670.52C414.263 667.421 414.263 662.464 411.165 659.675L388.856 637.366L411.165 615.058C414.263 611.959 414.263 607.002 411.165 604.213L388.856 581.904L439.051 531.709C442.149 528.611 442.149 523.653 439.051 520.865C435.952 517.766 430.995 517.766 428.206 520.865L372.434 576.637C369.026 579.115 369.026 584.073 372.124 587.171Z" fill="#E8EAF5"/>
<path d="M243.539 670.83L271.425 642.944C274.523 639.845 274.523 634.888 271.425 632.099C268.326 629.001 263.369 629.001 260.58 632.099L232.694 659.985C229.596 663.084 229.596 668.041 232.694 670.83C234.243 672.379 236.102 672.999 238.271 672.999C240.13 672.999 241.989 672.379 243.539 670.83Z" fill="#E8EAF5"/>
<path d="M48.3356 866.032L0.30957 914.058V892.059L37.491 854.877C40.5894 851.779 45.547 851.779 48.3356 854.877C51.434 857.976 51.434 862.933 48.3356 866.032Z" fill="#E8EAF5"/>
<path d="M210.384 868.201C212.243 868.201 214.412 867.581 215.962 866.032L266.157 815.837L288.465 838.146C291.564 841.244 296.521 841.244 299.31 838.146C302.408 835.047 302.408 830.09 299.31 827.301L271.424 799.415C268.325 796.317 263.368 796.317 260.579 799.415L204.807 855.187C201.709 858.286 201.709 863.243 204.807 866.032C206.356 867.581 208.215 868.201 210.384 868.201Z" fill="#E8EAF5"/>
<path d="M377.701 812.429C379.56 812.429 381.729 811.809 383.278 810.26C386.377 807.161 386.377 802.204 383.278 799.415L360.969 777.106L383.278 754.798C386.377 751.699 386.377 746.742 383.278 743.953C380.18 740.855 375.222 740.855 372.434 743.953L350.125 766.262L327.816 743.953C324.717 740.855 319.76 740.855 316.971 743.953C313.873 747.051 313.873 752.009 316.971 754.798L339.28 777.106L316.971 799.415C313.873 802.514 313.873 807.471 316.971 810.26C318.521 811.809 320.38 812.429 322.548 812.429C324.408 812.429 326.576 811.809 328.126 810.26L350.435 787.951L372.743 810.26C373.673 811.809 375.532 812.429 377.701 812.429Z" fill="#E8EAF5"/>
<path d="M382.969 687.561C379.87 684.462 374.913 684.462 372.124 687.561L344.238 715.447C341.139 718.545 341.139 723.503 344.238 726.292C347.336 729.39 352.294 729.39 355.082 726.292L377.391 703.983L399.7 726.292C401.249 727.841 403.108 728.46 405.277 728.46C407.136 728.46 409.305 727.841 410.855 726.292L466.627 670.519C469.725 667.421 469.725 662.463 466.627 659.675L438.741 631.789C435.642 628.69 430.685 628.69 427.896 631.789C424.798 634.887 424.798 639.845 427.896 642.633L450.205 664.942L405.277 709.87L382.969 687.561Z" fill="#E8EAF5"/>
<path d="M466.627 559.285L488.936 536.977L505.977 554.018L461.05 598.946L438.741 576.637C435.642 573.538 430.685 573.538 427.896 576.637C424.798 579.735 424.798 584.693 427.896 587.481L455.782 615.367C457.331 616.917 459.19 617.536 461.359 617.536C463.218 617.536 465.387 616.917 466.937 615.367L522.709 559.595C525.807 556.497 525.807 551.539 522.709 548.751L494.823 520.865C491.724 517.766 486.767 517.766 483.978 520.865L456.092 548.751C452.994 551.849 452.994 556.807 456.092 559.595C458.881 562.074 463.838 562.074 466.627 559.285Z" fill="#E8EAF5"/>
<path d="M552.764 473.148L522.4 503.513C520.85 505.062 518.991 505.682 516.822 505.682C514.963 505.682 512.794 505.062 511.245 503.513L488.936 481.204L466.627 503.513C463.529 506.612 458.571 506.612 455.783 503.513C452.684 500.415 452.684 495.457 455.783 492.669L474.993 473.458H503.189L517.132 487.401L531.075 473.458H552.764V473.148Z" fill="#E8EAF5"/>
<path d="M76.2227 1067.43L50.8154 1092.84H28.8164L65.3781 1056.28C68.4766 1053.18 73.4341 1053.18 76.2227 1056.28C79.3212 1059.38 79.3212 1064.33 76.2227 1067.43Z" fill="#E8EAF5"/>
<path d="M187.767 1067.43L162.359 1092.84H140.36L176.922 1056.28C180.02 1053.18 184.978 1053.18 187.767 1056.28C190.865 1059.38 190.865 1064.33 187.767 1067.43Z" fill="#E8EAF5"/>
<path d="M410.855 1067.43L385.448 1092.84H363.449L369.646 1086.64L349.506 1066.5L327.197 1088.81C324.098 1091.91 319.141 1091.91 316.352 1088.81C313.254 1085.71 313.254 1080.75 316.352 1077.97L344.238 1050.08C347.337 1046.98 352.294 1046.98 355.083 1050.08L380.49 1075.49L399.7 1056.28C402.799 1053.18 407.756 1053.18 410.545 1056.28C413.953 1059.38 413.953 1064.33 410.855 1067.43Z" fill="#E8EAF5"/>
<path d="M494.513 1084.16L503.189 1092.84H474.993L483.669 1084.16C486.767 1081.37 491.725 1081.37 494.513 1084.16Z" fill="#E8EAF5"/>
<path d="M578.171 1067.43L552.764 1092.84H530.765L567.326 1056.28C570.425 1053.18 575.382 1053.18 578.171 1056.28C581.269 1059.38 581.269 1064.33 578.171 1067.43Z" fill="#E8EAF5"/>
<path d="M37.4911 910.65L9.60509 938.536C6.50664 941.634 6.50664 946.592 9.60509 949.38C12.7035 952.479 17.6611 952.479 20.4497 949.38L42.7585 927.071L87.6861 971.999L37.4911 1022.19C34.3927 1025.29 34.3927 1030.25 37.4911 1033.04C39.0404 1034.59 40.8995 1035.21 43.0684 1035.21C44.9274 1035.21 47.0964 1034.59 48.6456 1033.04L104.418 977.266C107.516 974.168 107.516 969.21 104.418 966.422L48.6456 910.65C45.5471 907.861 40.5896 907.861 37.4911 910.65Z" fill="#E8EAF5"/>
<path d="M48.3356 977.576L0.30957 1025.6V1003.6L37.491 966.421C40.5894 963.323 45.547 963.323 48.3356 966.421C51.434 969.52 51.434 974.477 48.3356 977.576Z" fill="#E8EAF5"/>
<path d="M20.4498 1061.23L0 1081.68V1059.69L9.29535 1050.39C12.3938 1047.29 17.3513 1047.29 20.1399 1050.39C23.5482 1053.18 23.5482 1058.14 20.4498 1061.23Z" fill="#E8EAF5"/>
<path d="M620 501.654V523.653L612.254 531.399C610.704 532.948 608.845 533.568 606.676 533.568C604.817 533.568 602.648 532.948 601.099 531.399C598.001 528.3 598.001 523.343 601.099 520.554L620 501.654Z" fill="#E8EAF5"/>
<path d="M620 613.198V635.197L612.254 642.943C610.704 644.492 608.845 645.112 606.676 645.112C604.817 645.112 602.648 644.492 601.099 642.943C598.001 639.845 598.001 634.887 601.099 632.099L620 613.198Z" fill="#E8EAF5"/>
<path d="M620 724.742V746.741L612.254 754.177C610.704 755.727 608.845 756.346 606.676 756.346C604.817 756.346 602.648 755.727 601.099 754.177C598.001 751.079 598.001 746.121 601.099 743.333L620 724.742Z" fill="#E8EAF5"/>
<path d="M620 892.059V914.058L612.254 921.494C610.704 923.043 608.845 923.663 606.676 923.663C604.817 923.663 602.648 923.043 601.099 921.494C598.001 918.395 598.001 913.438 601.099 910.649L620 892.059Z" fill="#E8EAF5"/>
<path d="M620 1003.6V1025.6L612.254 1033.04C610.704 1034.59 608.845 1035.21 606.676 1035.21C604.817 1035.21 602.648 1034.59 601.099 1033.04C598.001 1029.94 598.001 1024.98 601.099 1022.19L620 1003.6Z" fill="#E8EAF5"/>
<path d="M620 1059.37V1081.37L608.536 1092.84H586.537L620 1059.37Z" fill="#E8EAF5"/>
<path d="M607.917 473.148C607.607 474.078 606.987 474.698 606.368 475.627L550.595 531.399C549.046 532.948 547.187 533.568 545.018 533.568C543.159 533.568 540.99 532.948 539.441 531.399C536.343 528.301 536.343 523.343 539.441 520.555L586.538 473.148H607.917Z" fill="#E8EAF5"/>
<path d="M271.424 910.649C268.325 907.551 263.368 907.551 260.579 910.649L210.384 960.844L188.076 938.535C184.977 935.437 180.02 935.437 177.231 938.535L121.459 994.307C118.36 997.406 118.36 1002.36 121.459 1005.15L143.768 1027.46L126.726 1044.5L104.417 1022.19C101.319 1019.1 96.3615 1019.1 93.5729 1022.19C90.4744 1025.29 90.4744 1030.25 93.5729 1033.04L121.459 1060.92C123.008 1062.47 124.867 1063.09 127.036 1063.09C128.895 1063.09 131.064 1062.47 132.613 1060.92L160.499 1033.04C163.598 1029.94 163.598 1024.98 160.499 1022.19L138.191 999.885L183.118 954.957L205.427 977.266C208.525 980.364 213.483 980.364 216.272 977.266L272.044 921.494C274.522 918.705 274.522 913.748 271.424 910.649Z" fill="#E8EAF5"/>
<path d="M210.384 1016.93L188.076 994.618C184.977 991.519 180.02 991.519 177.231 994.618C174.133 997.716 174.133 1002.67 177.231 1005.46L205.117 1033.35C208.216 1036.45 213.173 1036.45 215.962 1033.35L238.27 1011.04L260.579 1033.35C262.129 1034.9 263.988 1035.52 266.157 1035.52C268.016 1035.52 270.185 1034.9 271.734 1033.35C274.832 1030.25 274.832 1025.29 271.734 1022.5L243.848 994.618C240.749 991.519 235.792 991.519 233.003 994.618L210.384 1016.93Z" fill="#E8EAF5"/>
<path d="M438.74 966.421C435.642 963.323 430.684 963.323 427.895 966.421L405.587 988.73L383.278 966.421C380.179 963.323 375.222 963.323 372.433 966.421C369.335 969.52 369.335 974.477 372.433 977.266L394.742 999.575L372.433 1021.88C369.335 1024.98 369.335 1029.94 372.433 1032.73C373.982 1034.28 375.841 1034.9 378.01 1034.9C379.869 1034.9 382.038 1034.28 383.588 1032.73L405.896 1010.42L428.205 1032.73C429.755 1034.28 431.614 1034.9 433.783 1034.9C435.642 1034.9 437.811 1034.28 439.36 1032.73C442.458 1029.63 442.458 1024.67 439.36 1021.88L417.051 999.575L439.36 977.266C441.839 974.477 441.838 969.52 438.74 966.421Z" fill="#E8EAF5"/>
<path d="M355.082 1005.46C358.181 1002.36 358.181 997.406 355.082 994.618C351.984 991.519 347.026 991.519 344.238 994.618L321.929 1016.93L304.888 999.885L382.968 921.804C386.067 918.706 386.067 913.748 382.968 910.959L355.082 883.073C351.984 879.975 347.026 879.975 344.238 883.073L260.58 966.732C257.481 969.83 257.481 974.787 260.58 977.576C263.678 980.675 268.636 980.675 271.424 977.576L349.505 899.495L366.547 916.537L288.466 994.308C285.367 997.406 285.367 1002.36 288.466 1005.15L310.775 1027.46L288.466 1049.77C285.367 1052.87 285.367 1057.83 288.466 1060.61C290.015 1062.16 291.874 1062.78 294.043 1062.78C295.902 1062.78 298.071 1062.16 299.62 1060.61L327.506 1032.73L355.082 1005.46Z" fill="#E8EAF5"/>
<path d="M489.245 645.112C491.105 645.112 493.273 644.493 494.823 642.944L522.709 615.058C525.807 611.959 525.807 607.002 522.709 604.213C519.61 601.114 514.653 601.114 511.864 604.213L483.978 632.099C480.88 635.197 480.88 640.155 483.978 642.944C485.218 644.493 487.077 645.112 489.245 645.112Z" fill="#E8EAF5"/>
<path d="M606.058 576.017L578.172 548.131C575.073 545.032 570.116 545.032 567.327 548.131L539.441 576.017C536.343 579.115 536.343 584.073 539.441 586.861C542.539 589.96 547.497 589.96 550.286 586.861L572.594 564.552L589.636 581.594L539.441 631.789C536.343 634.887 536.343 639.845 539.441 642.633C540.99 644.183 542.849 644.802 545.018 644.802C546.877 644.802 549.046 644.183 550.595 642.633L606.368 586.861C609.156 584.073 609.156 579.115 606.058 576.017Z" fill="#E8EAF5"/>
<path d="M578.171 659.675C575.073 656.576 570.115 656.576 567.327 659.675L517.132 709.87L500.09 692.828L522.399 670.519C525.498 667.421 525.498 662.464 522.399 659.675C519.301 656.576 514.343 656.576 511.555 659.675L483.669 687.561C480.57 690.659 480.57 695.617 483.669 698.406L511.555 726.292C513.104 727.841 514.963 728.461 517.132 728.461C518.991 728.461 521.16 727.841 522.709 726.292L578.481 670.519C581.27 667.731 581.27 662.773 578.171 659.675Z" fill="#E8EAF5"/>
<path d="M522.398 771.219C519.3 768.121 514.342 768.121 511.554 771.219L489.245 793.528L466.936 771.219C463.838 768.121 458.88 768.121 456.091 771.219C452.993 774.318 452.993 779.275 456.091 782.064L478.4 804.373L456.091 826.681C452.993 829.78 452.993 834.737 456.091 837.526C457.641 839.075 459.5 839.695 461.669 839.695C463.528 839.695 465.697 839.075 467.246 837.526L489.555 815.217L511.864 837.526C513.413 839.075 515.272 839.695 517.441 839.695C519.3 839.695 521.469 839.075 523.018 837.526C526.116 834.427 526.116 829.47 523.018 826.681L500.709 804.373L523.018 782.064C525.497 779.275 525.497 774.318 522.398 771.219Z" fill="#E8EAF5"/>
<path d="M606.058 687.561C602.959 684.462 598.002 684.462 595.213 687.561L539.441 743.333C536.343 746.431 536.343 751.389 539.441 754.177C540.99 755.727 542.849 756.346 545.018 756.346C546.877 756.346 549.046 755.727 550.595 754.177L606.368 698.405C609.156 695.617 609.156 690.659 606.058 687.561Z" fill="#E8EAF5"/>
<path d="M606.058 799.105L578.172 771.219C575.073 768.121 570.116 768.121 567.327 771.219L539.441 799.105C536.343 802.204 536.343 807.161 539.441 809.95C542.539 813.048 547.497 813.048 550.286 809.95L572.594 787.641L589.636 804.682L539.441 854.877C536.343 857.976 536.343 862.933 539.441 865.722C540.99 867.271 542.849 867.891 545.018 867.891C546.877 867.891 549.046 867.271 550.595 865.722L606.368 809.95C609.156 807.161 609.156 802.204 606.058 799.105Z" fill="#E8EAF5"/>
<path d="M427.896 854.877C424.798 857.976 424.798 862.933 427.896 865.722L455.782 893.608C457.331 895.157 459.19 895.777 461.359 895.777C463.218 895.777 465.387 895.157 466.937 893.608L494.823 865.722C497.921 862.623 497.921 857.666 494.823 854.877C491.724 851.779 486.767 851.779 483.978 854.877L461.669 877.186L439.36 854.877C435.952 852.089 430.995 852.089 427.896 854.877Z" fill="#E8EAF5"/>
<path d="M522.399 882.763C519.3 879.665 514.343 879.665 511.554 882.763L461.359 932.958L439.051 910.649C435.952 907.551 430.995 907.551 428.206 910.649L400.32 938.535C397.221 941.634 397.221 946.591 400.32 949.38C403.418 952.478 408.376 952.478 411.165 949.38L433.473 927.071L455.782 949.38C457.331 950.929 459.19 951.549 461.359 951.549C463.218 951.549 465.387 950.929 466.937 949.38L522.709 893.608C525.497 890.819 525.497 885.862 522.399 882.763Z" fill="#E8EAF5"/>
<path d="M606.058 854.877C602.959 851.779 598.002 851.779 595.213 854.877L539.441 910.649C536.343 913.748 536.343 918.705 539.441 921.494L561.75 943.803L539.441 966.112C536.343 969.21 536.343 974.168 539.441 976.956L567.327 1004.84C568.876 1006.39 570.735 1007.01 572.904 1007.01C574.763 1007.01 576.932 1006.39 578.482 1004.84L606.368 976.956C609.466 973.858 609.466 968.9 606.368 966.112C603.269 963.013 598.312 963.013 595.523 966.112L573.214 988.42L556.173 971.379L578.482 949.07C581.58 945.972 581.58 941.014 578.482 938.226L556.173 915.917L606.368 865.722C609.156 862.933 609.156 857.976 606.058 854.877Z" fill="#E8EAF5"/>
<path d="M511.555 938.536L455.783 994.308C452.684 997.406 452.684 1002.36 455.783 1005.15C457.332 1006.7 459.191 1007.32 461.36 1007.32C463.219 1007.32 465.388 1006.7 466.937 1005.15L522.709 949.38C525.808 946.282 525.808 941.324 522.709 938.536C519.611 935.747 514.653 935.747 511.555 938.536Z" fill="#E8EAF5"/>
<path d="M511.554 1061.23C514.653 1064.33 519.61 1064.33 522.399 1061.23L550.285 1033.35C553.383 1030.25 553.383 1025.29 550.285 1022.5L522.399 994.618C519.3 991.519 514.343 991.519 511.554 994.618C508.456 997.716 508.456 1002.67 511.554 1005.46L533.863 1027.77L516.822 1044.81L494.513 1022.5C491.414 1019.41 486.457 1019.41 483.668 1022.5L427.896 1078.28C424.798 1081.37 424.798 1086.33 427.896 1089.12C429.445 1090.67 431.304 1091.29 433.473 1091.29C435.332 1091.29 437.501 1090.67 439.051 1089.12L489.245 1038.93L511.554 1061.23Z" fill="#E8EAF5"/>
<path d="M274.523 1089.12C272.973 1090.67 271.114 1091.29 268.945 1091.29C267.086 1091.29 264.917 1090.67 263.368 1089.12L241.059 1066.81L217.201 1092.84H196.132L235.792 1050.39C235.792 1050.39 235.792 1050.08 236.102 1050.08C236.102 1049.77 236.412 1049.77 236.721 1049.77C237.031 1049.46 237.031 1049.46 237.341 1049.15C237.651 1048.84 237.651 1048.84 237.961 1048.84C238.271 1048.84 238.271 1048.53 238.581 1048.53C238.89 1048.53 238.89 1048.22 239.2 1048.22C239.51 1048.22 239.51 1047.91 239.82 1047.91C240.13 1047.91 240.13 1047.91 240.44 1047.91C240.749 1047.91 241.059 1047.91 241.369 1047.91C241.679 1047.91 241.679 1047.91 241.989 1047.91C242.299 1047.91 242.609 1047.91 242.918 1047.91C243.228 1047.91 243.228 1047.91 243.538 1048.22C243.848 1048.22 244.158 1048.22 244.468 1048.53C244.777 1048.53 244.777 1048.84 245.087 1048.84C245.397 1048.84 245.397 1049.15 245.707 1049.15C246.017 1049.46 246.017 1049.46 246.327 1049.46C246.637 1049.46 246.637 1049.77 246.946 1049.77C246.946 1050.08 247.256 1050.08 247.256 1050.08L275.142 1077.97C277.621 1081.06 277.621 1086.02 274.523 1089.12Z" fill="#E8EAF5"/>
<path d="M299.31 893.918L355.083 838.146C358.181 835.047 358.181 830.09 355.083 827.301C351.984 824.203 347.027 824.203 344.238 827.301L294.043 877.496L271.734 855.187C268.636 852.089 263.678 852.089 260.89 855.187L210.695 905.382L188.386 883.073C185.288 879.975 180.33 879.975 177.541 883.073L127.346 933.268L105.038 910.959C101.939 907.861 96.9816 907.861 94.193 910.959C91.0945 914.058 91.0945 919.015 94.193 921.804L122.079 949.69C123.628 951.239 125.487 951.859 127.656 951.859C129.515 951.859 131.684 951.239 133.233 949.69L183.428 899.495L205.737 921.804C208.836 924.902 213.793 924.902 216.582 921.804L266.777 871.609L289.086 893.918C291.564 896.707 296.522 896.707 299.31 893.918Z" fill="#E8EAF5"/>
<path d="M400.011 893.918C401.56 895.467 403.419 896.087 405.588 896.087C407.447 896.087 409.616 895.467 411.165 893.918C414.264 890.819 414.264 885.862 411.165 883.073L388.856 860.764L439.051 810.57C442.15 807.471 442.15 802.514 439.051 799.725L416.742 777.416L461.67 732.489L483.979 754.797C487.077 757.896 492.035 757.896 494.823 754.797C497.922 751.699 497.922 746.741 494.823 743.953L466.937 716.067C463.839 712.968 458.881 712.968 456.093 716.067L400.321 771.839C397.222 774.937 397.222 779.895 400.321 782.683L422.629 804.992L372.125 854.877C369.026 857.976 369.026 862.933 372.125 865.722L400.011 893.918Z" fill="#E8EAF5"/>
</g>
<g opacity="0.5">
<path d="M48.3356 -32.9835L0.30957 15.0425V-6.95653L31.9138 -38.5607L9.60492 -60.8696C6.50647 -63.968 6.50647 -68.9256 9.60492 -71.7142C12.7034 -74.8126 17.6609 -74.8126 20.4495 -71.7142L48.3356 -43.8281C51.434 -41.0395 51.434 -36.082 48.3356 -32.9835Z" fill="#E8EAF5"/>
<path d="M48.3356 67.4064C51.434 70.5049 51.434 75.4624 48.3356 78.251L0.30957 126.587V104.588L31.9138 72.9836L9.60492 50.6748C6.50647 47.5763 6.50647 42.6188 9.60492 39.8302L37.491 11.9441C40.5894 8.84569 45.547 8.84569 48.3356 11.9441C51.434 15.0426 51.434 20.0001 48.3356 22.7887L26.0267 45.0976L48.3356 67.4064Z" fill="#E8EAF5"/>
<path d="M65.3773 50.6748C66.9265 52.224 68.7856 52.8437 70.9545 52.8437C72.8135 52.8437 74.9825 52.224 76.5317 50.6748L104.418 22.7887C107.516 19.6903 107.516 14.7327 104.418 11.9441C101.319 8.84569 96.3618 8.84569 93.5732 11.9441L65.6872 39.8302C62.2789 42.6188 62.2789 47.5763 65.3773 50.6748Z" fill="#E8EAF5"/>
<path d="M65.3776 273.763C66.9268 275.312 68.7859 275.932 70.9548 275.932C72.8139 275.932 74.9828 275.312 76.5321 273.763L98.8408 251.454L121.15 273.763C122.699 275.312 124.558 275.932 126.727 275.932C128.586 275.932 130.755 275.312 132.304 273.763C135.403 270.665 135.403 265.707 132.304 262.918L109.995 240.61L132.304 218.301C135.403 215.202 135.403 210.245 132.304 207.456C129.206 204.358 124.248 204.358 121.46 207.456L99.1507 229.765L76.8419 207.456C73.7435 204.358 68.786 204.358 65.9974 207.456C62.8989 210.555 62.8989 215.512 65.9974 218.301L88.3061 240.61L65.9974 262.918C62.2792 265.707 62.2792 270.665 65.3776 273.763Z" fill="#E8EAF5"/>
<path d="M9.60582 162.219C11.155 163.768 13.0141 164.388 15.183 164.388C17.0421 164.388 19.211 163.768 20.7603 162.219L70.9551 112.024L93.264 134.333C94.8132 135.882 96.6723 136.502 98.8412 136.502C100.7 136.502 102.869 135.882 104.418 134.333C107.517 131.234 107.517 126.277 104.418 123.488L82.1096 101.179L132.304 50.9845C135.403 47.8861 135.403 42.9286 132.304 40.14C129.206 37.0415 124.249 37.0415 121.46 40.14L9.91568 151.684C6.50739 154.163 6.50737 159.12 9.60582 162.219Z" fill="#E8EAF5"/>
<path d="M9.60509 217.991C11.1543 219.54 13.0134 220.16 15.1823 220.16C17.0414 220.16 19.2103 219.54 20.7595 217.991L70.9544 167.796L93.2633 190.105C96.3617 193.203 101.319 193.203 104.108 190.105L159.88 134.333C162.978 131.234 162.978 126.277 159.88 123.488L137.571 101.179L159.88 78.8707C162.978 75.7722 162.978 70.8147 159.88 68.0261C156.782 64.9276 151.824 64.9276 149.035 68.0261L121.149 95.9121C118.051 99.0106 118.051 103.968 121.149 106.757L143.458 129.066L98.5307 173.993L76.2218 151.684C73.1233 148.586 68.1658 148.586 65.3772 151.684L9.60509 207.456C6.50664 209.935 6.50664 214.893 9.60509 217.991Z" fill="#E8EAF5"/>
<path d="M149.036 11.6342C145.937 14.7326 145.937 19.6902 149.036 22.4788L176.922 50.3648C178.471 51.914 180.33 52.5337 182.499 52.5337C184.358 52.5337 186.527 51.914 188.076 50.3648C191.175 47.2664 191.175 42.3088 188.076 39.5202L160.19 11.6342C157.092 8.84557 152.134 8.84557 149.036 11.6342Z" fill="#E8EAF5"/>
<path d="M176.921 -5.09759C180.02 -1.99914 184.977 -1.99914 187.766 -5.09759L237.961 -55.2925L255.002 -38.251L204.807 11.6341C201.709 14.7325 201.709 19.69 204.807 22.4786C206.357 24.0279 208.216 24.6475 210.384 24.6475C212.244 24.6475 214.413 24.0279 215.962 22.4786L271.734 -33.2935C274.832 -36.3919 274.832 -41.3495 271.734 -44.1381L243.848 -72.0241C240.749 -75.1226 235.792 -75.1226 233.003 -72.0241L177.231 -16.252C173.823 -13.1536 173.823 -8.19604 176.921 -5.09759Z" fill="#E8EAF5"/>
<path d="M215.653 67.406C212.555 64.3076 207.597 64.3076 204.809 67.406L176.922 95.2921C173.824 98.3905 173.824 103.348 176.922 106.137C180.021 109.235 184.978 109.235 187.767 106.137L210.076 83.8278L232.385 106.137C233.934 107.686 235.793 108.306 237.962 108.306C239.821 108.306 241.99 107.686 243.539 106.137L327.197 22.4785C330.296 19.3801 330.296 14.4225 327.197 11.6339C324.099 8.53548 319.141 8.53548 316.353 11.6339L238.272 89.7149L215.653 67.406Z" fill="#E8EAF5"/>
<path d="M149.036 245.877C150.585 247.426 152.444 248.046 154.613 248.046C156.472 248.046 158.641 247.426 160.19 245.877L243.848 162.219C246.947 159.121 246.947 154.163 243.848 151.374L215.962 123.488C212.864 120.39 207.906 120.39 205.118 123.488L149.346 179.261C146.247 182.359 146.247 187.316 149.346 190.105C152.444 193.204 157.402 193.204 160.19 190.105L210.385 139.91L227.427 156.952L149.036 234.723C145.937 237.821 145.937 242.779 149.036 245.877Z" fill="#E8EAF5"/>
<path d="M299.31 95.2921C296.212 92.1936 291.254 92.1936 288.466 95.2921L260.58 123.178C257.481 126.277 257.481 131.234 260.58 134.023L288.466 161.909C290.015 163.458 291.874 164.078 294.043 164.078C295.902 164.078 298.071 163.458 299.62 161.909C302.719 158.81 302.719 153.853 299.62 151.064L277.311 128.755L299.62 106.447C302.409 103.348 302.409 98.3906 299.31 95.2921Z" fill="#E8EAF5"/>
<path d="M372.124 -32.9835L394.433 -10.6747L316.352 67.4063C313.254 70.5047 313.254 75.4622 316.352 78.2508C317.901 79.8001 319.76 80.4198 321.929 80.4198C323.788 80.4198 325.957 79.8001 327.507 78.2508L377.701 28.0559L400.01 50.3648C401.56 51.914 403.419 52.5337 405.587 52.5337C407.447 52.5337 409.616 51.914 411.165 50.3648C414.263 47.2664 414.263 42.3088 411.165 39.5202L388.856 17.2114L411.165 -5.09748C414.263 -8.19593 414.263 -13.1534 411.165 -15.9421L388.856 -38.2509L439.051 -88.4458C442.149 -91.5442 442.149 -96.5018 439.051 -99.2904C435.952 -102.389 430.995 -102.389 428.206 -99.2904L372.434 -43.5183C369.026 -41.0395 369.026 -36.082 372.124 -32.9835Z" fill="#E8EAF5"/>
<path d="M243.539 50.6748L271.425 22.7887C274.523 19.6903 274.523 14.7327 271.425 11.9441C268.326 8.84569 263.369 8.84569 260.58 11.9441L232.694 39.8302C229.596 42.9286 229.596 47.8862 232.694 50.6748C234.243 52.224 236.102 52.8437 238.271 52.8437C240.13 52.8437 241.989 52.224 243.539 50.6748Z" fill="#E8EAF5"/>
<path d="M48.3356 245.877L0.30957 293.903V271.904L37.491 234.722C40.5894 231.624 45.547 231.624 48.3356 234.722C51.434 237.821 51.434 242.778 48.3356 245.877Z" fill="#E8EAF5"/>
<path d="M210.384 248.046C212.243 248.046 214.412 247.426 215.962 245.877L266.157 195.682L288.465 217.991C291.564 221.089 296.521 221.089 299.31 217.991C302.408 214.893 302.408 209.935 299.31 207.146L271.424 179.26C268.325 176.162 263.368 176.162 260.579 179.26L204.807 235.032C201.709 238.131 201.709 243.088 204.807 245.877C206.356 247.426 208.215 248.046 210.384 248.046Z" fill="#E8EAF5"/>
<path d="M377.701 192.274C379.56 192.274 381.729 191.654 383.278 190.105C386.377 187.007 386.377 182.049 383.278 179.26L360.969 156.952L383.278 134.643C386.377 131.544 386.377 126.587 383.278 123.798C380.18 120.7 375.222 120.7 372.434 123.798L350.125 146.107L327.816 123.798C324.717 120.7 319.76 120.7 316.971 123.798C313.873 126.897 313.873 131.854 316.971 134.643L339.28 156.952L316.971 179.26C313.873 182.359 313.873 187.316 316.971 190.105C318.521 191.654 320.38 192.274 322.548 192.274C324.408 192.274 326.576 191.654 328.126 190.105L350.435 167.796L372.743 190.105C373.673 191.654 375.532 192.274 377.701 192.274Z" fill="#E8EAF5"/>
<path d="M382.969 67.406C379.87 64.3076 374.913 64.3076 372.124 67.406L344.238 95.2921C341.139 98.3905 341.139 103.348 344.238 106.137C347.336 109.235 352.294 109.235 355.082 106.137L377.391 83.8278L399.7 106.137C401.249 107.686 403.108 108.306 405.277 108.306C407.136 108.306 409.305 107.686 410.855 106.137L466.627 50.3646C469.725 47.2661 469.725 42.3086 466.627 39.52L438.741 11.6339C435.642 8.53548 430.685 8.53548 427.896 11.6339C424.798 14.7324 424.798 19.6899 427.896 22.4785L450.205 44.7874L405.277 89.7149L382.969 67.406Z" fill="#E8EAF5"/>
<path d="M76.2227 447.276L50.8154 472.683H28.8164L65.3781 436.122C68.4766 433.023 73.4341 433.023 76.2227 436.122C79.3212 439.22 79.3212 444.178 76.2227 447.276Z" fill="#E8EAF5"/>
<path d="M187.767 447.276L162.359 472.683H140.36L176.922 436.122C180.02 433.023 184.978 433.023 187.767 436.122C190.865 439.22 190.865 444.178 187.767 447.276Z" fill="#E8EAF5"/>
<path d="M410.855 447.276L385.448 472.683H363.449L369.646 466.487L349.506 446.347L327.197 468.655C324.098 471.754 319.141 471.754 316.352 468.655C313.254 465.557 313.254 460.6 316.352 457.811L344.238 429.925C347.337 426.826 352.294 426.826 355.083 429.925L380.49 455.332L399.7 436.122C402.799 433.023 407.756 433.023 410.545 436.122C413.953 439.22 413.953 444.178 410.855 447.276Z" fill="#E8EAF5"/>
<path d="M494.513 464.008L503.189 472.684H474.993L483.669 464.008C486.767 461.219 491.725 461.219 494.513 464.008Z" fill="#E8EAF5"/>
<path d="M578.171 447.276L552.764 472.683H530.765L567.326 436.122C570.425 433.023 575.382 433.023 578.171 436.122C581.269 439.22 581.269 444.178 578.171 447.276Z" fill="#E8EAF5"/>
<path d="M37.4911 290.495L9.60509 318.381C6.50664 321.479 6.50664 326.437 9.60509 329.225C12.7035 332.324 17.6611 332.324 20.4497 329.225L42.7585 306.917L87.6861 351.844L37.4911 402.039C34.3927 405.137 34.3927 410.095 37.4911 412.884C39.0404 414.433 40.8995 415.052 43.0684 415.052C44.9274 415.052 47.0964 414.433 48.6456 412.884L104.418 357.111C107.516 354.013 107.516 349.055 104.418 346.267L48.6456 290.495C45.5471 287.706 40.5896 287.706 37.4911 290.495Z" fill="#E8EAF5"/>
<path d="M48.3356 357.421L0.30957 405.447V383.448L37.491 346.267C40.5894 343.168 45.547 343.168 48.3356 346.267C51.434 349.365 51.434 354.323 48.3356 357.421Z" fill="#E8EAF5"/>
<path d="M20.4498 441.08L0 461.529V439.53L9.29535 430.235C12.3938 427.137 17.3513 427.137 20.1399 430.235C23.5482 433.024 23.5482 437.981 20.4498 441.08Z" fill="#E8EAF5"/>
<path d="M620 -6.95679V15.0422L612.254 22.7883C610.704 24.3376 608.845 24.9573 606.676 24.9573C604.817 24.9573 602.648 24.3376 601.099 22.7883C598.001 19.6899 598.001 14.7324 601.099 11.9438L620 -6.95679Z" fill="#E8EAF5"/>
<path d="M620 104.588V126.587L612.254 134.023C610.704 135.572 608.845 136.192 606.676 136.192C604.817 136.192 602.648 135.572 601.099 134.023C598.001 130.924 598.001 125.967 601.099 123.178L620 104.588Z" fill="#E8EAF5"/>
<path d="M620 271.904V293.903L612.254 301.339C610.704 302.888 608.845 303.508 606.676 303.508C604.817 303.508 602.648 302.888 601.099 301.339C598.001 298.241 598.001 293.283 601.099 290.495L620 271.904Z" fill="#E8EAF5"/>
<path d="M620 383.448V405.447L612.254 412.883C610.704 414.433 608.845 415.052 606.676 415.052C604.817 415.052 602.648 414.433 601.099 412.883C598.001 409.785 598.001 404.827 601.099 402.039L620 383.448Z" fill="#E8EAF5"/>
<path d="M620 439.22V461.219L608.536 472.683H586.537L620 439.22Z" fill="#E8EAF5"/>
<path d="M271.424 290.494C268.325 287.396 263.368 287.396 260.579 290.494L210.384 340.689L188.076 318.38C184.977 315.282 180.02 315.282 177.231 318.38L121.459 374.153C118.36 377.251 118.36 382.209 121.459 384.997L143.768 407.306L126.726 424.347L104.417 402.039C101.319 398.94 96.3615 398.94 93.5729 402.039C90.4744 405.137 90.4744 410.095 93.5729 412.883L121.459 440.769C123.008 442.318 124.867 442.938 127.036 442.938C128.895 442.938 131.064 442.318 132.613 440.769L160.499 412.883C163.598 409.785 163.598 404.827 160.499 402.039L138.191 379.73L183.118 334.802L205.427 357.111C208.525 360.21 213.483 360.21 216.272 357.111L272.044 301.339C274.522 298.55 274.522 293.593 271.424 290.494Z" fill="#E8EAF5"/>
<path d="M210.384 396.772L188.076 374.463C184.977 371.364 180.02 371.364 177.231 374.463C174.133 377.561 174.133 382.519 177.231 385.307L205.117 413.194C208.216 416.292 213.173 416.292 215.962 413.194L238.27 390.885L260.579 413.194C262.129 414.743 263.988 415.362 266.157 415.362C268.016 415.362 270.185 414.743 271.734 413.194C274.832 410.095 274.832 405.138 271.734 402.349L243.848 374.463C240.749 371.364 235.792 371.364 233.003 374.463L210.384 396.772Z" fill="#E8EAF5"/>
<path d="M438.74 346.267C435.642 343.168 430.684 343.168 427.895 346.267L405.587 368.576L383.278 346.267C380.179 343.168 375.222 343.168 372.433 346.267C369.335 349.365 369.335 354.323 372.433 357.111L394.742 379.42L372.433 401.729C369.335 404.827 369.335 409.785 372.433 412.574C373.982 414.123 375.841 414.742 378.01 414.742C379.869 414.742 382.038 414.123 383.588 412.574L405.896 390.265L428.205 412.574C429.755 414.123 431.614 414.742 433.783 414.742C435.642 414.742 437.811 414.123 439.36 412.574C442.458 409.475 442.458 404.518 439.36 401.729L417.051 379.42L439.36 357.111C441.839 354.323 441.838 349.365 438.74 346.267Z" fill="#E8EAF5"/>
<path d="M355.082 385.307C358.181 382.209 358.181 377.251 355.082 374.463C351.984 371.364 347.026 371.364 344.238 374.463L321.929 396.772L304.888 379.73L382.968 301.649C386.067 298.551 386.067 293.593 382.968 290.805L355.082 262.919C351.984 259.82 347.026 259.82 344.238 262.919L260.58 346.577C257.481 349.675 257.481 354.633 260.58 357.421C263.678 360.52 268.636 360.52 271.424 357.421L349.505 279.34L366.547 296.382L288.466 374.153C285.367 377.251 285.367 382.209 288.466 384.998L310.775 407.306L288.466 429.615C285.367 432.714 285.367 437.671 288.466 440.46C290.015 442.009 291.874 442.629 294.043 442.629C295.902 442.629 298.071 442.009 299.62 440.46L327.506 412.574L355.082 385.307Z" fill="#E8EAF5"/>
<path d="M489.245 24.9576C491.105 24.9576 493.273 24.3379 494.823 22.7887L522.709 -5.09736C525.807 -8.19581 525.807 -13.1533 522.709 -15.9419C519.61 -19.0404 514.653 -19.0404 511.864 -15.9419L483.978 11.9441C480.88 15.0426 480.88 20.0001 483.978 22.7887C485.218 24.3379 487.077 24.9576 489.245 24.9576Z" fill="#E8EAF5"/>
<path d="M606.058 -44.1381L578.172 -72.0241C575.073 -75.1226 570.116 -75.1226 567.327 -72.0241L539.441 -44.1381C536.343 -41.0396 536.343 -36.0821 539.441 -33.2935C542.539 -30.195 547.497 -30.195 550.286 -33.2935L572.594 -55.6023L589.636 -38.5609L539.441 11.6341C536.343 14.7325 536.343 19.69 539.441 22.4786C540.99 24.0279 542.849 24.6475 545.018 24.6475C546.877 24.6475 549.046 24.0279 550.595 22.4786L606.368 -33.2935C609.156 -36.0821 609.156 -41.0396 606.058 -44.1381Z" fill="#E8EAF5"/>
<path d="M578.171 39.52C575.073 36.4216 570.115 36.4216 567.327 39.52L517.132 89.7149L500.09 72.6735L522.399 50.3646C525.498 47.2662 525.498 42.3086 522.399 39.52C519.301 36.4216 514.343 36.4216 511.555 39.52L483.669 67.4061C480.57 70.5045 480.57 75.4621 483.669 78.2507L511.555 106.137C513.104 107.686 514.963 108.306 517.132 108.306C518.991 108.306 521.16 107.686 522.709 106.137L578.481 50.3646C581.27 47.576 581.27 42.6185 578.171 39.52Z" fill="#E8EAF5"/>
<path d="M522.398 151.064C519.3 147.966 514.342 147.966 511.554 151.064L489.245 173.373L466.936 151.064C463.838 147.966 458.88 147.966 456.091 151.064C452.993 154.163 452.993 159.12 456.091 161.909L478.4 184.218L456.091 206.527C452.993 209.625 452.993 214.583 456.091 217.371C457.641 218.92 459.5 219.54 461.669 219.54C463.528 219.54 465.697 218.92 467.246 217.371L489.555 195.062L511.864 217.371C513.413 218.92 515.272 219.54 517.441 219.54C519.3 219.54 521.469 218.92 523.018 217.371C526.116 214.273 526.116 209.315 523.018 206.527L500.709 184.218L523.018 161.909C525.497 159.12 525.497 154.163 522.398 151.064Z" fill="#E8EAF5"/>
<path d="M606.058 67.406C602.959 64.3075 598.002 64.3075 595.213 67.406L539.441 123.178C536.343 126.277 536.343 131.234 539.441 134.023C540.99 135.572 542.849 136.192 545.018 136.192C546.877 136.192 549.046 135.572 550.595 134.023L606.368 78.2506C609.156 75.462 609.156 70.5044 606.058 67.406Z" fill="#E8EAF5"/>
<path d="M606.058 178.95L578.172 151.064C575.073 147.966 570.116 147.966 567.327 151.064L539.441 178.95C536.343 182.049 536.343 187.006 539.441 189.795C542.539 192.893 547.497 192.893 550.286 189.795L572.594 167.486L589.636 184.528L539.441 234.722C536.343 237.821 536.343 242.778 539.441 245.567C540.99 247.116 542.849 247.736 545.018 247.736C546.877 247.736 549.046 247.116 550.595 245.567L606.368 189.795C609.156 187.006 609.156 182.049 606.058 178.95Z" fill="#E8EAF5"/>
<path d="M427.896 234.722C424.798 237.821 424.798 242.778 427.896 245.567L455.782 273.453C457.331 275.002 459.19 275.622 461.359 275.622C463.218 275.622 465.387 275.002 466.937 273.453L494.823 245.567C497.921 242.469 497.921 237.511 494.823 234.722C491.724 231.624 486.767 231.624 483.978 234.722L461.669 257.031L439.36 234.722C435.952 231.934 430.995 231.934 427.896 234.722Z" fill="#E8EAF5"/>
<path d="M522.399 262.609C519.3 259.51 514.343 259.51 511.554 262.609L461.359 312.803L439.051 290.495C435.952 287.396 430.995 287.396 428.206 290.495L400.32 318.381C397.221 321.479 397.221 326.437 400.32 329.225C403.418 332.324 408.376 332.324 411.165 329.225L433.473 306.916L455.782 329.225C457.331 330.774 459.19 331.394 461.359 331.394C463.218 331.394 465.387 330.774 466.937 329.225L522.709 273.453C525.497 270.664 525.497 265.707 522.399 262.609Z" fill="#E8EAF5"/>
<path d="M606.058 234.722C602.959 231.624 598.002 231.624 595.213 234.722L539.441 290.495C536.343 293.593 536.343 298.551 539.441 301.339L561.75 323.648L539.441 345.957C536.343 349.055 536.343 354.013 539.441 356.801L567.327 384.687C568.876 386.237 570.735 386.856 572.904 386.856C574.763 386.856 576.932 386.237 578.482 384.687L606.368 356.801C609.466 353.703 609.466 348.745 606.368 345.957C603.269 342.858 598.312 342.858 595.523 345.957L573.214 368.266L556.173 351.224L578.482 328.915C581.58 325.817 581.58 320.859 578.482 318.071L556.173 295.762L606.368 245.567C609.156 242.778 609.156 237.821 606.058 234.722Z" fill="#E8EAF5"/>
<path d="M511.555 318.381L455.783 374.153C452.684 377.251 452.684 382.209 455.783 384.998C457.332 386.547 459.191 387.166 461.36 387.166C463.219 387.166 465.388 386.547 466.937 384.998L522.709 329.225C525.808 326.127 525.808 321.169 522.709 318.381C519.611 315.592 514.653 315.592 511.555 318.381Z" fill="#E8EAF5"/>
<path d="M511.554 441.08C514.653 444.178 519.61 444.178 522.399 441.08L550.285 413.194C553.383 410.095 553.383 405.138 550.285 402.349L522.399 374.463C519.3 371.364 514.343 371.364 511.554 374.463C508.456 377.561 508.456 382.519 511.554 385.307L533.863 407.616L516.822 424.658L494.513 402.349C491.414 399.25 486.457 399.25 483.668 402.349L427.896 458.121C424.798 461.219 424.798 466.177 427.896 468.966C429.445 470.515 431.304 471.135 433.473 471.135C435.332 471.135 437.501 470.515 439.051 468.966L489.245 418.771L511.554 441.08Z" fill="#E8EAF5"/>
<path d="M274.523 468.965C272.973 470.514 271.114 471.134 268.945 471.134C267.086 471.134 264.917 470.514 263.368 468.965L241.059 446.656L217.201 472.683H196.132L235.792 430.235C235.792 430.235 235.792 429.925 236.102 429.925C236.102 429.615 236.412 429.615 236.721 429.615C237.031 429.305 237.031 429.305 237.341 428.995C237.651 428.685 237.651 428.685 237.961 428.685C238.271 428.685 238.271 428.376 238.581 428.376C238.89 428.376 238.89 428.066 239.2 428.066C239.51 428.066 239.51 427.756 239.82 427.756C240.13 427.756 240.13 427.756 240.44 427.756C240.749 427.756 241.059 427.756 241.369 427.756C241.679 427.756 241.679 427.756 241.989 427.756C242.299 427.756 242.609 427.756 242.918 427.756C243.228 427.756 243.228 427.756 243.538 428.066C243.848 428.066 244.158 428.066 244.468 428.376C244.777 428.376 244.777 428.685 245.087 428.685C245.397 428.685 245.397 428.995 245.707 428.995C246.017 429.305 246.017 429.305 246.327 429.305C246.637 429.305 246.637 429.615 246.946 429.615C246.946 429.925 247.256 429.925 247.256 429.925L275.142 457.811C277.621 460.909 277.621 465.867 274.523 468.965Z" fill="#E8EAF5"/>
<path d="M299.31 273.763L355.083 217.991C358.181 214.893 358.181 209.935 355.083 207.146C351.984 204.048 347.027 204.048 344.238 207.146L294.043 257.341L271.734 235.033C268.636 231.934 263.678 231.934 260.89 235.033L210.695 285.227L188.386 262.919C185.288 259.82 180.33 259.82 177.541 262.919L127.346 313.113L105.038 290.805C101.939 287.706 96.9816 287.706 94.193 290.805C91.0945 293.903 91.0945 298.861 94.193 301.649L122.079 329.535C123.628 331.085 125.487 331.704 127.656 331.704C129.515 331.704 131.684 331.085 133.233 329.535L183.428 279.34L205.737 301.649C208.836 304.748 213.793 304.748 216.582 301.649L266.777 251.454L289.086 273.763C291.564 276.552 296.522 276.552 299.31 273.763Z" fill="#E8EAF5"/>
<path d="M400.011 273.763C401.56 275.312 403.419 275.932 405.588 275.932C407.447 275.932 409.616 275.312 411.165 273.763C414.264 270.665 414.264 265.707 411.165 262.918L388.856 240.61L439.051 190.415C442.15 187.316 442.15 182.359 439.051 179.57L416.742 157.261L461.67 112.334L483.979 134.643C487.077 137.741 492.035 137.741 494.823 134.643C497.922 131.544 497.922 126.587 494.823 123.798L466.937 95.912C463.839 92.8135 458.881 92.8135 456.093 95.912L400.321 151.684C397.222 154.783 397.222 159.74 400.321 162.529L422.629 184.838L372.125 234.723C369.026 237.821 369.026 242.779 372.125 245.567L400.011 273.763Z" fill="#E8EAF5"/>
</g>
<g opacity="0.5">
<path d="M50.8143 1092.99L0.30957 1143.5V1121.5L28.8153 1092.99H50.8143Z" fill="#E8EAF5"/>
<path d="M48.3356 1207.02L0.30957 1255.04V1233.04L31.9138 1201.44L9.60492 1179.13C6.50647 1176.03 6.50647 1171.07 9.60492 1168.29C12.7034 1165.19 17.6609 1165.19 20.4495 1168.29L48.3356 1196.17C51.434 1198.96 51.434 1203.92 48.3356 1207.02Z" fill="#E8EAF5"/>
<path d="M162.359 1092.99L104.108 1151.24C102.559 1152.79 100.7 1153.41 98.5313 1153.41C96.6723 1153.41 94.5033 1152.79 92.9541 1151.24L70.6453 1128.94L48.3364 1151.24C45.2379 1154.34 40.2804 1154.34 37.4918 1151.24C34.3934 1148.15 34.3934 1143.19 37.4918 1140.4L65.3779 1112.51C68.4763 1109.42 73.4338 1109.42 76.2224 1112.51L98.5313 1134.82L140.36 1092.99H162.359Z" fill="#E8EAF5"/>
<path d="M65.3776 1234.9C66.9268 1236.45 68.7859 1237.07 70.9548 1237.07C72.8139 1237.07 74.9828 1236.45 76.5321 1234.9L98.8408 1212.59L121.15 1234.9C122.699 1236.45 124.558 1237.07 126.727 1237.07C128.586 1237.07 130.755 1236.45 132.304 1234.9C135.403 1231.8 135.403 1226.85 132.304 1224.06L109.995 1201.75L132.304 1179.44C135.403 1176.34 135.403 1171.38 132.304 1168.6C129.206 1165.5 124.248 1165.5 121.46 1168.6L99.1507 1190.9L76.8419 1168.6C73.7435 1165.5 68.786 1165.5 65.9974 1168.6C62.8989 1171.69 62.8989 1176.65 65.9974 1179.44L88.3061 1201.75L65.9974 1224.06C62.2792 1226.85 62.2792 1231.8 65.3776 1234.9Z" fill="#E8EAF5"/>
<path d="M48.3356 1307.41C51.434 1310.5 51.434 1315.46 48.3356 1318.25L0.30957 1366.59V1344.59L31.9138 1312.98L9.60492 1290.67C6.50647 1287.58 6.50647 1282.62 9.60492 1279.83L37.491 1251.94C40.5894 1248.85 45.547 1248.85 48.3356 1251.94C51.434 1255.04 51.434 1260 48.3356 1262.79L26.0267 1285.1L48.3356 1307.41Z" fill="#E8EAF5"/>
<path d="M65.3773 1290.67C66.9265 1292.22 68.7856 1292.84 70.9545 1292.84C72.8135 1292.84 74.9825 1292.22 76.5317 1290.67L104.418 1262.79C107.516 1259.69 107.516 1254.73 104.418 1251.94C101.319 1248.85 96.3618 1248.85 93.5732 1251.94L65.6872 1279.83C62.2789 1282.62 62.2789 1287.58 65.3773 1290.67Z" fill="#E8EAF5"/>
<path d="M187.766 1167.98C190.864 1171.07 190.864 1176.03 187.766 1178.82L159.88 1206.71C158.33 1208.26 156.471 1208.88 154.302 1208.88C152.443 1208.88 150.274 1208.26 148.725 1206.71C145.627 1203.61 145.627 1198.65 148.725 1195.86L171.034 1173.55L148.725 1151.24C145.627 1148.15 145.627 1143.19 148.725 1140.4L196.132 1092.99H218.13L165.457 1145.67L187.766 1167.98Z" fill="#E8EAF5"/>
<path d="M215.652 1151.24L243.538 1123.36C246.636 1120.26 246.636 1115.3 243.538 1112.51C240.439 1109.42 235.482 1109.42 232.693 1112.51L204.807 1140.4C201.709 1143.5 201.709 1148.46 204.807 1151.24C206.356 1152.79 208.215 1153.41 210.384 1153.41C212.243 1153.41 214.103 1152.79 215.652 1151.24Z" fill="#E8EAF5"/>
<path d="M288.466 1234.9C290.015 1236.45 291.874 1237.07 294.043 1237.07C295.902 1237.07 298.071 1236.45 299.62 1234.9L321.929 1212.59L344.238 1234.9C345.787 1236.45 347.646 1237.07 349.815 1237.07C351.674 1237.07 353.843 1236.45 355.392 1234.9C358.491 1231.8 358.491 1226.85 355.392 1224.06L333.083 1201.75L355.392 1179.44C358.491 1176.34 358.491 1171.38 355.392 1168.6C352.294 1165.5 347.336 1165.5 344.547 1168.6L322.239 1190.9L299.93 1168.6C296.831 1165.5 291.874 1165.5 289.085 1168.6C285.987 1171.69 285.987 1176.65 289.085 1179.44L311.394 1201.75L289.085 1224.06C285.367 1226.85 285.367 1231.8 288.466 1234.9Z" fill="#E8EAF5"/>
<path d="M65.3776 1513.76C66.9268 1515.31 68.7859 1515.93 70.9548 1515.93C72.8139 1515.93 74.9828 1515.31 76.5321 1513.76L98.8408 1491.45L121.15 1513.76C122.699 1515.31 124.558 1515.93 126.727 1515.93C128.586 1515.93 130.755 1515.31 132.304 1513.76C135.403 1510.66 135.403 1505.71 132.304 1502.92L109.995 1480.61L132.304 1458.3C135.403 1455.2 135.403 1450.24 132.304 1447.46C129.206 1444.36 124.248 1444.36 121.46 1447.46L99.1507 1469.76L76.8419 1447.46C73.7435 1444.36 68.786 1444.36 65.9974 1447.46C62.8989 1450.55 62.8989 1455.51 65.9974 1458.3L88.3061 1480.61L65.9974 1502.92C62.2792 1505.71 62.2792 1510.66 65.3776 1513.76Z" fill="#E8EAF5"/>
<path d="M9.60582 1402.22C11.155 1403.77 13.0141 1404.39 15.183 1404.39C17.0421 1404.39 19.211 1403.77 20.7603 1402.22L70.9551 1352.02L93.264 1374.33C94.8132 1375.88 96.6723 1376.5 98.8412 1376.5C100.7 1376.5 102.869 1375.88 104.418 1374.33C107.517 1371.23 107.517 1366.28 104.418 1363.49L82.1096 1341.18L132.304 1290.98C135.403 1287.89 135.403 1282.93 132.304 1280.14C129.206 1277.04 124.249 1277.04 121.46 1280.14L9.91568 1391.68C6.50739 1394.16 6.50737 1399.12 9.60582 1402.22Z" fill="#E8EAF5"/>
<path d="M9.60509 1457.99C11.1543 1459.54 13.0134 1460.16 15.1823 1460.16C17.0414 1460.16 19.2103 1459.54 20.7595 1457.99L70.9544 1407.8L93.2633 1430.11C96.3617 1433.2 101.319 1433.2 104.108 1430.11L159.88 1374.33C162.978 1371.23 162.978 1366.28 159.88 1363.49L137.571 1341.18L159.88 1318.87C162.978 1315.77 162.978 1310.81 159.88 1308.03C156.782 1304.93 151.824 1304.93 149.035 1308.03L121.149 1335.91C118.051 1339.01 118.051 1343.97 121.149 1346.76L143.458 1369.07L98.5307 1413.99L76.2218 1391.68C73.1233 1388.59 68.1658 1388.59 65.3772 1391.68L9.60509 1447.46C6.50664 1449.94 6.50664 1454.89 9.60509 1457.99Z" fill="#E8EAF5"/>
<path d="M149.036 1251.63C145.937 1254.73 145.937 1259.69 149.036 1262.48L176.922 1290.36C178.471 1291.91 180.33 1292.53 182.499 1292.53C184.358 1292.53 186.527 1291.91 188.076 1290.36C191.175 1287.27 191.175 1282.31 188.076 1279.52L160.19 1251.63C157.092 1248.85 152.134 1248.85 149.036 1251.63Z" fill="#E8EAF5"/>
<path d="M176.921 1234.9C180.02 1238 184.977 1238 187.766 1234.9L237.961 1184.71L255.002 1201.75L204.807 1251.63C201.709 1254.73 201.709 1259.69 204.807 1262.48C206.357 1264.03 208.216 1264.65 210.384 1264.65C212.244 1264.65 214.413 1264.03 215.962 1262.48L271.734 1206.71C274.832 1203.61 274.832 1198.65 271.734 1195.86L243.848 1167.98C240.749 1164.88 235.792 1164.88 233.003 1167.98L177.231 1223.75C173.823 1226.85 173.823 1231.8 176.921 1234.9Z" fill="#E8EAF5"/>
<path d="M271.424 1151.24L293.733 1128.94L316.042 1151.24C317.591 1152.79 319.45 1153.41 321.619 1153.41C323.478 1153.41 325.647 1152.79 327.196 1151.24C330.295 1148.15 330.295 1143.19 327.196 1140.4L299.31 1112.51C296.212 1109.42 291.254 1109.42 288.466 1112.51L260.58 1140.4C257.481 1143.5 257.481 1148.46 260.58 1151.24C263.678 1154.03 268.636 1154.03 271.424 1151.24Z" fill="#E8EAF5"/>
<path d="M385.448 1092.99L355.083 1123.36C353.534 1124.91 351.675 1125.53 349.506 1125.53C347.647 1125.53 345.478 1124.91 343.928 1123.36C340.83 1120.26 340.83 1115.3 343.928 1112.51L363.139 1093.3H385.448V1092.99Z" fill="#E8EAF5"/>
<path d="M377.701 1153.41C379.56 1153.41 381.729 1152.79 383.278 1151.24L411.164 1123.36C414.262 1120.26 414.262 1115.3 411.164 1112.51C408.065 1109.42 403.108 1109.42 400.319 1112.51L372.433 1140.4C369.335 1143.5 369.335 1148.46 372.433 1151.24C373.673 1152.79 375.532 1153.41 377.701 1153.41Z" fill="#E8EAF5"/>
<path d="M215.653 1307.41C212.555 1304.31 207.597 1304.31 204.809 1307.41L176.922 1335.29C173.824 1338.39 173.824 1343.35 176.922 1346.14C180.021 1349.24 184.978 1349.24 187.767 1346.14L210.076 1323.83L232.385 1346.14C233.934 1347.69 235.793 1348.31 237.962 1348.31C239.821 1348.31 241.99 1347.69 243.539 1346.14L327.197 1262.48C330.296 1259.38 330.296 1254.42 327.197 1251.63C324.099 1248.54 319.141 1248.54 316.353 1251.63L238.272 1329.71L215.653 1307.41Z" fill="#E8EAF5"/>
<path d="M149.036 1485.88C150.585 1487.43 152.444 1488.05 154.613 1488.05C156.472 1488.05 158.641 1487.43 160.19 1485.88L243.848 1402.22C246.947 1399.12 246.947 1394.16 243.848 1391.37L215.962 1363.49C212.864 1360.39 207.906 1360.39 205.118 1363.49L149.346 1419.26C146.247 1422.36 146.247 1427.32 149.346 1430.1C152.444 1433.2 157.402 1433.2 160.19 1430.1L210.385 1379.91L227.427 1396.95L149.036 1474.72C145.937 1477.82 145.937 1482.78 149.036 1485.88Z" fill="#E8EAF5"/>
<path d="M299.31 1335.29C296.212 1332.19 291.254 1332.19 288.466 1335.29L260.58 1363.18C257.481 1366.28 257.481 1371.23 260.58 1374.02L288.466 1401.91C290.015 1403.46 291.874 1404.08 294.043 1404.08C295.902 1404.08 298.071 1403.46 299.62 1401.91C302.719 1398.81 302.719 1393.85 299.62 1391.06L277.311 1368.76L299.62 1346.45C302.409 1343.35 302.409 1338.39 299.31 1335.29Z" fill="#E8EAF5"/>
<path d="M372.124 1207.02L394.433 1229.33L316.352 1307.41C313.254 1310.5 313.254 1315.46 316.352 1318.25C317.901 1319.8 319.76 1320.42 321.929 1320.42C323.788 1320.42 325.957 1319.8 327.507 1318.25L377.701 1268.06L400.01 1290.37C401.56 1291.91 403.419 1292.53 405.587 1292.53C407.447 1292.53 409.616 1291.91 411.165 1290.37C414.263 1287.27 414.263 1282.31 411.165 1279.52L388.856 1257.21L411.165 1234.9C414.263 1231.8 414.263 1226.85 411.165 1224.06L388.856 1201.75L439.051 1151.55C442.149 1148.46 442.149 1143.5 439.051 1140.71C435.952 1137.61 430.995 1137.61 428.206 1140.71L372.434 1196.48C369.026 1198.96 369.026 1203.92 372.124 1207.02Z" fill="#E8EAF5"/>
<path d="M243.539 1290.67L271.425 1262.79C274.523 1259.69 274.523 1254.73 271.425 1251.94C268.326 1248.85 263.369 1248.85 260.58 1251.94L232.694 1279.83C229.596 1282.93 229.596 1287.89 232.694 1290.67C234.243 1292.22 236.102 1292.84 238.271 1292.84C240.13 1292.84 241.989 1292.22 243.539 1290.67Z" fill="#E8EAF5"/>
<path d="M48.3356 1485.88L0.30957 1533.9V1511.9L37.491 1474.72C40.5894 1471.62 45.547 1471.62 48.3356 1474.72C51.434 1477.82 51.434 1482.78 48.3356 1485.88Z" fill="#E8EAF5"/>
<path d="M210.384 1488.05C212.243 1488.05 214.412 1487.43 215.962 1485.88L266.157 1435.68L288.465 1457.99C291.564 1461.09 296.521 1461.09 299.31 1457.99C302.408 1454.89 302.408 1449.94 299.31 1447.15L271.424 1419.26C268.325 1416.16 263.368 1416.16 260.579 1419.26L204.807 1475.03C201.709 1478.13 201.709 1483.09 204.807 1485.88C206.356 1487.43 208.215 1488.05 210.384 1488.05Z" fill="#E8EAF5"/>
<path d="M377.701 1432.27C379.56 1432.27 381.729 1431.65 383.278 1430.1C386.377 1427.01 386.377 1422.05 383.278 1419.26L360.969 1396.95L383.278 1374.64C386.377 1371.54 386.377 1366.59 383.278 1363.8C380.18 1360.7 375.222 1360.7 372.434 1363.8L350.125 1386.11L327.816 1363.8C324.717 1360.7 319.76 1360.7 316.971 1363.8C313.873 1366.9 313.873 1371.85 316.971 1374.64L339.28 1396.95L316.971 1419.26C313.873 1422.36 313.873 1427.32 316.971 1430.1C318.521 1431.65 320.38 1432.27 322.548 1432.27C324.408 1432.27 326.576 1431.65 328.126 1430.1L350.435 1407.8L372.743 1430.1C373.673 1431.65 375.532 1432.27 377.701 1432.27Z" fill="#E8EAF5"/>
<path d="M382.969 1307.41C379.87 1304.31 374.913 1304.31 372.124 1307.41L344.238 1335.29C341.139 1338.39 341.139 1343.35 344.238 1346.14C347.336 1349.24 352.294 1349.24 355.082 1346.14L377.391 1323.83L399.7 1346.14C401.249 1347.69 403.108 1348.31 405.277 1348.31C407.136 1348.31 409.305 1347.69 410.855 1346.14L466.627 1290.36C469.725 1287.27 469.725 1282.31 466.627 1279.52L438.741 1251.63C435.642 1248.54 430.685 1248.54 427.896 1251.63C424.798 1254.73 424.798 1259.69 427.896 1262.48L450.205 1284.79L405.277 1329.71L382.969 1307.41Z" fill="#E8EAF5"/>
<path d="M466.627 1179.13L488.936 1156.82L505.977 1173.86L461.05 1218.79L438.741 1196.48C435.642 1193.38 430.685 1193.38 427.896 1196.48C424.798 1199.58 424.798 1204.54 427.896 1207.33L455.782 1235.21C457.331 1236.76 459.19 1237.38 461.359 1237.38C463.218 1237.38 465.387 1236.76 466.937 1235.21L522.709 1179.44C525.807 1176.34 525.807 1171.38 522.709 1168.6L494.823 1140.71C491.724 1137.61 486.767 1137.61 483.978 1140.71L456.092 1168.6C452.994 1171.69 452.994 1176.65 456.092 1179.44C458.881 1181.92 463.838 1181.92 466.627 1179.13Z" fill="#E8EAF5"/>
<path d="M552.764 1092.99L522.4 1123.36C520.85 1124.91 518.991 1125.53 516.822 1125.53C514.963 1125.53 512.794 1124.91 511.245 1123.36L488.936 1101.05L466.627 1123.36C463.529 1126.46 458.571 1126.46 455.783 1123.36C452.684 1120.26 452.684 1115.3 455.783 1112.51L474.993 1093.3H503.189L517.132 1107.25L531.075 1093.3H552.764V1092.99Z" fill="#E8EAF5"/>
<path d="M37.4911 1530.49L9.60509 1558.38C6.50664 1561.48 6.50664 1566.44 9.60509 1569.23C12.7035 1572.32 17.6611 1572.32 20.4497 1569.23L42.7585 1546.92L87.6861 1591.84L37.4911 1642.04C34.3927 1645.14 34.3927 1650.09 37.4911 1652.88C39.0404 1654.43 40.8995 1655.05 43.0684 1655.05C44.9274 1655.05 47.0964 1654.43 48.6456 1652.88L104.418 1597.11C107.516 1594.01 107.516 1589.06 104.418 1586.27L48.6456 1530.49C45.5471 1527.71 40.5896 1527.71 37.4911 1530.49Z" fill="#E8EAF5"/>
<path d="M48.3356 1597.42L0.30957 1645.45V1623.45L37.491 1586.27C40.5894 1583.17 45.547 1583.17 48.3356 1586.27C51.434 1589.37 51.434 1594.32 48.3356 1597.42Z" fill="#E8EAF5"/>
<path d="M620 1121.5V1143.5L612.254 1151.24C610.704 1152.79 608.845 1153.41 606.676 1153.41C604.817 1153.41 602.648 1152.79 601.099 1151.24C598.001 1148.15 598.001 1143.19 601.099 1140.4L620 1121.5Z" fill="#E8EAF5"/>
<path d="M620 1233.04V1255.04L612.254 1262.79C610.704 1264.34 608.845 1264.96 606.676 1264.96C604.817 1264.96 602.648 1264.34 601.099 1262.79C598.001 1259.69 598.001 1254.73 601.099 1251.94L620 1233.04Z" fill="#E8EAF5"/>
<path d="M620 1344.59V1366.59L612.254 1374.02C610.704 1375.57 608.845 1376.19 606.676 1376.19C604.817 1376.19 602.648 1375.57 601.099 1374.02C598.001 1370.92 598.001 1365.97 601.099 1363.18L620 1344.59Z" fill="#E8EAF5"/>
<path d="M620 1511.9V1533.9L612.254 1541.34C610.704 1542.89 608.845 1543.51 606.676 1543.51C604.817 1543.51 602.648 1542.89 601.099 1541.34C598.001 1538.24 598.001 1533.28 601.099 1530.49L620 1511.9Z" fill="#E8EAF5"/>
<path d="M607.917 1092.99C607.607 1093.92 606.987 1094.54 606.368 1095.47L550.595 1151.24C549.046 1152.79 547.187 1153.41 545.018 1153.41C543.159 1153.41 540.99 1152.79 539.441 1151.24C536.343 1148.15 536.343 1143.19 539.441 1140.4L586.538 1092.99H607.917Z" fill="#E8EAF5"/>
<path d="M271.424 1530.49C268.325 1527.4 263.368 1527.4 260.579 1530.49L210.384 1580.69L188.076 1558.38C184.977 1555.28 180.02 1555.28 177.231 1558.38L121.459 1614.15C118.36 1617.25 118.36 1622.21 121.459 1625L143.768 1647.31L126.726 1664.35L104.417 1642.04C101.319 1638.94 96.3615 1638.94 93.5729 1642.04C90.4744 1645.14 90.4744 1650.09 93.5729 1652.88L121.459 1680.77C123.008 1682.32 124.867 1682.94 127.036 1682.94C128.895 1682.94 131.064 1682.32 132.613 1680.77L160.499 1652.88C163.598 1649.78 163.598 1644.83 160.499 1642.04L138.191 1619.73L183.118 1574.8L205.427 1597.11C208.525 1600.21 213.483 1600.21 216.272 1597.11L272.044 1541.34C274.522 1538.55 274.522 1533.59 271.424 1530.49Z" fill="#E8EAF5"/>
<path d="M438.74 1586.27C435.642 1583.17 430.684 1583.17 427.895 1586.27L405.587 1608.58L383.278 1586.27C380.179 1583.17 375.222 1583.17 372.433 1586.27C369.335 1589.37 369.335 1594.32 372.433 1597.11L394.742 1619.42L372.433 1641.73C369.335 1644.83 369.335 1649.78 372.433 1652.57C373.982 1654.12 375.841 1654.74 378.01 1654.74C379.869 1654.74 382.038 1654.12 383.588 1652.57L405.896 1630.26L428.205 1652.57C429.755 1654.12 431.614 1654.74 433.783 1654.74C435.642 1654.74 437.811 1654.12 439.36 1652.57C442.458 1649.48 442.458 1644.52 439.36 1641.73L417.051 1619.42L439.36 1597.11C441.839 1594.32 441.838 1589.37 438.74 1586.27Z" fill="#E8EAF5"/>
<path d="M355.082 1625.31C358.181 1622.21 358.181 1617.25 355.082 1614.46C351.984 1611.36 347.026 1611.36 344.238 1614.46L321.929 1636.77L304.888 1619.73L382.968 1541.65C386.067 1538.55 386.067 1533.59 382.968 1530.8L355.082 1502.92C351.984 1499.82 347.026 1499.82 344.238 1502.92L260.58 1586.58C257.481 1589.68 257.481 1594.63 260.58 1597.42C263.678 1600.52 268.636 1600.52 271.424 1597.42L349.505 1519.34L366.547 1536.38L288.466 1614.15C285.367 1617.25 285.367 1622.21 288.466 1625L310.775 1647.31L288.466 1669.62C285.367 1672.71 285.367 1677.67 288.466 1680.46C290.015 1682.01 291.874 1682.63 294.043 1682.63C295.902 1682.63 298.071 1682.01 299.62 1680.46L327.506 1652.57L355.082 1625.31Z" fill="#E8EAF5"/>
<path d="M489.245 1264.96C491.105 1264.96 493.273 1264.34 494.823 1262.79L522.709 1234.9C525.807 1231.8 525.807 1226.85 522.709 1224.06C519.61 1220.96 514.653 1220.96 511.864 1224.06L483.978 1251.94C480.88 1255.04 480.88 1260 483.978 1262.79C485.218 1264.34 487.077 1264.96 489.245 1264.96Z" fill="#E8EAF5"/>
<path d="M606.058 1195.86L578.172 1167.98C575.073 1164.88 570.116 1164.88 567.327 1167.98L539.441 1195.86C536.343 1198.96 536.343 1203.92 539.441 1206.71C542.539 1209.81 547.497 1209.81 550.286 1206.71L572.594 1184.4L589.636 1201.44L539.441 1251.63C536.343 1254.73 536.343 1259.69 539.441 1262.48C540.99 1264.03 542.849 1264.65 545.018 1264.65C546.877 1264.65 549.046 1264.03 550.595 1262.48L606.368 1206.71C609.156 1203.92 609.156 1198.96 606.058 1195.86Z" fill="#E8EAF5"/>
<path d="M578.171 1279.52C575.073 1276.42 570.115 1276.42 567.327 1279.52L517.132 1329.71L500.09 1312.67L522.399 1290.36C525.498 1287.27 525.498 1282.31 522.399 1279.52C519.301 1276.42 514.343 1276.42 511.555 1279.52L483.669 1307.41C480.57 1310.5 480.57 1315.46 483.669 1318.25L511.555 1346.14C513.104 1347.69 514.963 1348.31 517.132 1348.31C518.991 1348.31 521.16 1347.69 522.709 1346.14L578.481 1290.36C581.27 1287.58 581.27 1282.62 578.171 1279.52Z" fill="#E8EAF5"/>
<path d="M522.398 1391.06C519.3 1387.97 514.342 1387.97 511.554 1391.06L489.245 1413.37L466.936 1391.06C463.838 1387.97 458.88 1387.97 456.091 1391.06C452.993 1394.16 452.993 1399.12 456.091 1401.91L478.4 1424.22L456.091 1446.53C452.993 1449.63 452.993 1454.58 456.091 1457.37C457.641 1458.92 459.5 1459.54 461.669 1459.54C463.528 1459.54 465.697 1458.92 467.246 1457.37L489.555 1435.06L511.864 1457.37C513.413 1458.92 515.272 1459.54 517.441 1459.54C519.3 1459.54 521.469 1458.92 523.018 1457.37C526.116 1454.27 526.116 1449.32 523.018 1446.53L500.709 1424.22L523.018 1401.91C525.497 1399.12 525.497 1394.16 522.398 1391.06Z" fill="#E8EAF5"/>
<path d="M606.058 1307.41C602.959 1304.31 598.002 1304.31 595.213 1307.41L539.441 1363.18C536.343 1366.28 536.343 1371.23 539.441 1374.02C540.99 1375.57 542.849 1376.19 545.018 1376.19C546.877 1376.19 549.046 1375.57 550.595 1374.02L606.368 1318.25C609.156 1315.46 609.156 1310.5 606.058 1307.41Z" fill="#E8EAF5"/>
<path d="M606.058 1418.95L578.172 1391.06C575.073 1387.97 570.116 1387.97 567.327 1391.06L539.441 1418.95C536.343 1422.05 536.343 1427.01 539.441 1429.79C542.539 1432.89 547.497 1432.89 550.286 1429.79L572.594 1407.49L589.636 1424.53L539.441 1474.72C536.343 1477.82 536.343 1482.78 539.441 1485.57C540.99 1487.12 542.849 1487.74 545.018 1487.74C546.877 1487.74 549.046 1487.12 550.595 1485.57L606.368 1429.79C609.156 1427.01 609.156 1422.05 606.058 1418.95Z" fill="#E8EAF5"/>
<path d="M427.896 1474.72C424.798 1477.82 424.798 1482.78 427.896 1485.57L455.782 1513.45C457.331 1515 459.19 1515.62 461.359 1515.62C463.218 1515.62 465.387 1515 466.937 1513.45L494.823 1485.57C497.921 1482.47 497.921 1477.51 494.823 1474.72C491.724 1471.62 486.767 1471.62 483.978 1474.72L461.669 1497.03L439.36 1474.72C435.952 1471.93 430.995 1471.93 427.896 1474.72Z" fill="#E8EAF5"/>
<path d="M522.399 1502.61C519.3 1499.51 514.343 1499.51 511.554 1502.61L461.359 1552.8L439.051 1530.49C435.952 1527.4 430.995 1527.4 428.206 1530.49L400.32 1558.38C397.221 1561.48 397.221 1566.44 400.32 1569.23C403.418 1572.32 408.376 1572.32 411.165 1569.23L433.473 1546.92L455.782 1569.23C457.331 1570.77 459.19 1571.39 461.359 1571.39C463.218 1571.39 465.387 1570.77 466.937 1569.23L522.709 1513.45C525.497 1510.66 525.497 1505.71 522.399 1502.61Z" fill="#E8EAF5"/>
<path d="M606.058 1474.72C602.959 1471.62 598.002 1471.62 595.213 1474.72L539.441 1530.49C536.343 1533.59 536.343 1538.55 539.441 1541.34L561.75 1563.65L539.441 1585.96C536.343 1589.06 536.343 1594.01 539.441 1596.8L567.327 1624.69C568.876 1626.24 570.735 1626.86 572.904 1626.86C574.763 1626.86 576.932 1626.24 578.482 1624.69L606.368 1596.8C609.466 1593.7 609.466 1588.75 606.368 1585.96C603.269 1582.86 598.312 1582.86 595.523 1585.96L573.214 1608.27L556.173 1591.22L578.482 1568.92C581.58 1565.82 581.58 1560.86 578.482 1558.07L556.173 1535.76L606.368 1485.57C609.156 1482.78 609.156 1477.82 606.058 1474.72Z" fill="#E8EAF5"/>
<path d="M511.555 1558.38L455.783 1614.15C452.684 1617.25 452.684 1622.21 455.783 1625C457.332 1626.55 459.191 1627.17 461.36 1627.17C463.219 1627.17 465.388 1626.55 466.937 1625L522.709 1569.23C525.808 1566.13 525.808 1561.17 522.709 1558.38C519.611 1555.59 514.653 1555.59 511.555 1558.38Z" fill="#E8EAF5"/>
<path d="M299.31 1513.76L355.083 1457.99C358.181 1454.89 358.181 1449.94 355.083 1447.15C351.984 1444.05 347.027 1444.05 344.238 1447.15L294.043 1497.34L271.734 1475.03C268.636 1471.93 263.678 1471.93 260.89 1475.03L210.695 1525.23L188.386 1502.92C185.288 1499.82 180.33 1499.82 177.541 1502.92L127.346 1553.11L105.038 1530.8C101.939 1527.71 96.9816 1527.71 94.193 1530.8C91.0945 1533.9 91.0945 1538.86 94.193 1541.65L122.079 1569.54C123.628 1571.08 125.487 1571.7 127.656 1571.7C129.515 1571.7 131.684 1571.08 133.233 1569.54L183.428 1519.34L205.737 1541.65C208.836 1544.75 213.793 1544.75 216.582 1541.65L266.777 1491.45L289.086 1513.76C291.564 1516.55 296.522 1516.55 299.31 1513.76Z" fill="#E8EAF5"/>
<path d="M400.011 1513.76C401.56 1515.31 403.419 1515.93 405.588 1515.93C407.447 1515.93 409.616 1515.31 411.165 1513.76C414.264 1510.66 414.264 1505.71 411.165 1502.92L388.856 1480.61L439.051 1430.41C442.15 1427.32 442.15 1422.36 439.051 1419.57L416.742 1397.26L461.67 1352.33L483.979 1374.64C487.077 1377.74 492.035 1377.74 494.823 1374.64C497.922 1371.54 497.922 1366.59 494.823 1363.8L466.937 1335.91C463.839 1332.81 458.881 1332.81 456.093 1335.91L400.321 1391.68C397.222 1394.78 397.222 1399.74 400.321 1402.53L422.629 1424.84L372.125 1474.72C369.026 1477.82 369.026 1482.78 372.125 1485.57L400.011 1513.76Z" fill="#E8EAF5"/>
</g>
</g>
</svg>
