<svg width="1600" height="1600" viewBox="0 0 1600 1600" fill="none" xmlns="http://www.w3.org/2000/svg">
<g clip-path="url(#clip0_123:177)">
<circle cx="800" cy="800" r="800" fill="#EFF0F6"/>
<g opacity="0.85">
<g opacity="0.5">
<path d="M74.8143 473.148L24.3096 523.653V501.654L52.8153 473.148H74.8143Z" fill="#E8EAF5"/>
<path d="M72.3356 587.171L24.3096 635.197V613.198L55.9138 581.594L33.6049 559.285C30.5065 556.187 30.5065 551.229 33.6049 548.441C36.7034 545.342 41.6609 545.342 44.4495 548.441L72.3356 576.327C75.434 579.115 75.434 584.073 72.3356 587.171Z" fill="#E8EAF5"/>
<path d="M186.359 473.148L128.108 531.399C126.559 532.948 124.7 533.568 122.531 533.568C120.672 533.568 118.503 532.948 116.954 531.399L94.6453 509.09L72.3364 531.399C69.2379 534.498 64.2804 534.498 61.4918 531.399C58.3934 528.301 58.3934 523.343 61.4918 520.555L89.3779 492.669C92.4763 489.57 97.4338 489.57 100.222 492.669L122.531 514.977L164.36 473.148H186.359Z" fill="#E8EAF5"/>
<path d="M89.3776 615.057C90.9268 616.607 92.7859 617.226 94.9548 617.226C96.8139 617.226 98.9828 616.607 100.532 615.057L122.841 592.749L145.15 615.057C146.699 616.607 148.558 617.226 150.727 617.226C152.586 617.226 154.755 616.607 156.304 615.057C159.403 611.959 159.403 607.001 156.304 604.213L133.995 581.904L156.304 559.595C159.403 556.497 159.403 551.539 156.304 548.751C153.206 545.652 148.248 545.652 145.46 548.751L123.151 571.059L100.842 548.751C97.7435 545.652 92.786 545.652 89.9974 548.751C86.8989 551.849 86.8989 556.807 89.9974 559.595L112.306 581.904L89.9974 604.213C86.2792 607.001 86.2792 611.959 89.3776 615.057Z" fill="#E8EAF5"/>
<path d="M72.3356 687.561C75.434 690.66 75.434 695.617 72.3356 698.406L24.3096 746.742V724.743L55.9138 693.139L33.6049 670.83C30.5065 667.731 30.5065 662.774 33.6049 659.985L61.491 632.099C64.5894 629.001 69.547 629.001 72.3356 632.099C75.434 635.197 75.434 640.155 72.3356 642.944L50.0267 665.252L72.3356 687.561Z" fill="#E8EAF5"/>
<path d="M89.3773 670.83C90.9265 672.379 92.7856 672.999 94.9545 672.999C96.8135 672.999 98.9825 672.379 100.532 670.83L128.418 642.944C131.516 639.845 131.516 634.888 128.418 632.099C125.319 629.001 120.362 629.001 117.573 632.099L89.6872 659.985C86.2789 662.774 86.2789 667.731 89.3773 670.83Z" fill="#E8EAF5"/>
<path d="M211.766 548.131C214.864 551.229 214.864 556.187 211.766 558.975L183.88 586.861C182.33 588.411 180.471 589.03 178.302 589.03C176.443 589.03 174.274 588.411 172.725 586.861C169.627 583.763 169.627 578.805 172.725 576.017L195.034 553.708L172.725 531.399C169.627 528.301 169.627 523.343 172.725 520.555L220.132 473.148H242.13L189.457 525.822L211.766 548.131Z" fill="#E8EAF5"/>
<path d="M239.652 531.399L267.538 503.513C270.636 500.415 270.636 495.457 267.538 492.669C264.439 489.57 259.482 489.57 256.693 492.669L228.807 520.555C225.709 523.653 225.709 528.611 228.807 531.399C230.356 532.948 232.215 533.568 234.384 533.568C236.243 533.568 238.103 532.948 239.652 531.399Z" fill="#E8EAF5"/>
<path d="M312.466 615.057C314.015 616.607 315.874 617.226 318.043 617.226C319.902 617.226 322.071 616.607 323.62 615.057L345.929 592.749L368.238 615.057C369.787 616.607 371.646 617.226 373.815 617.226C375.674 617.226 377.843 616.607 379.392 615.057C382.491 611.959 382.491 607.001 379.392 604.213L357.083 581.904L379.392 559.595C382.491 556.497 382.491 551.539 379.392 548.751C376.294 545.652 371.336 545.652 368.547 548.751L346.239 571.059L323.93 548.751C320.831 545.652 315.874 545.652 313.085 548.751C309.987 551.849 309.987 556.807 313.085 559.595L335.394 581.904L313.085 604.213C309.367 607.001 309.367 611.959 312.466 615.057Z" fill="#E8EAF5"/>
<path d="M89.3776 893.918C90.9268 895.467 92.7859 896.087 94.9548 896.087C96.8139 896.087 98.9828 895.467 100.532 893.918L122.841 871.609L145.15 893.918C146.699 895.467 148.558 896.087 150.727 896.087C152.586 896.087 154.755 895.467 156.304 893.918C159.403 890.819 159.403 885.862 156.304 883.073L133.995 860.764L156.304 838.455C159.403 835.357 159.403 830.399 156.304 827.611C153.206 824.512 148.248 824.512 145.46 827.611L123.151 849.92L100.842 827.611C97.7435 824.512 92.786 824.512 89.9974 827.611C86.8989 830.709 86.8989 835.667 89.9974 838.455L112.306 860.764L89.9974 883.073C86.2792 885.862 86.2792 890.819 89.3776 893.918Z" fill="#E8EAF5"/>
<path d="M33.6058 782.374C35.155 783.923 37.0141 784.543 39.183 784.543C41.0421 784.543 43.211 783.923 44.7603 782.374L94.9551 732.179L117.264 754.488C118.813 756.037 120.672 756.656 122.841 756.656C124.7 756.656 126.869 756.037 128.418 754.488C131.517 751.389 131.517 746.432 128.418 743.643L106.11 721.334L156.304 671.139C159.403 668.041 159.403 663.083 156.304 660.295C153.206 657.196 148.249 657.196 145.46 660.295L33.9157 771.839C30.5074 774.318 30.5074 779.275 33.6058 782.374Z" fill="#E8EAF5"/>
<path d="M33.6051 838.146C35.1543 839.695 37.0134 840.315 39.1823 840.315C41.0414 840.315 43.2103 839.695 44.7595 838.146L94.9544 787.951L117.263 810.26C120.362 813.358 125.319 813.358 128.108 810.26L183.88 754.488C186.978 751.389 186.978 746.432 183.88 743.643L161.571 721.334L183.88 699.025C186.978 695.927 186.978 690.969 183.88 688.181C180.782 685.082 175.824 685.082 173.035 688.181L145.149 716.067C142.051 719.165 142.051 724.123 145.149 726.912L167.458 749.22L122.531 794.148L100.222 771.839C97.1233 768.741 92.1658 768.741 89.3772 771.839L33.6051 827.611C30.5066 830.09 30.5066 835.047 33.6051 838.146Z" fill="#E8EAF5"/>
<path d="M173.036 631.789C169.937 634.887 169.937 639.845 173.036 642.634L200.922 670.52C202.471 672.069 204.33 672.689 206.499 672.689C208.358 672.689 210.527 672.069 212.076 670.52C215.175 667.421 215.175 662.464 212.076 659.675L184.19 631.789C181.092 629 176.134 629 173.036 631.789Z" fill="#E8EAF5"/>
<path d="M200.921 615.057C204.02 618.156 208.977 618.156 211.766 615.057L261.961 564.862L279.002 581.904L228.807 631.789C225.709 634.887 225.709 639.845 228.807 642.633C230.357 644.183 232.216 644.802 234.384 644.802C236.244 644.802 238.413 644.183 239.962 642.633L295.734 586.861C298.832 583.763 298.832 578.805 295.734 576.017L267.848 548.131C264.749 545.032 259.792 545.032 257.003 548.131L201.231 603.903C197.823 607.001 197.823 611.959 200.921 615.057Z" fill="#E8EAF5"/>
<path d="M295.424 531.399L317.733 509.09L340.042 531.399C341.591 532.948 343.45 533.568 345.619 533.568C347.478 533.568 349.647 532.948 351.196 531.399C354.295 528.301 354.295 523.343 351.196 520.555L323.31 492.669C320.212 489.57 315.254 489.57 312.466 492.669L284.58 520.555C281.481 523.653 281.481 528.611 284.58 531.399C287.678 534.188 292.636 534.188 295.424 531.399Z" fill="#E8EAF5"/>
<path d="M409.448 473.148L379.083 503.513C377.534 505.062 375.675 505.682 373.506 505.682C371.647 505.682 369.478 505.062 367.928 503.513C364.83 500.415 364.83 495.457 367.928 492.669L387.139 473.458H409.448V473.148Z" fill="#E8EAF5"/>
<path d="M401.701 533.568C403.56 533.568 405.729 532.948 407.278 531.399L435.164 503.513C438.262 500.415 438.262 495.457 435.164 492.669C432.065 489.57 427.108 489.57 424.319 492.669L396.433 520.555C393.335 523.653 393.335 528.611 396.433 531.399C397.673 532.948 399.532 533.568 401.701 533.568Z" fill="#E8EAF5"/>
<path d="M239.653 687.561C236.555 684.462 231.597 684.462 228.809 687.561L200.922 715.447C197.824 718.545 197.824 723.503 200.922 726.292C204.021 729.39 208.978 729.39 211.767 726.292L234.076 703.983L256.385 726.292C257.934 727.841 259.793 728.46 261.962 728.46C263.821 728.46 265.99 727.841 267.539 726.292L351.197 642.633C354.296 639.535 354.296 634.577 351.197 631.789C348.099 628.69 343.141 628.69 340.353 631.789L262.272 709.87L239.653 687.561Z" fill="#E8EAF5"/>
<path d="M173.036 866.032C174.585 867.581 176.444 868.201 178.613 868.201C180.472 868.201 182.641 867.581 184.19 866.032L267.848 782.374C270.947 779.275 270.947 774.318 267.848 771.529L239.962 743.643C236.864 740.545 231.906 740.545 229.118 743.643L173.346 799.415C170.247 802.514 170.247 807.471 173.346 810.26C176.444 813.358 181.402 813.358 184.19 810.26L234.385 760.065L251.427 777.106L173.036 854.878C169.937 857.976 169.937 862.934 173.036 866.032Z" fill="#E8EAF5"/>
<path d="M323.31 715.447C320.212 712.349 315.254 712.349 312.466 715.447L284.58 743.333C281.481 746.432 281.481 751.389 284.58 754.178L312.466 782.064C314.015 783.613 315.874 784.233 318.043 784.233C319.902 784.233 322.071 783.613 323.62 782.064C326.719 778.965 326.719 774.008 323.62 771.219L301.311 748.91L323.62 726.601C326.409 723.503 326.409 718.545 323.31 715.447Z" fill="#E8EAF5"/>
<path d="M396.124 587.171L418.433 609.48L340.352 687.561C337.254 690.66 337.254 695.617 340.352 698.406C341.901 699.955 343.76 700.575 345.929 700.575C347.788 700.575 349.957 699.955 351.507 698.406L401.701 648.211L424.01 670.52C425.56 672.069 427.419 672.689 429.587 672.689C431.447 672.689 433.616 672.069 435.165 670.52C438.263 667.421 438.263 662.464 435.165 659.675L412.856 637.366L435.165 615.058C438.263 611.959 438.263 607.002 435.165 604.213L412.856 581.904L463.051 531.709C466.149 528.611 466.149 523.653 463.051 520.865C459.952 517.766 454.995 517.766 452.206 520.865L396.434 576.637C393.026 579.115 393.026 584.073 396.124 587.171Z" fill="#E8EAF5"/>
<path d="M267.539 670.83L295.425 642.944C298.523 639.845 298.523 634.888 295.425 632.099C292.326 629.001 287.369 629.001 284.58 632.099L256.694 659.985C253.596 663.084 253.596 668.041 256.694 670.83C258.243 672.379 260.102 672.999 262.271 672.999C264.13 672.999 265.989 672.379 267.539 670.83Z" fill="#E8EAF5"/>
<path d="M72.3356 866.032L24.3096 914.058V892.059L61.491 854.877C64.5894 851.779 69.547 851.779 72.3356 854.877C75.434 857.976 75.434 862.933 72.3356 866.032Z" fill="#E8EAF5"/>
<path d="M234.384 868.201C236.243 868.201 238.412 867.581 239.962 866.032L290.157 815.837L312.465 838.146C315.564 841.244 320.521 841.244 323.31 838.146C326.408 835.047 326.408 830.09 323.31 827.301L295.424 799.415C292.325 796.317 287.368 796.317 284.579 799.415L228.807 855.187C225.709 858.286 225.709 863.243 228.807 866.032C230.356 867.581 232.215 868.201 234.384 868.201Z" fill="#E8EAF5"/>
<path d="M401.701 812.429C403.56 812.429 405.729 811.809 407.278 810.26C410.377 807.161 410.377 802.204 407.278 799.415L384.969 777.106L407.278 754.798C410.377 751.699 410.377 746.742 407.278 743.953C404.18 740.855 399.222 740.855 396.434 743.953L374.125 766.262L351.816 743.953C348.717 740.855 343.76 740.855 340.971 743.953C337.873 747.051 337.873 752.009 340.971 754.798L363.28 777.106L340.971 799.415C337.873 802.514 337.873 807.471 340.971 810.26C342.521 811.809 344.38 812.429 346.548 812.429C348.408 812.429 350.576 811.809 352.126 810.26L374.435 787.951L396.743 810.26C397.673 811.809 399.532 812.429 401.701 812.429Z" fill="#E8EAF5"/>
<path d="M406.969 687.561C403.87 684.462 398.913 684.462 396.124 687.561L368.238 715.447C365.139 718.545 365.139 723.503 368.238 726.292C371.336 729.39 376.294 729.39 379.082 726.292L401.391 703.983L423.7 726.292C425.249 727.841 427.108 728.46 429.277 728.46C431.136 728.46 433.305 727.841 434.855 726.292L490.627 670.519C493.725 667.421 493.725 662.463 490.627 659.675L462.741 631.789C459.642 628.69 454.685 628.69 451.896 631.789C448.798 634.887 448.798 639.845 451.896 642.633L474.205 664.942L429.277 709.87L406.969 687.561Z" fill="#E8EAF5"/>
<path d="M490.627 559.285L512.936 536.977L529.977 554.018L485.05 598.946L462.741 576.637C459.642 573.538 454.685 573.538 451.896 576.637C448.798 579.735 448.798 584.693 451.896 587.481L479.782 615.367C481.331 616.917 483.19 617.536 485.359 617.536C487.218 617.536 489.387 616.917 490.937 615.367L546.709 559.595C549.807 556.497 549.807 551.539 546.709 548.751L518.823 520.865C515.724 517.766 510.767 517.766 507.978 520.865L480.092 548.751C476.994 551.849 476.994 556.807 480.092 559.595C482.881 562.074 487.838 562.074 490.627 559.285Z" fill="#E8EAF5"/>
<path d="M576.764 473.148L546.4 503.513C544.85 505.062 542.991 505.682 540.822 505.682C538.963 505.682 536.794 505.062 535.245 503.513L512.936 481.204L490.627 503.513C487.529 506.612 482.571 506.612 479.783 503.513C476.684 500.415 476.684 495.457 479.783 492.669L498.993 473.458H527.189L541.132 487.401L555.075 473.458H576.764V473.148Z" fill="#E8EAF5"/>
<path d="M100.223 1067.43L74.8154 1092.84H52.8164L89.3781 1056.28C92.4766 1053.18 97.4341 1053.18 100.223 1056.28C103.321 1059.38 103.321 1064.33 100.223 1067.43Z" fill="#E8EAF5"/>
<path d="M211.767 1067.43L186.359 1092.84H164.36L200.922 1056.28C204.02 1053.18 208.978 1053.18 211.767 1056.28C214.865 1059.38 214.865 1064.33 211.767 1067.43Z" fill="#E8EAF5"/>
<path d="M434.855 1067.43L409.448 1092.84H387.449L393.646 1086.64L373.506 1066.5L351.197 1088.81C348.098 1091.91 343.141 1091.91 340.352 1088.81C337.254 1085.71 337.254 1080.75 340.352 1077.97L368.238 1050.08C371.337 1046.98 376.294 1046.98 379.083 1050.08L404.49 1075.49L423.7 1056.28C426.799 1053.18 431.756 1053.18 434.545 1056.28C437.953 1059.38 437.953 1064.33 434.855 1067.43Z" fill="#E8EAF5"/>
<path d="M518.513 1084.16L527.189 1092.84H498.993L507.669 1084.16C510.767 1081.37 515.725 1081.37 518.513 1084.16Z" fill="#E8EAF5"/>
<path d="M602.171 1067.43L576.764 1092.84H554.765L591.326 1056.28C594.425 1053.18 599.382 1053.18 602.171 1056.28C605.269 1059.38 605.269 1064.33 602.171 1067.43Z" fill="#E8EAF5"/>
<path d="M61.4911 910.65L33.6051 938.536C30.5066 941.634 30.5066 946.592 33.6051 949.38C36.7035 952.479 41.6611 952.479 44.4497 949.38L66.7585 927.071L111.686 971.999L61.4911 1022.19C58.3927 1025.29 58.3927 1030.25 61.4911 1033.04C63.0404 1034.59 64.8995 1035.21 67.0684 1035.21C68.9274 1035.21 71.0964 1034.59 72.6456 1033.04L128.418 977.266C131.516 974.168 131.516 969.21 128.418 966.422L72.6456 910.65C69.5471 907.861 64.5896 907.861 61.4911 910.65Z" fill="#E8EAF5"/>
<path d="M72.3356 977.576L24.3096 1025.6V1003.6L61.491 966.421C64.5894 963.323 69.547 963.323 72.3356 966.421C75.434 969.52 75.434 974.477 72.3356 977.576Z" fill="#E8EAF5"/>
<path d="M44.4498 1061.23L24 1081.68V1059.69L33.2954 1050.39C36.3938 1047.29 41.3513 1047.29 44.1399 1050.39C47.5482 1053.18 47.5482 1058.14 44.4498 1061.23Z" fill="#E8EAF5"/>
<path d="M644 501.654V523.653L636.254 531.399C634.704 532.948 632.845 533.568 630.676 533.568C628.817 533.568 626.648 532.948 625.099 531.399C622.001 528.3 622.001 523.343 625.099 520.554L644 501.654Z" fill="#E8EAF5"/>
<path d="M644 613.198V635.197L636.254 642.943C634.704 644.492 632.845 645.112 630.676 645.112C628.817 645.112 626.648 644.492 625.099 642.943C622.001 639.845 622.001 634.887 625.099 632.099L644 613.198Z" fill="#E8EAF5"/>
<path d="M644 724.742V746.741L636.254 754.177C634.704 755.727 632.845 756.346 630.676 756.346C628.817 756.346 626.648 755.727 625.099 754.177C622.001 751.079 622.001 746.121 625.099 743.333L644 724.742Z" fill="#E8EAF5"/>
<path d="M644 892.059V914.058L636.254 921.494C634.704 923.043 632.845 923.663 630.676 923.663C628.817 923.663 626.648 923.043 625.099 921.494C622.001 918.395 622.001 913.438 625.099 910.649L644 892.059Z" fill="#E8EAF5"/>
<path d="M644 1003.6V1025.6L636.254 1033.04C634.704 1034.59 632.845 1035.21 630.676 1035.21C628.817 1035.21 626.648 1034.59 625.099 1033.04C622.001 1029.94 622.001 1024.98 625.099 1022.19L644 1003.6Z" fill="#E8EAF5"/>
<path d="M644 1059.37V1081.37L632.536 1092.84H610.537L644 1059.37Z" fill="#E8EAF5"/>
<path d="M631.917 473.148C631.607 474.078 630.987 474.698 630.368 475.627L574.595 531.399C573.046 532.948 571.187 533.568 569.018 533.568C567.159 533.568 564.99 532.948 563.441 531.399C560.343 528.301 560.343 523.343 563.441 520.555L610.538 473.148H631.917Z" fill="#E8EAF5"/>
<path d="M295.424 910.649C292.325 907.551 287.368 907.551 284.579 910.649L234.384 960.844L212.076 938.535C208.977 935.437 204.02 935.437 201.231 938.535L145.459 994.307C142.36 997.406 142.36 1002.36 145.459 1005.15L167.768 1027.46L150.726 1044.5L128.417 1022.19C125.319 1019.1 120.361 1019.1 117.573 1022.19C114.474 1025.29 114.474 1030.25 117.573 1033.04L145.459 1060.92C147.008 1062.47 148.867 1063.09 151.036 1063.09C152.895 1063.09 155.064 1062.47 156.613 1060.92L184.499 1033.04C187.598 1029.94 187.598 1024.98 184.499 1022.19L162.191 999.885L207.118 954.957L229.427 977.266C232.525 980.364 237.483 980.364 240.272 977.266L296.044 921.494C298.522 918.705 298.522 913.748 295.424 910.649Z" fill="#E8EAF5"/>
<path d="M234.384 1016.93L212.076 994.618C208.977 991.519 204.02 991.519 201.231 994.618C198.133 997.716 198.133 1002.67 201.231 1005.46L229.117 1033.35C232.216 1036.45 237.173 1036.45 239.962 1033.35L262.27 1011.04L284.579 1033.35C286.129 1034.9 287.988 1035.52 290.157 1035.52C292.016 1035.52 294.185 1034.9 295.734 1033.35C298.832 1030.25 298.832 1025.29 295.734 1022.5L267.848 994.618C264.749 991.519 259.792 991.519 257.003 994.618L234.384 1016.93Z" fill="#E8EAF5"/>
<path d="M462.74 966.421C459.642 963.323 454.684 963.323 451.895 966.421L429.587 988.73L407.278 966.421C404.179 963.323 399.222 963.323 396.433 966.421C393.335 969.52 393.335 974.477 396.433 977.266L418.742 999.575L396.433 1021.88C393.335 1024.98 393.335 1029.94 396.433 1032.73C397.982 1034.28 399.841 1034.9 402.01 1034.9C403.869 1034.9 406.038 1034.28 407.588 1032.73L429.896 1010.42L452.205 1032.73C453.755 1034.28 455.614 1034.9 457.783 1034.9C459.642 1034.9 461.811 1034.28 463.36 1032.73C466.458 1029.63 466.458 1024.67 463.36 1021.88L441.051 999.575L463.36 977.266C465.839 974.477 465.838 969.52 462.74 966.421Z" fill="#E8EAF5"/>
<path d="M379.082 1005.46C382.181 1002.36 382.181 997.406 379.082 994.618C375.984 991.519 371.026 991.519 368.238 994.618L345.929 1016.93L328.888 999.885L406.968 921.804C410.067 918.706 410.067 913.748 406.968 910.959L379.082 883.073C375.984 879.975 371.026 879.975 368.238 883.073L284.58 966.732C281.481 969.83 281.481 974.787 284.58 977.576C287.678 980.675 292.636 980.675 295.424 977.576L373.505 899.495L390.547 916.537L312.466 994.308C309.367 997.406 309.367 1002.36 312.466 1005.15L334.775 1027.46L312.466 1049.77C309.367 1052.87 309.367 1057.83 312.466 1060.61C314.015 1062.16 315.874 1062.78 318.043 1062.78C319.902 1062.78 322.071 1062.16 323.62 1060.61L351.506 1032.73L379.082 1005.46Z" fill="#E8EAF5"/>
<path d="M513.245 645.112C515.105 645.112 517.273 644.493 518.823 642.944L546.709 615.058C549.807 611.959 549.807 607.002 546.709 604.213C543.61 601.114 538.653 601.114 535.864 604.213L507.978 632.099C504.88 635.197 504.88 640.155 507.978 642.944C509.218 644.493 511.077 645.112 513.245 645.112Z" fill="#E8EAF5"/>
<path d="M630.058 576.017L602.172 548.131C599.073 545.032 594.116 545.032 591.327 548.131L563.441 576.017C560.343 579.115 560.343 584.073 563.441 586.861C566.539 589.96 571.497 589.96 574.286 586.861L596.594 564.552L613.636 581.594L563.441 631.789C560.343 634.887 560.343 639.845 563.441 642.633C564.99 644.183 566.849 644.802 569.018 644.802C570.877 644.802 573.046 644.183 574.595 642.633L630.368 586.861C633.156 584.073 633.156 579.115 630.058 576.017Z" fill="#E8EAF5"/>
<path d="M602.171 659.675C599.073 656.576 594.115 656.576 591.327 659.675L541.132 709.87L524.09 692.828L546.399 670.519C549.498 667.421 549.498 662.464 546.399 659.675C543.301 656.576 538.343 656.576 535.555 659.675L507.669 687.561C504.57 690.659 504.57 695.617 507.669 698.406L535.555 726.292C537.104 727.841 538.963 728.461 541.132 728.461C542.991 728.461 545.16 727.841 546.709 726.292L602.481 670.519C605.27 667.731 605.27 662.773 602.171 659.675Z" fill="#E8EAF5"/>
<path d="M546.398 771.219C543.3 768.121 538.342 768.121 535.554 771.219L513.245 793.528L490.936 771.219C487.838 768.121 482.88 768.121 480.091 771.219C476.993 774.318 476.993 779.275 480.091 782.064L502.4 804.373L480.091 826.681C476.993 829.78 476.993 834.737 480.091 837.526C481.641 839.075 483.5 839.695 485.669 839.695C487.528 839.695 489.697 839.075 491.246 837.526L513.555 815.217L535.864 837.526C537.413 839.075 539.272 839.695 541.441 839.695C543.3 839.695 545.469 839.075 547.018 837.526C550.116 834.427 550.116 829.47 547.018 826.681L524.709 804.373L547.018 782.064C549.497 779.275 549.497 774.318 546.398 771.219Z" fill="#E8EAF5"/>
<path d="M630.058 687.561C626.959 684.462 622.002 684.462 619.213 687.561L563.441 743.333C560.343 746.431 560.343 751.389 563.441 754.177C564.99 755.727 566.849 756.346 569.018 756.346C570.877 756.346 573.046 755.727 574.595 754.177L630.368 698.405C633.156 695.617 633.156 690.659 630.058 687.561Z" fill="#E8EAF5"/>
<path d="M630.058 799.105L602.172 771.219C599.073 768.121 594.116 768.121 591.327 771.219L563.441 799.105C560.343 802.204 560.343 807.161 563.441 809.95C566.539 813.048 571.497 813.048 574.286 809.95L596.594 787.641L613.636 804.682L563.441 854.877C560.343 857.976 560.343 862.933 563.441 865.722C564.99 867.271 566.849 867.891 569.018 867.891C570.877 867.891 573.046 867.271 574.595 865.722L630.368 809.95C633.156 807.161 633.156 802.204 630.058 799.105Z" fill="#E8EAF5"/>
<path d="M451.896 854.877C448.798 857.976 448.798 862.933 451.896 865.722L479.782 893.608C481.331 895.157 483.19 895.777 485.359 895.777C487.218 895.777 489.387 895.157 490.937 893.608L518.823 865.722C521.921 862.623 521.921 857.666 518.823 854.877C515.724 851.779 510.767 851.779 507.978 854.877L485.669 877.186L463.36 854.877C459.952 852.089 454.995 852.089 451.896 854.877Z" fill="#E8EAF5"/>
<path d="M546.399 882.763C543.3 879.665 538.343 879.665 535.554 882.763L485.359 932.958L463.051 910.649C459.952 907.551 454.995 907.551 452.206 910.649L424.32 938.535C421.221 941.634 421.221 946.591 424.32 949.38C427.418 952.478 432.376 952.478 435.165 949.38L457.473 927.071L479.782 949.38C481.331 950.929 483.19 951.549 485.359 951.549C487.218 951.549 489.387 950.929 490.937 949.38L546.709 893.608C549.497 890.819 549.497 885.862 546.399 882.763Z" fill="#E8EAF5"/>
<path d="M630.058 854.877C626.959 851.779 622.002 851.779 619.213 854.877L563.441 910.649C560.343 913.748 560.343 918.705 563.441 921.494L585.75 943.803L563.441 966.112C560.343 969.21 560.343 974.168 563.441 976.956L591.327 1004.84C592.876 1006.39 594.735 1007.01 596.904 1007.01C598.763 1007.01 600.932 1006.39 602.482 1004.84L630.368 976.956C633.466 973.858 633.466 968.9 630.368 966.112C627.269 963.013 622.312 963.013 619.523 966.112L597.214 988.42L580.173 971.379L602.482 949.07C605.58 945.972 605.58 941.014 602.482 938.226L580.173 915.917L630.368 865.722C633.156 862.933 633.156 857.976 630.058 854.877Z" fill="#E8EAF5"/>
<path d="M535.555 938.536L479.783 994.308C476.684 997.406 476.684 1002.36 479.783 1005.15C481.332 1006.7 483.191 1007.32 485.36 1007.32C487.219 1007.32 489.388 1006.7 490.937 1005.15L546.709 949.38C549.808 946.282 549.808 941.324 546.709 938.536C543.611 935.747 538.653 935.747 535.555 938.536Z" fill="#E8EAF5"/>
<path d="M535.554 1061.23C538.653 1064.33 543.61 1064.33 546.399 1061.23L574.285 1033.35C577.383 1030.25 577.383 1025.29 574.285 1022.5L546.399 994.618C543.3 991.519 538.343 991.519 535.554 994.618C532.456 997.716 532.456 1002.67 535.554 1005.46L557.863 1027.77L540.822 1044.81L518.513 1022.5C515.414 1019.41 510.457 1019.41 507.668 1022.5L451.896 1078.28C448.798 1081.37 448.798 1086.33 451.896 1089.12C453.445 1090.67 455.304 1091.29 457.473 1091.29C459.332 1091.29 461.501 1090.67 463.051 1089.12L513.245 1038.93L535.554 1061.23Z" fill="#E8EAF5"/>
<path d="M298.523 1089.12C296.973 1090.67 295.114 1091.29 292.945 1091.29C291.086 1091.29 288.917 1090.67 287.368 1089.12L265.059 1066.81L241.201 1092.84H220.132L259.792 1050.39C259.792 1050.39 259.792 1050.08 260.102 1050.08C260.102 1049.77 260.412 1049.77 260.721 1049.77C261.031 1049.46 261.031 1049.46 261.341 1049.15C261.651 1048.84 261.651 1048.84 261.961 1048.84C262.271 1048.84 262.271 1048.53 262.581 1048.53C262.89 1048.53 262.89 1048.22 263.2 1048.22C263.51 1048.22 263.51 1047.91 263.82 1047.91C264.13 1047.91 264.13 1047.91 264.44 1047.91C264.749 1047.91 265.059 1047.91 265.369 1047.91C265.679 1047.91 265.679 1047.91 265.989 1047.91C266.299 1047.91 266.609 1047.91 266.918 1047.91C267.228 1047.91 267.228 1047.91 267.538 1048.22C267.848 1048.22 268.158 1048.22 268.468 1048.53C268.777 1048.53 268.777 1048.84 269.087 1048.84C269.397 1048.84 269.397 1049.15 269.707 1049.15C270.017 1049.46 270.017 1049.46 270.327 1049.46C270.637 1049.46 270.637 1049.77 270.946 1049.77C270.946 1050.08 271.256 1050.08 271.256 1050.08L299.142 1077.97C301.621 1081.06 301.621 1086.02 298.523 1089.12Z" fill="#E8EAF5"/>
<path d="M323.31 893.918L379.083 838.146C382.181 835.047 382.181 830.09 379.083 827.301C375.984 824.203 371.027 824.203 368.238 827.301L318.043 877.496L295.734 855.187C292.636 852.089 287.678 852.089 284.89 855.187L234.695 905.382L212.386 883.073C209.288 879.975 204.33 879.975 201.541 883.073L151.346 933.268L129.038 910.959C125.939 907.861 120.982 907.861 118.193 910.959C115.095 914.058 115.095 919.015 118.193 921.804L146.079 949.69C147.628 951.239 149.487 951.859 151.656 951.859C153.515 951.859 155.684 951.239 157.233 949.69L207.428 899.495L229.737 921.804C232.836 924.902 237.793 924.902 240.582 921.804L290.777 871.609L313.086 893.918C315.564 896.707 320.522 896.707 323.31 893.918Z" fill="#E8EAF5"/>
<path d="M424.011 893.918C425.56 895.467 427.419 896.087 429.588 896.087C431.447 896.087 433.616 895.467 435.165 893.918C438.264 890.819 438.264 885.862 435.165 883.073L412.856 860.764L463.051 810.57C466.15 807.471 466.15 802.514 463.051 799.725L440.742 777.416L485.67 732.489L507.979 754.797C511.077 757.896 516.035 757.896 518.823 754.797C521.922 751.699 521.922 746.741 518.823 743.953L490.937 716.067C487.839 712.968 482.881 712.968 480.093 716.067L424.321 771.839C421.222 774.937 421.222 779.895 424.321 782.683L446.629 804.992L396.125 854.877C393.026 857.976 393.026 862.933 396.125 865.722L424.011 893.918Z" fill="#E8EAF5"/>
</g>
<g opacity="0.5">
<path d="M72.3356 -32.9835L24.3096 15.0425V-6.95653L55.9138 -38.5607L33.6049 -60.8696C30.5065 -63.968 30.5065 -68.9256 33.6049 -71.7142C36.7034 -74.8126 41.6609 -74.8126 44.4495 -71.7142L72.3356 -43.8281C75.434 -41.0395 75.434 -36.082 72.3356 -32.9835Z" fill="#E8EAF5"/>
<path d="M72.3356 67.4064C75.434 70.5049 75.434 75.4624 72.3356 78.251L24.3096 126.587V104.588L55.9138 72.9836L33.6049 50.6748C30.5065 47.5763 30.5065 42.6188 33.6049 39.8302L61.491 11.9441C64.5894 8.84569 69.547 8.84569 72.3356 11.9441C75.434 15.0426 75.434 20.0001 72.3356 22.7887L50.0267 45.0976L72.3356 67.4064Z" fill="#E8EAF5"/>
<path d="M89.3773 50.6748C90.9265 52.224 92.7856 52.8437 94.9545 52.8437C96.8135 52.8437 98.9825 52.224 100.532 50.6748L128.418 22.7887C131.516 19.6903 131.516 14.7327 128.418 11.9441C125.319 8.84569 120.362 8.84569 117.573 11.9441L89.6872 39.8302C86.2789 42.6188 86.2789 47.5763 89.3773 50.6748Z" fill="#E8EAF5"/>
<path d="M89.3776 273.763C90.9268 275.312 92.7859 275.932 94.9548 275.932C96.8139 275.932 98.9828 275.312 100.532 273.763L122.841 251.454L145.15 273.763C146.699 275.312 148.558 275.932 150.727 275.932C152.586 275.932 154.755 275.312 156.304 273.763C159.403 270.665 159.403 265.707 156.304 262.918L133.995 240.61L156.304 218.301C159.403 215.202 159.403 210.245 156.304 207.456C153.206 204.358 148.248 204.358 145.46 207.456L123.151 229.765L100.842 207.456C97.7435 204.358 92.786 204.358 89.9974 207.456C86.8989 210.555 86.8989 215.512 89.9974 218.301L112.306 240.61L89.9974 262.918C86.2792 265.707 86.2792 270.665 89.3776 273.763Z" fill="#E8EAF5"/>
<path d="M33.6058 162.219C35.155 163.768 37.0141 164.388 39.183 164.388C41.0421 164.388 43.211 163.768 44.7603 162.219L94.9551 112.024L117.264 134.333C118.813 135.882 120.672 136.502 122.841 136.502C124.7 136.502 126.869 135.882 128.418 134.333C131.517 131.234 131.517 126.277 128.418 123.488L106.11 101.179L156.304 50.9845C159.403 47.8861 159.403 42.9286 156.304 40.14C153.206 37.0415 148.249 37.0415 145.46 40.14L33.9157 151.684C30.5074 154.163 30.5074 159.12 33.6058 162.219Z" fill="#E8EAF5"/>
<path d="M33.6051 217.991C35.1543 219.54 37.0134 220.16 39.1823 220.16C41.0414 220.16 43.2103 219.54 44.7595 217.991L94.9544 167.796L117.263 190.105C120.362 193.203 125.319 193.203 128.108 190.105L183.88 134.333C186.978 131.234 186.978 126.277 183.88 123.488L161.571 101.179L183.88 78.8707C186.978 75.7722 186.978 70.8147 183.88 68.0261C180.782 64.9276 175.824 64.9276 173.035 68.0261L145.149 95.9121C142.051 99.0106 142.051 103.968 145.149 106.757L167.458 129.066L122.531 173.993L100.222 151.684C97.1233 148.586 92.1658 148.586 89.3772 151.684L33.6051 207.456C30.5066 209.935 30.5066 214.893 33.6051 217.991Z" fill="#E8EAF5"/>
<path d="M173.036 11.6342C169.937 14.7326 169.937 19.6902 173.036 22.4788L200.922 50.3648C202.471 51.914 204.33 52.5337 206.499 52.5337C208.358 52.5337 210.527 51.914 212.076 50.3648C215.175 47.2664 215.175 42.3088 212.076 39.5202L184.19 11.6342C181.092 8.84557 176.134 8.84557 173.036 11.6342Z" fill="#E8EAF5"/>
<path d="M200.921 -5.09759C204.02 -1.99914 208.977 -1.99914 211.766 -5.09759L261.961 -55.2925L279.002 -38.251L228.807 11.6341C225.709 14.7325 225.709 19.69 228.807 22.4786C230.357 24.0279 232.216 24.6475 234.384 24.6475C236.244 24.6475 238.413 24.0279 239.962 22.4786L295.734 -33.2935C298.832 -36.3919 298.832 -41.3495 295.734 -44.1381L267.848 -72.0241C264.749 -75.1226 259.792 -75.1226 257.003 -72.0241L201.231 -16.252C197.823 -13.1536 197.823 -8.19604 200.921 -5.09759Z" fill="#E8EAF5"/>
<path d="M239.653 67.406C236.555 64.3076 231.597 64.3076 228.809 67.406L200.922 95.2921C197.824 98.3905 197.824 103.348 200.922 106.137C204.021 109.235 208.978 109.235 211.767 106.137L234.076 83.8278L256.385 106.137C257.934 107.686 259.793 108.306 261.962 108.306C263.821 108.306 265.99 107.686 267.539 106.137L351.197 22.4785C354.296 19.3801 354.296 14.4225 351.197 11.6339C348.099 8.53548 343.141 8.53548 340.353 11.6339L262.272 89.7149L239.653 67.406Z" fill="#E8EAF5"/>
<path d="M173.036 245.877C174.585 247.426 176.444 248.046 178.613 248.046C180.472 248.046 182.641 247.426 184.19 245.877L267.848 162.219C270.947 159.121 270.947 154.163 267.848 151.374L239.962 123.488C236.864 120.39 231.906 120.39 229.118 123.488L173.346 179.261C170.247 182.359 170.247 187.316 173.346 190.105C176.444 193.204 181.402 193.204 184.19 190.105L234.385 139.91L251.427 156.952L173.036 234.723C169.937 237.821 169.937 242.779 173.036 245.877Z" fill="#E8EAF5"/>
<path d="M323.31 95.2921C320.212 92.1936 315.254 92.1936 312.466 95.2921L284.58 123.178C281.481 126.277 281.481 131.234 284.58 134.023L312.466 161.909C314.015 163.458 315.874 164.078 318.043 164.078C319.902 164.078 322.071 163.458 323.62 161.909C326.719 158.81 326.719 153.853 323.62 151.064L301.311 128.755L323.62 106.447C326.409 103.348 326.409 98.3906 323.31 95.2921Z" fill="#E8EAF5"/>
<path d="M396.124 -32.9835L418.433 -10.6747L340.352 67.4063C337.254 70.5047 337.254 75.4622 340.352 78.2508C341.901 79.8001 343.76 80.4198 345.929 80.4198C347.788 80.4198 349.957 79.8001 351.507 78.2508L401.701 28.0559L424.01 50.3648C425.56 51.914 427.419 52.5337 429.587 52.5337C431.447 52.5337 433.616 51.914 435.165 50.3648C438.263 47.2664 438.263 42.3088 435.165 39.5202L412.856 17.2114L435.165 -5.09748C438.263 -8.19593 438.263 -13.1534 435.165 -15.9421L412.856 -38.2509L463.051 -88.4458C466.149 -91.5442 466.149 -96.5018 463.051 -99.2904C459.952 -102.389 454.995 -102.389 452.206 -99.2904L396.434 -43.5183C393.026 -41.0395 393.026 -36.082 396.124 -32.9835Z" fill="#E8EAF5"/>
<path d="M267.539 50.6748L295.425 22.7887C298.523 19.6903 298.523 14.7327 295.425 11.9441C292.326 8.84569 287.369 8.84569 284.58 11.9441L256.694 39.8302C253.596 42.9286 253.596 47.8862 256.694 50.6748C258.243 52.224 260.102 52.8437 262.271 52.8437C264.13 52.8437 265.989 52.224 267.539 50.6748Z" fill="#E8EAF5"/>
<path d="M72.3356 245.877L24.3096 293.903V271.904L61.491 234.722C64.5894 231.624 69.547 231.624 72.3356 234.722C75.434 237.821 75.434 242.778 72.3356 245.877Z" fill="#E8EAF5"/>
<path d="M234.384 248.046C236.243 248.046 238.412 247.426 239.962 245.877L290.157 195.682L312.465 217.991C315.564 221.089 320.521 221.089 323.31 217.991C326.408 214.893 326.408 209.935 323.31 207.146L295.424 179.26C292.325 176.162 287.368 176.162 284.579 179.26L228.807 235.032C225.709 238.131 225.709 243.088 228.807 245.877C230.356 247.426 232.215 248.046 234.384 248.046Z" fill="#E8EAF5"/>
<path d="M401.701 192.274C403.56 192.274 405.729 191.654 407.278 190.105C410.377 187.007 410.377 182.049 407.278 179.26L384.969 156.952L407.278 134.643C410.377 131.544 410.377 126.587 407.278 123.798C404.18 120.7 399.222 120.7 396.434 123.798L374.125 146.107L351.816 123.798C348.717 120.7 343.76 120.7 340.971 123.798C337.873 126.897 337.873 131.854 340.971 134.643L363.28 156.952L340.971 179.26C337.873 182.359 337.873 187.316 340.971 190.105C342.521 191.654 344.38 192.274 346.548 192.274C348.408 192.274 350.576 191.654 352.126 190.105L374.435 167.796L396.743 190.105C397.673 191.654 399.532 192.274 401.701 192.274Z" fill="#E8EAF5"/>
<path d="M406.969 67.406C403.87 64.3076 398.913 64.3076 396.124 67.406L368.238 95.2921C365.139 98.3905 365.139 103.348 368.238 106.137C371.336 109.235 376.294 109.235 379.082 106.137L401.391 83.8278L423.7 106.137C425.249 107.686 427.108 108.306 429.277 108.306C431.136 108.306 433.305 107.686 434.855 106.137L490.627 50.3646C493.725 47.2661 493.725 42.3086 490.627 39.52L462.741 11.6339C459.642 8.53548 454.685 8.53548 451.896 11.6339C448.798 14.7324 448.798 19.6899 451.896 22.4785L474.205 44.7874L429.277 89.7149L406.969 67.406Z" fill="#E8EAF5"/>
<path d="M100.223 447.276L74.8154 472.683H52.8164L89.3781 436.122C92.4766 433.023 97.4341 433.023 100.223 436.122C103.321 439.22 103.321 444.178 100.223 447.276Z" fill="#E8EAF5"/>
<path d="M211.767 447.276L186.359 472.683H164.36L200.922 436.122C204.02 433.023 208.978 433.023 211.767 436.122C214.865 439.22 214.865 444.178 211.767 447.276Z" fill="#E8EAF5"/>
<path d="M434.855 447.276L409.448 472.683H387.449L393.646 466.487L373.506 446.347L351.197 468.655C348.098 471.754 343.141 471.754 340.352 468.655C337.254 465.557 337.254 460.6 340.352 457.811L368.238 429.925C371.337 426.826 376.294 426.826 379.083 429.925L404.49 455.332L423.7 436.122C426.799 433.023 431.756 433.023 434.545 436.122C437.953 439.22 437.953 444.178 434.855 447.276Z" fill="#E8EAF5"/>
<path d="M518.513 464.008L527.189 472.684H498.993L507.669 464.008C510.767 461.219 515.725 461.219 518.513 464.008Z" fill="#E8EAF5"/>
<path d="M602.171 447.276L576.764 472.683H554.765L591.326 436.122C594.425 433.023 599.382 433.023 602.171 436.122C605.269 439.22 605.269 444.178 602.171 447.276Z" fill="#E8EAF5"/>
<path d="M61.4911 290.495L33.6051 318.381C30.5066 321.479 30.5066 326.437 33.6051 329.225C36.7035 332.324 41.6611 332.324 44.4497 329.225L66.7585 306.917L111.686 351.844L61.4911 402.039C58.3927 405.137 58.3927 410.095 61.4911 412.884C63.0404 414.433 64.8995 415.052 67.0684 415.052C68.9274 415.052 71.0964 414.433 72.6456 412.884L128.418 357.111C131.516 354.013 131.516 349.055 128.418 346.267L72.6456 290.495C69.5471 287.706 64.5896 287.706 61.4911 290.495Z" fill="#E8EAF5"/>
<path d="M72.3356 357.421L24.3096 405.447V383.448L61.491 346.267C64.5894 343.168 69.547 343.168 72.3356 346.267C75.434 349.365 75.434 354.323 72.3356 357.421Z" fill="#E8EAF5"/>
<path d="M44.4498 441.08L24 461.529V439.53L33.2954 430.235C36.3938 427.137 41.3513 427.137 44.1399 430.235C47.5482 433.024 47.5482 437.981 44.4498 441.08Z" fill="#E8EAF5"/>
<path d="M644 -6.95679V15.0422L636.254 22.7883C634.704 24.3376 632.845 24.9573 630.676 24.9573C628.817 24.9573 626.648 24.3376 625.099 22.7883C622.001 19.6899 622.001 14.7324 625.099 11.9438L644 -6.95679Z" fill="#E8EAF5"/>
<path d="M644 104.588V126.587L636.254 134.023C634.704 135.572 632.845 136.192 630.676 136.192C628.817 136.192 626.648 135.572 625.099 134.023C622.001 130.924 622.001 125.967 625.099 123.178L644 104.588Z" fill="#E8EAF5"/>
<path d="M644 271.904V293.903L636.254 301.339C634.704 302.888 632.845 303.508 630.676 303.508C628.817 303.508 626.648 302.888 625.099 301.339C622.001 298.241 622.001 293.283 625.099 290.495L644 271.904Z" fill="#E8EAF5"/>
<path d="M644 383.448V405.447L636.254 412.883C634.704 414.433 632.845 415.052 630.676 415.052C628.817 415.052 626.648 414.433 625.099 412.883C622.001 409.785 622.001 404.827 625.099 402.039L644 383.448Z" fill="#E8EAF5"/>
<path d="M644 439.22V461.219L632.536 472.683H610.537L644 439.22Z" fill="#E8EAF5"/>
<path d="M295.424 290.494C292.325 287.396 287.368 287.396 284.579 290.494L234.384 340.689L212.076 318.38C208.977 315.282 204.02 315.282 201.231 318.38L145.459 374.153C142.36 377.251 142.36 382.209 145.459 384.997L167.768 407.306L150.726 424.347L128.417 402.039C125.319 398.94 120.361 398.94 117.573 402.039C114.474 405.137 114.474 410.095 117.573 412.883L145.459 440.769C147.008 442.318 148.867 442.938 151.036 442.938C152.895 442.938 155.064 442.318 156.613 440.769L184.499 412.883C187.598 409.785 187.598 404.827 184.499 402.039L162.191 379.73L207.118 334.802L229.427 357.111C232.525 360.21 237.483 360.21 240.272 357.111L296.044 301.339C298.522 298.55 298.522 293.593 295.424 290.494Z" fill="#E8EAF5"/>
<path d="M234.384 396.772L212.076 374.463C208.977 371.364 204.02 371.364 201.231 374.463C198.133 377.561 198.133 382.519 201.231 385.307L229.117 413.194C232.216 416.292 237.173 416.292 239.962 413.194L262.27 390.885L284.579 413.194C286.129 414.743 287.988 415.362 290.157 415.362C292.016 415.362 294.185 414.743 295.734 413.194C298.832 410.095 298.832 405.138 295.734 402.349L267.848 374.463C264.749 371.364 259.792 371.364 257.003 374.463L234.384 396.772Z" fill="#E8EAF5"/>
<path d="M462.74 346.267C459.642 343.168 454.684 343.168 451.895 346.267L429.587 368.576L407.278 346.267C404.179 343.168 399.222 343.168 396.433 346.267C393.335 349.365 393.335 354.323 396.433 357.111L418.742 379.42L396.433 401.729C393.335 404.827 393.335 409.785 396.433 412.574C397.982 414.123 399.841 414.742 402.01 414.742C403.869 414.742 406.038 414.123 407.588 412.574L429.896 390.265L452.205 412.574C453.755 414.123 455.614 414.742 457.783 414.742C459.642 414.742 461.811 414.123 463.36 412.574C466.458 409.475 466.458 404.518 463.36 401.729L441.051 379.42L463.36 357.111C465.839 354.323 465.838 349.365 462.74 346.267Z" fill="#E8EAF5"/>
<path d="M379.082 385.307C382.181 382.209 382.181 377.251 379.082 374.463C375.984 371.364 371.026 371.364 368.238 374.463L345.929 396.772L328.888 379.73L406.968 301.649C410.067 298.551 410.067 293.593 406.968 290.805L379.082 262.919C375.984 259.82 371.026 259.82 368.238 262.919L284.58 346.577C281.481 349.675 281.481 354.633 284.58 357.421C287.678 360.52 292.636 360.52 295.424 357.421L373.505 279.34L390.547 296.382L312.466 374.153C309.367 377.251 309.367 382.209 312.466 384.998L334.775 407.306L312.466 429.615C309.367 432.714 309.367 437.671 312.466 440.46C314.015 442.009 315.874 442.629 318.043 442.629C319.902 442.629 322.071 442.009 323.62 440.46L351.506 412.574L379.082 385.307Z" fill="#E8EAF5"/>
<path d="M513.245 24.9576C515.105 24.9576 517.273 24.3379 518.823 22.7887L546.709 -5.09736C549.807 -8.19581 549.807 -13.1533 546.709 -15.9419C543.61 -19.0404 538.653 -19.0404 535.864 -15.9419L507.978 11.9441C504.88 15.0426 504.88 20.0001 507.978 22.7887C509.218 24.3379 511.077 24.9576 513.245 24.9576Z" fill="#E8EAF5"/>
<path d="M630.058 -44.1381L602.172 -72.0241C599.073 -75.1226 594.116 -75.1226 591.327 -72.0241L563.441 -44.1381C560.343 -41.0396 560.343 -36.0821 563.441 -33.2935C566.539 -30.195 571.497 -30.195 574.286 -33.2935L596.594 -55.6023L613.636 -38.5609L563.441 11.6341C560.343 14.7325 560.343 19.69 563.441 22.4786C564.99 24.0279 566.849 24.6475 569.018 24.6475C570.877 24.6475 573.046 24.0279 574.595 22.4786L630.368 -33.2935C633.156 -36.0821 633.156 -41.0396 630.058 -44.1381Z" fill="#E8EAF5"/>
<path d="M602.171 39.52C599.073 36.4216 594.115 36.4216 591.327 39.52L541.132 89.7149L524.09 72.6735L546.399 50.3646C549.498 47.2662 549.498 42.3086 546.399 39.52C543.301 36.4216 538.343 36.4216 535.555 39.52L507.669 67.4061C504.57 70.5045 504.57 75.4621 507.669 78.2507L535.555 106.137C537.104 107.686 538.963 108.306 541.132 108.306C542.991 108.306 545.16 107.686 546.709 106.137L602.481 50.3646C605.27 47.576 605.27 42.6185 602.171 39.52Z" fill="#E8EAF5"/>
<path d="M546.398 151.064C543.3 147.966 538.342 147.966 535.554 151.064L513.245 173.373L490.936 151.064C487.838 147.966 482.88 147.966 480.091 151.064C476.993 154.163 476.993 159.12 480.091 161.909L502.4 184.218L480.091 206.527C476.993 209.625 476.993 214.583 480.091 217.371C481.641 218.92 483.5 219.54 485.669 219.54C487.528 219.54 489.697 218.92 491.246 217.371L513.555 195.062L535.864 217.371C537.413 218.92 539.272 219.54 541.441 219.54C543.3 219.54 545.469 218.92 547.018 217.371C550.116 214.273 550.116 209.315 547.018 206.527L524.709 184.218L547.018 161.909C549.497 159.12 549.497 154.163 546.398 151.064Z" fill="#E8EAF5"/>
<path d="M630.058 67.406C626.959 64.3075 622.002 64.3075 619.213 67.406L563.441 123.178C560.343 126.277 560.343 131.234 563.441 134.023C564.99 135.572 566.849 136.192 569.018 136.192C570.877 136.192 573.046 135.572 574.595 134.023L630.368 78.2506C633.156 75.462 633.156 70.5044 630.058 67.406Z" fill="#E8EAF5"/>
<path d="M630.058 178.95L602.172 151.064C599.073 147.966 594.116 147.966 591.327 151.064L563.441 178.95C560.343 182.049 560.343 187.006 563.441 189.795C566.539 192.893 571.497 192.893 574.286 189.795L596.594 167.486L613.636 184.528L563.441 234.722C560.343 237.821 560.343 242.778 563.441 245.567C564.99 247.116 566.849 247.736 569.018 247.736C570.877 247.736 573.046 247.116 574.595 245.567L630.368 189.795C633.156 187.006 633.156 182.049 630.058 178.95Z" fill="#E8EAF5"/>
<path d="M451.896 234.722C448.798 237.821 448.798 242.778 451.896 245.567L479.782 273.453C481.331 275.002 483.19 275.622 485.359 275.622C487.218 275.622 489.387 275.002 490.937 273.453L518.823 245.567C521.921 242.469 521.921 237.511 518.823 234.722C515.724 231.624 510.767 231.624 507.978 234.722L485.669 257.031L463.36 234.722C459.952 231.934 454.995 231.934 451.896 234.722Z" fill="#E8EAF5"/>
<path d="M546.399 262.609C543.3 259.51 538.343 259.51 535.554 262.609L485.359 312.803L463.051 290.495C459.952 287.396 454.995 287.396 452.206 290.495L424.32 318.381C421.221 321.479 421.221 326.437 424.32 329.225C427.418 332.324 432.376 332.324 435.165 329.225L457.473 306.916L479.782 329.225C481.331 330.774 483.19 331.394 485.359 331.394C487.218 331.394 489.387 330.774 490.937 329.225L546.709 273.453C549.497 270.664 549.497 265.707 546.399 262.609Z" fill="#E8EAF5"/>
<path d="M630.058 234.722C626.959 231.624 622.002 231.624 619.213 234.722L563.441 290.495C560.343 293.593 560.343 298.551 563.441 301.339L585.75 323.648L563.441 345.957C560.343 349.055 560.343 354.013 563.441 356.801L591.327 384.687C592.876 386.237 594.735 386.856 596.904 386.856C598.763 386.856 600.932 386.237 602.482 384.687L630.368 356.801C633.466 353.703 633.466 348.745 630.368 345.957C627.269 342.858 622.312 342.858 619.523 345.957L597.214 368.266L580.173 351.224L602.482 328.915C605.58 325.817 605.58 320.859 602.482 318.071L580.173 295.762L630.368 245.567C633.156 242.778 633.156 237.821 630.058 234.722Z" fill="#E8EAF5"/>
<path d="M535.555 318.381L479.783 374.153C476.684 377.251 476.684 382.209 479.783 384.998C481.332 386.547 483.191 387.166 485.36 387.166C487.219 387.166 489.388 386.547 490.937 384.998L546.709 329.225C549.808 326.127 549.808 321.169 546.709 318.381C543.611 315.592 538.653 315.592 535.555 318.381Z" fill="#E8EAF5"/>
<path d="M535.554 441.08C538.653 444.178 543.61 444.178 546.399 441.08L574.285 413.194C577.383 410.095 577.383 405.138 574.285 402.349L546.399 374.463C543.3 371.364 538.343 371.364 535.554 374.463C532.456 377.561 532.456 382.519 535.554 385.307L557.863 407.616L540.822 424.658L518.513 402.349C515.414 399.25 510.457 399.25 507.668 402.349L451.896 458.121C448.798 461.219 448.798 466.177 451.896 468.966C453.445 470.515 455.304 471.135 457.473 471.135C459.332 471.135 461.501 470.515 463.051 468.966L513.245 418.771L535.554 441.08Z" fill="#E8EAF5"/>
<path d="M298.523 468.965C296.973 470.514 295.114 471.134 292.945 471.134C291.086 471.134 288.917 470.514 287.368 468.965L265.059 446.656L241.201 472.683H220.132L259.792 430.235C259.792 430.235 259.792 429.925 260.102 429.925C260.102 429.615 260.412 429.615 260.721 429.615C261.031 429.305 261.031 429.305 261.341 428.995C261.651 428.685 261.651 428.685 261.961 428.685C262.271 428.685 262.271 428.376 262.581 428.376C262.89 428.376 262.89 428.066 263.2 428.066C263.51 428.066 263.51 427.756 263.82 427.756C264.13 427.756 264.13 427.756 264.44 427.756C264.749 427.756 265.059 427.756 265.369 427.756C265.679 427.756 265.679 427.756 265.989 427.756C266.299 427.756 266.609 427.756 266.918 427.756C267.228 427.756 267.228 427.756 267.538 428.066C267.848 428.066 268.158 428.066 268.468 428.376C268.777 428.376 268.777 428.685 269.087 428.685C269.397 428.685 269.397 428.995 269.707 428.995C270.017 429.305 270.017 429.305 270.327 429.305C270.637 429.305 270.637 429.615 270.946 429.615C270.946 429.925 271.256 429.925 271.256 429.925L299.142 457.811C301.621 460.909 301.621 465.867 298.523 468.965Z" fill="#E8EAF5"/>
<path d="M323.31 273.763L379.083 217.991C382.181 214.893 382.181 209.935 379.083 207.146C375.984 204.048 371.027 204.048 368.238 207.146L318.043 257.341L295.734 235.033C292.636 231.934 287.678 231.934 284.89 235.033L234.695 285.227L212.386 262.919C209.288 259.82 204.33 259.82 201.541 262.919L151.346 313.113L129.038 290.805C125.939 287.706 120.982 287.706 118.193 290.805C115.095 293.903 115.095 298.861 118.193 301.649L146.079 329.535C147.628 331.085 149.487 331.704 151.656 331.704C153.515 331.704 155.684 331.085 157.233 329.535L207.428 279.34L229.737 301.649C232.836 304.748 237.793 304.748 240.582 301.649L290.777 251.454L313.086 273.763C315.564 276.552 320.522 276.552 323.31 273.763Z" fill="#E8EAF5"/>
<path d="M424.011 273.763C425.56 275.312 427.419 275.932 429.588 275.932C431.447 275.932 433.616 275.312 435.165 273.763C438.264 270.665 438.264 265.707 435.165 262.918L412.856 240.61L463.051 190.415C466.15 187.316 466.15 182.359 463.051 179.57L440.742 157.261L485.67 112.334L507.979 134.643C511.077 137.741 516.035 137.741 518.823 134.643C521.922 131.544 521.922 126.587 518.823 123.798L490.937 95.912C487.839 92.8135 482.881 92.8135 480.093 95.912L424.321 151.684C421.222 154.783 421.222 159.74 424.321 162.529L446.629 184.838L396.125 234.723C393.026 237.821 393.026 242.779 396.125 245.567L424.011 273.763Z" fill="#E8EAF5"/>
</g>
<g opacity="0.5">
<path d="M74.8143 1092.99L24.3096 1143.5V1121.5L52.8153 1092.99H74.8143Z" fill="#E8EAF5"/>
<path d="M72.3356 1207.02L24.3096 1255.04V1233.04L55.9138 1201.44L33.6049 1179.13C30.5065 1176.03 30.5065 1171.07 33.6049 1168.29C36.7034 1165.19 41.6609 1165.19 44.4495 1168.29L72.3356 1196.17C75.434 1198.96 75.434 1203.92 72.3356 1207.02Z" fill="#E8EAF5"/>
<path d="M186.359 1092.99L128.108 1151.24C126.559 1152.79 124.7 1153.41 122.531 1153.41C120.672 1153.41 118.503 1152.79 116.954 1151.24L94.6453 1128.94L72.3364 1151.24C69.2379 1154.34 64.2804 1154.34 61.4918 1151.24C58.3934 1148.15 58.3934 1143.19 61.4918 1140.4L89.3779 1112.51C92.4763 1109.42 97.4338 1109.42 100.222 1112.51L122.531 1134.82L164.36 1092.99H186.359Z" fill="#E8EAF5"/>
<path d="M89.3776 1234.9C90.9268 1236.45 92.7859 1237.07 94.9548 1237.07C96.8139 1237.07 98.9828 1236.45 100.532 1234.9L122.841 1212.59L145.15 1234.9C146.699 1236.45 148.558 1237.07 150.727 1237.07C152.586 1237.07 154.755 1236.45 156.304 1234.9C159.403 1231.8 159.403 1226.85 156.304 1224.06L133.995 1201.75L156.304 1179.44C159.403 1176.34 159.403 1171.38 156.304 1168.6C153.206 1165.5 148.248 1165.5 145.46 1168.6L123.151 1190.9L100.842 1168.6C97.7435 1165.5 92.786 1165.5 89.9974 1168.6C86.8989 1171.69 86.8989 1176.65 89.9974 1179.44L112.306 1201.75L89.9974 1224.06C86.2792 1226.85 86.2792 1231.8 89.3776 1234.9Z" fill="#E8EAF5"/>
<path d="M72.3356 1307.41C75.434 1310.5 75.434 1315.46 72.3356 1318.25L24.3096 1366.59V1344.59L55.9138 1312.98L33.6049 1290.67C30.5065 1287.58 30.5065 1282.62 33.6049 1279.83L61.491 1251.94C64.5894 1248.85 69.547 1248.85 72.3356 1251.94C75.434 1255.04 75.434 1260 72.3356 1262.79L50.0267 1285.1L72.3356 1307.41Z" fill="#E8EAF5"/>
<path d="M89.3773 1290.67C90.9265 1292.22 92.7856 1292.84 94.9545 1292.84C96.8135 1292.84 98.9825 1292.22 100.532 1290.67L128.418 1262.79C131.516 1259.69 131.516 1254.73 128.418 1251.94C125.319 1248.85 120.362 1248.85 117.573 1251.94L89.6872 1279.83C86.2789 1282.62 86.2789 1287.58 89.3773 1290.67Z" fill="#E8EAF5"/>
<path d="M211.766 1167.98C214.864 1171.07 214.864 1176.03 211.766 1178.82L183.88 1206.71C182.33 1208.26 180.471 1208.88 178.302 1208.88C176.443 1208.88 174.274 1208.26 172.725 1206.71C169.627 1203.61 169.627 1198.65 172.725 1195.86L195.034 1173.55L172.725 1151.24C169.627 1148.15 169.627 1143.19 172.725 1140.4L220.132 1092.99H242.13L189.457 1145.67L211.766 1167.98Z" fill="#E8EAF5"/>
<path d="M239.652 1151.24L267.538 1123.36C270.636 1120.26 270.636 1115.3 267.538 1112.51C264.439 1109.42 259.482 1109.42 256.693 1112.51L228.807 1140.4C225.709 1143.5 225.709 1148.46 228.807 1151.24C230.356 1152.79 232.215 1153.41 234.384 1153.41C236.243 1153.41 238.103 1152.79 239.652 1151.24Z" fill="#E8EAF5"/>
<path d="M312.466 1234.9C314.015 1236.45 315.874 1237.07 318.043 1237.07C319.902 1237.07 322.071 1236.45 323.62 1234.9L345.929 1212.59L368.238 1234.9C369.787 1236.45 371.646 1237.07 373.815 1237.07C375.674 1237.07 377.843 1236.45 379.392 1234.9C382.491 1231.8 382.491 1226.85 379.392 1224.06L357.083 1201.75L379.392 1179.44C382.491 1176.34 382.491 1171.38 379.392 1168.6C376.294 1165.5 371.336 1165.5 368.547 1168.6L346.239 1190.9L323.93 1168.6C320.831 1165.5 315.874 1165.5 313.085 1168.6C309.987 1171.69 309.987 1176.65 313.085 1179.44L335.394 1201.75L313.085 1224.06C309.367 1226.85 309.367 1231.8 312.466 1234.9Z" fill="#E8EAF5"/>
<path d="M89.3776 1513.76C90.9268 1515.31 92.7859 1515.93 94.9548 1515.93C96.8139 1515.93 98.9828 1515.31 100.532 1513.76L122.841 1491.45L145.15 1513.76C146.699 1515.31 148.558 1515.93 150.727 1515.93C152.586 1515.93 154.755 1515.31 156.304 1513.76C159.403 1510.66 159.403 1505.71 156.304 1502.92L133.995 1480.61L156.304 1458.3C159.403 1455.2 159.403 1450.24 156.304 1447.46C153.206 1444.36 148.248 1444.36 145.46 1447.46L123.151 1469.76L100.842 1447.46C97.7435 1444.36 92.786 1444.36 89.9974 1447.46C86.8989 1450.55 86.8989 1455.51 89.9974 1458.3L112.306 1480.61L89.9974 1502.92C86.2792 1505.71 86.2792 1510.66 89.3776 1513.76Z" fill="#E8EAF5"/>
<path d="M33.6058 1402.22C35.155 1403.77 37.0141 1404.39 39.183 1404.39C41.0421 1404.39 43.211 1403.77 44.7603 1402.22L94.9551 1352.02L117.264 1374.33C118.813 1375.88 120.672 1376.5 122.841 1376.5C124.7 1376.5 126.869 1375.88 128.418 1374.33C131.517 1371.23 131.517 1366.28 128.418 1363.49L106.11 1341.18L156.304 1290.98C159.403 1287.89 159.403 1282.93 156.304 1280.14C153.206 1277.04 148.249 1277.04 145.46 1280.14L33.9157 1391.68C30.5074 1394.16 30.5074 1399.12 33.6058 1402.22Z" fill="#E8EAF5"/>
<path d="M33.6051 1457.99C35.1543 1459.54 37.0134 1460.16 39.1823 1460.16C41.0414 1460.16 43.2103 1459.54 44.7595 1457.99L94.9544 1407.8L117.263 1430.11C120.362 1433.2 125.319 1433.2 128.108 1430.11L183.88 1374.33C186.978 1371.23 186.978 1366.28 183.88 1363.49L161.571 1341.18L183.88 1318.87C186.978 1315.77 186.978 1310.81 183.88 1308.03C180.782 1304.93 175.824 1304.93 173.035 1308.03L145.149 1335.91C142.051 1339.01 142.051 1343.97 145.149 1346.76L167.458 1369.07L122.531 1413.99L100.222 1391.68C97.1233 1388.59 92.1658 1388.59 89.3772 1391.68L33.6051 1447.46C30.5066 1449.94 30.5066 1454.89 33.6051 1457.99Z" fill="#E8EAF5"/>
<path d="M173.036 1251.63C169.937 1254.73 169.937 1259.69 173.036 1262.48L200.922 1290.36C202.471 1291.91 204.33 1292.53 206.499 1292.53C208.358 1292.53 210.527 1291.91 212.076 1290.36C215.175 1287.27 215.175 1282.31 212.076 1279.52L184.19 1251.63C181.092 1248.85 176.134 1248.85 173.036 1251.63Z" fill="#E8EAF5"/>
<path d="M200.921 1234.9C204.02 1238 208.977 1238 211.766 1234.9L261.961 1184.71L279.002 1201.75L228.807 1251.63C225.709 1254.73 225.709 1259.69 228.807 1262.48C230.357 1264.03 232.216 1264.65 234.384 1264.65C236.244 1264.65 238.413 1264.03 239.962 1262.48L295.734 1206.71C298.832 1203.61 298.832 1198.65 295.734 1195.86L267.848 1167.98C264.749 1164.88 259.792 1164.88 257.003 1167.98L201.231 1223.75C197.823 1226.85 197.823 1231.8 200.921 1234.9Z" fill="#E8EAF5"/>
<path d="M295.424 1151.24L317.733 1128.94L340.042 1151.24C341.591 1152.79 343.45 1153.41 345.619 1153.41C347.478 1153.41 349.647 1152.79 351.196 1151.24C354.295 1148.15 354.295 1143.19 351.196 1140.4L323.31 1112.51C320.212 1109.42 315.254 1109.42 312.466 1112.51L284.58 1140.4C281.481 1143.5 281.481 1148.46 284.58 1151.24C287.678 1154.03 292.636 1154.03 295.424 1151.24Z" fill="#E8EAF5"/>
<path d="M409.448 1092.99L379.083 1123.36C377.534 1124.91 375.675 1125.53 373.506 1125.53C371.647 1125.53 369.478 1124.91 367.928 1123.36C364.83 1120.26 364.83 1115.3 367.928 1112.51L387.139 1093.3H409.448V1092.99Z" fill="#E8EAF5"/>
<path d="M401.701 1153.41C403.56 1153.41 405.729 1152.79 407.278 1151.24L435.164 1123.36C438.262 1120.26 438.262 1115.3 435.164 1112.51C432.065 1109.42 427.108 1109.42 424.319 1112.51L396.433 1140.4C393.335 1143.5 393.335 1148.46 396.433 1151.24C397.673 1152.79 399.532 1153.41 401.701 1153.41Z" fill="#E8EAF5"/>
<path d="M239.653 1307.41C236.555 1304.31 231.597 1304.31 228.809 1307.41L200.922 1335.29C197.824 1338.39 197.824 1343.35 200.922 1346.14C204.021 1349.24 208.978 1349.24 211.767 1346.14L234.076 1323.83L256.385 1346.14C257.934 1347.69 259.793 1348.31 261.962 1348.31C263.821 1348.31 265.99 1347.69 267.539 1346.14L351.197 1262.48C354.296 1259.38 354.296 1254.42 351.197 1251.63C348.099 1248.54 343.141 1248.54 340.353 1251.63L262.272 1329.71L239.653 1307.41Z" fill="#E8EAF5"/>
<path d="M173.036 1485.88C174.585 1487.43 176.444 1488.05 178.613 1488.05C180.472 1488.05 182.641 1487.43 184.19 1485.88L267.848 1402.22C270.947 1399.12 270.947 1394.16 267.848 1391.37L239.962 1363.49C236.864 1360.39 231.906 1360.39 229.118 1363.49L173.346 1419.26C170.247 1422.36 170.247 1427.32 173.346 1430.1C176.444 1433.2 181.402 1433.2 184.19 1430.1L234.385 1379.91L251.427 1396.95L173.036 1474.72C169.937 1477.82 169.937 1482.78 173.036 1485.88Z" fill="#E8EAF5"/>
<path d="M323.31 1335.29C320.212 1332.19 315.254 1332.19 312.466 1335.29L284.58 1363.18C281.481 1366.28 281.481 1371.23 284.58 1374.02L312.466 1401.91C314.015 1403.46 315.874 1404.08 318.043 1404.08C319.902 1404.08 322.071 1403.46 323.62 1401.91C326.719 1398.81 326.719 1393.85 323.62 1391.06L301.311 1368.76L323.62 1346.45C326.409 1343.35 326.409 1338.39 323.31 1335.29Z" fill="#E8EAF5"/>
<path d="M396.124 1207.02L418.433 1229.33L340.352 1307.41C337.254 1310.5 337.254 1315.46 340.352 1318.25C341.901 1319.8 343.76 1320.42 345.929 1320.42C347.788 1320.42 349.957 1319.8 351.507 1318.25L401.701 1268.06L424.01 1290.37C425.56 1291.91 427.419 1292.53 429.587 1292.53C431.447 1292.53 433.616 1291.91 435.165 1290.37C438.263 1287.27 438.263 1282.31 435.165 1279.52L412.856 1257.21L435.165 1234.9C438.263 1231.8 438.263 1226.85 435.165 1224.06L412.856 1201.75L463.051 1151.55C466.149 1148.46 466.149 1143.5 463.051 1140.71C459.952 1137.61 454.995 1137.61 452.206 1140.71L396.434 1196.48C393.026 1198.96 393.026 1203.92 396.124 1207.02Z" fill="#E8EAF5"/>
<path d="M267.539 1290.67L295.425 1262.79C298.523 1259.69 298.523 1254.73 295.425 1251.94C292.326 1248.85 287.369 1248.85 284.58 1251.94L256.694 1279.83C253.596 1282.93 253.596 1287.89 256.694 1290.67C258.243 1292.22 260.102 1292.84 262.271 1292.84C264.13 1292.84 265.989 1292.22 267.539 1290.67Z" fill="#E8EAF5"/>
<path d="M72.3356 1485.88L24.3096 1533.9V1511.9L61.491 1474.72C64.5894 1471.62 69.547 1471.62 72.3356 1474.72C75.434 1477.82 75.434 1482.78 72.3356 1485.88Z" fill="#E8EAF5"/>
<path d="M234.384 1488.05C236.243 1488.05 238.412 1487.43 239.962 1485.88L290.157 1435.68L312.465 1457.99C315.564 1461.09 320.521 1461.09 323.31 1457.99C326.408 1454.89 326.408 1449.94 323.31 1447.15L295.424 1419.26C292.325 1416.16 287.368 1416.16 284.579 1419.26L228.807 1475.03C225.709 1478.13 225.709 1483.09 228.807 1485.88C230.356 1487.43 232.215 1488.05 234.384 1488.05Z" fill="#E8EAF5"/>
<path d="M401.701 1432.27C403.56 1432.27 405.729 1431.65 407.278 1430.1C410.377 1427.01 410.377 1422.05 407.278 1419.26L384.969 1396.95L407.278 1374.64C410.377 1371.54 410.377 1366.59 407.278 1363.8C404.18 1360.7 399.222 1360.7 396.434 1363.8L374.125 1386.11L351.816 1363.8C348.717 1360.7 343.76 1360.7 340.971 1363.8C337.873 1366.9 337.873 1371.85 340.971 1374.64L363.28 1396.95L340.971 1419.26C337.873 1422.36 337.873 1427.32 340.971 1430.1C342.521 1431.65 344.38 1432.27 346.548 1432.27C348.408 1432.27 350.576 1431.65 352.126 1430.1L374.435 1407.8L396.743 1430.1C397.673 1431.65 399.532 1432.27 401.701 1432.27Z" fill="#E8EAF5"/>
<path d="M406.969 1307.41C403.87 1304.31 398.913 1304.31 396.124 1307.41L368.238 1335.29C365.139 1338.39 365.139 1343.35 368.238 1346.14C371.336 1349.24 376.294 1349.24 379.082 1346.14L401.391 1323.83L423.7 1346.14C425.249 1347.69 427.108 1348.31 429.277 1348.31C431.136 1348.31 433.305 1347.69 434.855 1346.14L490.627 1290.36C493.725 1287.27 493.725 1282.31 490.627 1279.52L462.741 1251.63C459.642 1248.54 454.685 1248.54 451.896 1251.63C448.798 1254.73 448.798 1259.69 451.896 1262.48L474.205 1284.79L429.277 1329.71L406.969 1307.41Z" fill="#E8EAF5"/>
<path d="M490.627 1179.13L512.936 1156.82L529.977 1173.86L485.05 1218.79L462.741 1196.48C459.642 1193.38 454.685 1193.38 451.896 1196.48C448.798 1199.58 448.798 1204.54 451.896 1207.33L479.782 1235.21C481.331 1236.76 483.19 1237.38 485.359 1237.38C487.218 1237.38 489.387 1236.76 490.937 1235.21L546.709 1179.44C549.807 1176.34 549.807 1171.38 546.709 1168.6L518.823 1140.71C515.724 1137.61 510.767 1137.61 507.978 1140.71L480.092 1168.6C476.994 1171.69 476.994 1176.65 480.092 1179.44C482.881 1181.92 487.838 1181.92 490.627 1179.13Z" fill="#E8EAF5"/>
<path d="M576.764 1092.99L546.4 1123.36C544.85 1124.91 542.991 1125.53 540.822 1125.53C538.963 1125.53 536.794 1124.91 535.245 1123.36L512.936 1101.05L490.627 1123.36C487.529 1126.46 482.571 1126.46 479.783 1123.36C476.684 1120.26 476.684 1115.3 479.783 1112.51L498.993 1093.3H527.189L541.132 1107.25L555.075 1093.3H576.764V1092.99Z" fill="#E8EAF5"/>
<path d="M61.4911 1530.49L33.6051 1558.38C30.5066 1561.48 30.5066 1566.44 33.6051 1569.23C36.7035 1572.32 41.6611 1572.32 44.4497 1569.23L66.7585 1546.92L111.686 1591.84L61.4911 1642.04C58.3927 1645.14 58.3927 1650.09 61.4911 1652.88C63.0404 1654.43 64.8995 1655.05 67.0684 1655.05C68.9274 1655.05 71.0964 1654.43 72.6456 1652.88L128.418 1597.11C131.516 1594.01 131.516 1589.06 128.418 1586.27L72.6456 1530.49C69.5471 1527.71 64.5896 1527.71 61.4911 1530.49Z" fill="#E8EAF5"/>
<path d="M72.3356 1597.42L24.3096 1645.45V1623.45L61.491 1586.27C64.5894 1583.17 69.547 1583.17 72.3356 1586.27C75.434 1589.37 75.434 1594.32 72.3356 1597.42Z" fill="#E8EAF5"/>
<path d="M644 1121.5V1143.5L636.254 1151.24C634.704 1152.79 632.845 1153.41 630.676 1153.41C628.817 1153.41 626.648 1152.79 625.099 1151.24C622.001 1148.15 622.001 1143.19 625.099 1140.4L644 1121.5Z" fill="#E8EAF5"/>
<path d="M644 1233.04V1255.04L636.254 1262.79C634.704 1264.34 632.845 1264.96 630.676 1264.96C628.817 1264.96 626.648 1264.34 625.099 1262.79C622.001 1259.69 622.001 1254.73 625.099 1251.94L644 1233.04Z" fill="#E8EAF5"/>
<path d="M644 1344.59V1366.59L636.254 1374.02C634.704 1375.57 632.845 1376.19 630.676 1376.19C628.817 1376.19 626.648 1375.57 625.099 1374.02C622.001 1370.92 622.001 1365.97 625.099 1363.18L644 1344.59Z" fill="#E8EAF5"/>
<path d="M644 1511.9V1533.9L636.254 1541.34C634.704 1542.89 632.845 1543.51 630.676 1543.51C628.817 1543.51 626.648 1542.89 625.099 1541.34C622.001 1538.24 622.001 1533.28 625.099 1530.49L644 1511.9Z" fill="#E8EAF5"/>
<path d="M631.917 1092.99C631.607 1093.92 630.987 1094.54 630.368 1095.47L574.595 1151.24C573.046 1152.79 571.187 1153.41 569.018 1153.41C567.159 1153.41 564.99 1152.79 563.441 1151.24C560.343 1148.15 560.343 1143.19 563.441 1140.4L610.538 1092.99H631.917Z" fill="#E8EAF5"/>
<path d="M295.424 1530.49C292.325 1527.4 287.368 1527.4 284.579 1530.49L234.384 1580.69L212.076 1558.38C208.977 1555.28 204.02 1555.28 201.231 1558.38L145.459 1614.15C142.36 1617.25 142.36 1622.21 145.459 1625L167.768 1647.31L150.726 1664.35L128.417 1642.04C125.319 1638.94 120.361 1638.94 117.573 1642.04C114.474 1645.14 114.474 1650.09 117.573 1652.88L145.459 1680.77C147.008 1682.32 148.867 1682.94 151.036 1682.94C152.895 1682.94 155.064 1682.32 156.613 1680.77L184.499 1652.88C187.598 1649.78 187.598 1644.83 184.499 1642.04L162.191 1619.73L207.118 1574.8L229.427 1597.11C232.525 1600.21 237.483 1600.21 240.272 1597.11L296.044 1541.34C298.522 1538.55 298.522 1533.59 295.424 1530.49Z" fill="#E8EAF5"/>
<path d="M462.74 1586.27C459.642 1583.17 454.684 1583.17 451.895 1586.27L429.587 1608.58L407.278 1586.27C404.179 1583.17 399.222 1583.17 396.433 1586.27C393.335 1589.37 393.335 1594.32 396.433 1597.11L418.742 1619.42L396.433 1641.73C393.335 1644.83 393.335 1649.78 396.433 1652.57C397.982 1654.12 399.841 1654.74 402.01 1654.74C403.869 1654.74 406.038 1654.12 407.588 1652.57L429.896 1630.26L452.205 1652.57C453.755 1654.12 455.614 1654.74 457.783 1654.74C459.642 1654.74 461.811 1654.12 463.36 1652.57C466.458 1649.48 466.458 1644.52 463.36 1641.73L441.051 1619.42L463.36 1597.11C465.839 1594.32 465.838 1589.37 462.74 1586.27Z" fill="#E8EAF5"/>
<path d="M379.082 1625.31C382.181 1622.21 382.181 1617.25 379.082 1614.46C375.984 1611.36 371.026 1611.36 368.238 1614.46L345.929 1636.77L328.888 1619.73L406.968 1541.65C410.067 1538.55 410.067 1533.59 406.968 1530.8L379.082 1502.92C375.984 1499.82 371.026 1499.82 368.238 1502.92L284.58 1586.58C281.481 1589.68 281.481 1594.63 284.58 1597.42C287.678 1600.52 292.636 1600.52 295.424 1597.42L373.505 1519.34L390.547 1536.38L312.466 1614.15C309.367 1617.25 309.367 1622.21 312.466 1625L334.775 1647.31L312.466 1669.62C309.367 1672.71 309.367 1677.67 312.466 1680.46C314.015 1682.01 315.874 1682.63 318.043 1682.63C319.902 1682.63 322.071 1682.01 323.62 1680.46L351.506 1652.57L379.082 1625.31Z" fill="#E8EAF5"/>
<path d="M513.245 1264.96C515.105 1264.96 517.273 1264.34 518.823 1262.79L546.709 1234.9C549.807 1231.8 549.807 1226.85 546.709 1224.06C543.61 1220.96 538.653 1220.96 535.864 1224.06L507.978 1251.94C504.88 1255.04 504.88 1260 507.978 1262.79C509.218 1264.34 511.077 1264.96 513.245 1264.96Z" fill="#E8EAF5"/>
<path d="M630.058 1195.86L602.172 1167.98C599.073 1164.88 594.116 1164.88 591.327 1167.98L563.441 1195.86C560.343 1198.96 560.343 1203.92 563.441 1206.71C566.539 1209.81 571.497 1209.81 574.286 1206.71L596.594 1184.4L613.636 1201.44L563.441 1251.63C560.343 1254.73 560.343 1259.69 563.441 1262.48C564.99 1264.03 566.849 1264.65 569.018 1264.65C570.877 1264.65 573.046 1264.03 574.595 1262.48L630.368 1206.71C633.156 1203.92 633.156 1198.96 630.058 1195.86Z" fill="#E8EAF5"/>
<path d="M602.171 1279.52C599.073 1276.42 594.115 1276.42 591.327 1279.52L541.132 1329.71L524.09 1312.67L546.399 1290.36C549.498 1287.27 549.498 1282.31 546.399 1279.52C543.301 1276.42 538.343 1276.42 535.555 1279.52L507.669 1307.41C504.57 1310.5 504.57 1315.46 507.669 1318.25L535.555 1346.14C537.104 1347.69 538.963 1348.31 541.132 1348.31C542.991 1348.31 545.16 1347.69 546.709 1346.14L602.481 1290.36C605.27 1287.58 605.27 1282.62 602.171 1279.52Z" fill="#E8EAF5"/>
<path d="M546.398 1391.06C543.3 1387.97 538.342 1387.97 535.554 1391.06L513.245 1413.37L490.936 1391.06C487.838 1387.97 482.88 1387.97 480.091 1391.06C476.993 1394.16 476.993 1399.12 480.091 1401.91L502.4 1424.22L480.091 1446.53C476.993 1449.63 476.993 1454.58 480.091 1457.37C481.641 1458.92 483.5 1459.54 485.669 1459.54C487.528 1459.54 489.697 1458.92 491.246 1457.37L513.555 1435.06L535.864 1457.37C537.413 1458.92 539.272 1459.54 541.441 1459.54C543.3 1459.54 545.469 1458.92 547.018 1457.37C550.116 1454.27 550.116 1449.32 547.018 1446.53L524.709 1424.22L547.018 1401.91C549.497 1399.12 549.497 1394.16 546.398 1391.06Z" fill="#E8EAF5"/>
<path d="M630.058 1307.41C626.959 1304.31 622.002 1304.31 619.213 1307.41L563.441 1363.18C560.343 1366.28 560.343 1371.23 563.441 1374.02C564.99 1375.57 566.849 1376.19 569.018 1376.19C570.877 1376.19 573.046 1375.57 574.595 1374.02L630.368 1318.25C633.156 1315.46 633.156 1310.5 630.058 1307.41Z" fill="#E8EAF5"/>
<path d="M630.058 1418.95L602.172 1391.06C599.073 1387.97 594.116 1387.97 591.327 1391.06L563.441 1418.95C560.343 1422.05 560.343 1427.01 563.441 1429.79C566.539 1432.89 571.497 1432.89 574.286 1429.79L596.594 1407.49L613.636 1424.53L563.441 1474.72C560.343 1477.82 560.343 1482.78 563.441 1485.57C564.99 1487.12 566.849 1487.74 569.018 1487.74C570.877 1487.74 573.046 1487.12 574.595 1485.57L630.368 1429.79C633.156 1427.01 633.156 1422.05 630.058 1418.95Z" fill="#E8EAF5"/>
<path d="M451.896 1474.72C448.798 1477.82 448.798 1482.78 451.896 1485.57L479.782 1513.45C481.331 1515 483.19 1515.62 485.359 1515.62C487.218 1515.62 489.387 1515 490.937 1513.45L518.823 1485.57C521.921 1482.47 521.921 1477.51 518.823 1474.72C515.724 1471.62 510.767 1471.62 507.978 1474.72L485.669 1497.03L463.36 1474.72C459.952 1471.93 454.995 1471.93 451.896 1474.72Z" fill="#E8EAF5"/>
<path d="M546.399 1502.61C543.3 1499.51 538.343 1499.51 535.554 1502.61L485.359 1552.8L463.051 1530.49C459.952 1527.4 454.995 1527.4 452.206 1530.49L424.32 1558.38C421.221 1561.48 421.221 1566.44 424.32 1569.23C427.418 1572.32 432.376 1572.32 435.165 1569.23L457.473 1546.92L479.782 1569.23C481.331 1570.77 483.19 1571.39 485.359 1571.39C487.218 1571.39 489.387 1570.77 490.937 1569.23L546.709 1513.45C549.497 1510.66 549.497 1505.71 546.399 1502.61Z" fill="#E8EAF5"/>
<path d="M630.058 1474.72C626.959 1471.62 622.002 1471.62 619.213 1474.72L563.441 1530.49C560.343 1533.59 560.343 1538.55 563.441 1541.34L585.75 1563.65L563.441 1585.96C560.343 1589.06 560.343 1594.01 563.441 1596.8L591.327 1624.69C592.876 1626.24 594.735 1626.86 596.904 1626.86C598.763 1626.86 600.932 1626.24 602.482 1624.69L630.368 1596.8C633.466 1593.7 633.466 1588.75 630.368 1585.96C627.269 1582.86 622.312 1582.86 619.523 1585.96L597.214 1608.27L580.173 1591.22L602.482 1568.92C605.58 1565.82 605.58 1560.86 602.482 1558.07L580.173 1535.76L630.368 1485.57C633.156 1482.78 633.156 1477.82 630.058 1474.72Z" fill="#E8EAF5"/>
<path d="M535.555 1558.38L479.783 1614.15C476.684 1617.25 476.684 1622.21 479.783 1625C481.332 1626.55 483.191 1627.17 485.36 1627.17C487.219 1627.17 489.388 1626.55 490.937 1625L546.709 1569.23C549.808 1566.13 549.808 1561.17 546.709 1558.38C543.611 1555.59 538.653 1555.59 535.555 1558.38Z" fill="#E8EAF5"/>
<path d="M323.31 1513.76L379.083 1457.99C382.181 1454.89 382.181 1449.94 379.083 1447.15C375.984 1444.05 371.027 1444.05 368.238 1447.15L318.043 1497.34L295.734 1475.03C292.636 1471.93 287.678 1471.93 284.89 1475.03L234.695 1525.23L212.386 1502.92C209.288 1499.82 204.33 1499.82 201.541 1502.92L151.346 1553.11L129.038 1530.8C125.939 1527.71 120.982 1527.71 118.193 1530.8C115.095 1533.9 115.095 1538.86 118.193 1541.65L146.079 1569.54C147.628 1571.08 149.487 1571.7 151.656 1571.7C153.515 1571.7 155.684 1571.08 157.233 1569.54L207.428 1519.34L229.737 1541.65C232.836 1544.75 237.793 1544.75 240.582 1541.65L290.777 1491.45L313.086 1513.76C315.564 1516.55 320.522 1516.55 323.31 1513.76Z" fill="#E8EAF5"/>
<path d="M424.011 1513.76C425.56 1515.31 427.419 1515.93 429.588 1515.93C431.447 1515.93 433.616 1515.31 435.165 1513.76C438.264 1510.66 438.264 1505.71 435.165 1502.92L412.856 1480.61L463.051 1430.41C466.15 1427.32 466.15 1422.36 463.051 1419.57L440.742 1397.26L485.67 1352.33L507.979 1374.64C511.077 1377.74 516.035 1377.74 518.823 1374.64C521.922 1371.54 521.922 1366.59 518.823 1363.8L490.937 1335.91C487.839 1332.81 482.881 1332.81 480.093 1335.91L424.321 1391.68C421.222 1394.78 421.222 1399.74 424.321 1402.53L446.629 1424.84L396.125 1474.72C393.026 1477.82 393.026 1482.78 396.125 1485.57L424.011 1513.76Z" fill="#E8EAF5"/>
</g>
</g>
</g>
<defs>
<clipPath id="clip0_123:177">
<rect width="1600" height="1600" rx="800" fill="white"/>
</clipPath>
</defs>
</svg>
