<svg width="40" height="40" viewBox="0 0 40 40" fill="none" xmlns="http://www.w3.org/2000/svg">
<rect width="40" height="40" rx="6" fill="#615DFA"/>
<path fill-rule="evenodd" clip-rule="evenodd" d="M26.0654 14H25.8691H14.1309H13.9346C12.8271 14.1263 11.9929 15.0671 12 16.1818V23.4545C12 24.6595 12.9769 25.6363 14.1819 25.6363H25.8181C27.0231 25.6363 28 24.6595 28 23.4545V16.1818C28.0071 15.0671 27.1729 14.1263 26.0654 14ZM25.7308 15.4545L20.7272 20.4581C20.4436 20.7401 19.9854 20.7401 19.7018 20.4581L14.6982 15.4545H25.7308ZM25.8181 24.1818C26.2198 24.1818 26.5454 23.8561 26.5454 23.4545V16.48L21.5418 21.4836C20.69 22.3344 19.31 22.3344 18.4582 21.4836L13.4546 16.48V23.4545C13.4546 23.8561 13.7802 24.1818 14.1818 24.1818H25.8181Z" fill="white"/>
</svg>
