<svg width="17" height="25" viewBox="0 0 17 25" fill="none" xmlns="http://www.w3.org/2000/svg">
<path fill-rule="evenodd" clip-rule="evenodd" d="M2.31168 0.104889C2.21013 0.190795 2.12747 0.390786 1.93313 1.0206C1.26616 3.18207 1.00551 4.47388 0.915793 6.06311L0.880652 6.68579H2.56039H4.24018L4.20574 6.04504C4.1194 4.43769 3.82093 3.00015 3.10485 0.742712C2.97482 0.332865 2.89893 0.171114 2.80131 0.0956101C2.63246 -0.0348358 2.47326 -0.0318567 2.31168 0.104889ZM8.31669 1.70467C8.16574 1.76445 8.12986 1.84503 7.8542 2.74345C7.18419 4.9268 6.9397 6.16567 6.83766 7.89453L6.81102 8.34628H8.49985H10.1887L10.162 7.89453C10.0618 6.19634 9.81382 4.9287 9.16593 2.80318C8.87432 1.8465 8.85822 1.80982 8.69414 1.72645C8.53698 1.6466 8.47276 1.64289 8.31669 1.70467ZM14.2808 3.36423C14.1078 3.43436 14.0434 3.57751 13.7526 4.53693C13.1036 6.67852 12.8782 7.82088 12.7921 9.40352L12.7592 10.0068H14.4389H16.1186L16.0849 9.40851C16.021 8.27747 15.8475 7.17442 15.5564 6.05002C15.2888 5.01666 14.8182 3.5443 14.7276 3.45702C14.614 3.34758 14.4208 3.30748 14.2808 3.36423ZM0.845462 8.5179V9.51981L0.522387 10.1533C0.344696 10.5017 0.199312 10.7981 0.199312 10.8119C0.199312 10.8257 1.26173 10.837 2.56024 10.837C3.85876 10.837 4.92118 10.8257 4.92118 10.8119C4.92118 10.7981 4.77579 10.5017 4.5981 10.1533L4.27503 9.51981V8.5179V7.51604H2.56024H0.845462V8.5179ZM6.80992 10.1539V11.1314L6.46165 11.8144L6.11342 12.4975H8.49985H10.8863L10.5381 11.8144L10.1898 11.1314V10.1539V9.17653H8.49985H6.80992V10.1539ZM12.7247 11.8389V12.8408L12.4016 13.4743C12.2239 13.8227 12.0785 14.1191 12.0785 14.1329C12.0785 14.1467 13.1409 14.158 14.4395 14.158C15.738 14.158 16.8004 14.1467 16.8004 14.1329C16.8004 14.1191 16.655 13.8227 16.4773 13.4743L16.1542 12.8408V11.8389V10.837H14.4395H12.7247V11.8389ZM0.0126747 16.2458L0.0253491 20.8244H2.56024H5.09514L5.10781 16.2458L5.12049 11.6673H2.56024H0L0.0126747 16.2458ZM5.96496 17.0883V20.8488H8.49985H11.0347V17.0883V13.3277H8.49985H5.96496V17.0883ZM11.8917 17.9063L11.9046 20.8244H14.4395H16.9744L16.9872 17.9063L17 14.9882H14.4395H11.8789L11.8917 17.9063ZM0.248668 22.2149C0.368504 22.6802 0.377153 22.7586 0.314228 22.8099C0.274365 22.8424 0.193547 22.9584 0.134648 23.0676C0.0457275 23.2326 0.0273374 23.3498 0.0264427 23.7584C0.0253989 24.2216 0.0341963 24.2647 0.175206 24.4889C0.284356 24.6623 0.397382 24.7642 0.590978 24.8635L0.856794 25H2.55701H4.25718L4.52683 24.8657C4.72932 24.7648 4.8336 24.6716 4.94578 24.491C5.08599 24.2654 5.09509 24.2206 5.09405 23.7584C5.09315 23.3498 5.07476 23.2326 4.98584 23.0676C4.92694 22.9584 4.84612 22.8424 4.80626 22.8099C4.74334 22.7586 4.75198 22.6802 4.87182 22.2149L5.0098 21.679H2.56024H0.110691L0.248668 22.2149ZM6.06436 21.7049C6.06436 21.7192 6.12326 21.9618 6.19528 22.2442L6.3262 22.7577L6.22252 22.8661C6.03782 23.0592 5.96496 23.3107 5.96496 23.7546C5.96496 24.374 6.14399 24.7062 6.58625 24.9074C6.76762 24.9899 6.93547 24.9979 8.49985 24.9979C10.0642 24.9979 10.2321 24.9899 10.4134 24.9074C10.8557 24.7062 11.0347 24.374 11.0347 23.7546C11.0347 23.3107 10.9619 23.0592 10.7772 22.8661L10.6735 22.7577L10.8044 22.2442C10.8764 21.9618 10.9353 21.7192 10.9353 21.7049C10.9353 21.6907 9.83937 21.679 8.49985 21.679C7.16033 21.679 6.06436 21.6907 6.06436 21.7049ZM12.1279 22.2149C12.2477 22.6802 12.2564 22.7586 12.1934 22.8099C12.1536 22.8424 12.0728 22.9584 12.0139 23.0676C11.9249 23.2326 11.9066 23.3498 11.9057 23.7584C11.9046 24.2206 11.9137 24.2654 12.0539 24.491C12.1661 24.6716 12.2704 24.7648 12.4729 24.8657L12.7425 25H14.4427H16.1429L16.4087 24.8635C16.6023 24.7642 16.7153 24.6623 16.8245 24.4889C16.9655 24.2647 16.9743 24.2216 16.9733 23.7584C16.9724 23.3498 16.954 23.2326 16.8651 23.0676C16.8062 22.9584 16.7253 22.8424 16.6855 22.8099C16.6225 22.7586 16.6312 22.6802 16.751 22.2149L16.889 21.679H14.4395H11.9899L12.1279 22.2149Z" fill="black"/>
</svg>
