<svg width="30" height="14" viewBox="0 0 30 14" fill="none" xmlns="http://www.w3.org/2000/svg">
<path fill-rule="evenodd" clip-rule="evenodd" d="M11.242 0.0896778C10.9701 0.211331 10.8934 0.329967 10.7885 0.79166C10.4304 2.36751 9.04469 3.49636 7.47284 3.49269C6.89328 3.49131 6.5777 3.41708 5.94359 3.13298L5.5003 2.93433L5.20554 3.06222C4.72054 3.27253 0.329112 5.70691 0.17956 5.84831C0.103475 5.92025 0.0233008 6.05233 0.00145258 6.14178C-0.0223121 6.23897 0.247405 7.77253 0.672231 9.95566C1.30902 13.2278 1.39942 13.6249 1.54239 13.7802C1.74292 13.9978 2.0219 14.0584 2.28625 13.9416C2.68124 13.767 11.2441 8.32216 11.4042 8.14385C11.4934 8.04443 11.6138 7.89346 11.6719 7.80833L11.7774 7.65363L11.9888 7.83699C12.1051 7.93786 12.3583 8.09636 12.5516 8.18929C12.8617 8.33836 12.9854 8.3583 13.6057 8.35928C14.2642 8.36033 14.3354 8.34728 14.7379 8.15152C15.3321 7.86257 15.7599 7.43262 16.0473 6.8357C16.2515 6.41165 16.2854 6.27321 16.3089 5.76882C16.3281 5.35638 16.3075 5.10376 16.2375 4.89279L16.1391 4.59623L16.36 4.5214C17.1606 4.25015 17.3424 4.24209 23.5777 4.20195C30.1877 4.15932 29.7282 4.19179 29.9059 3.75541C30.0395 3.42724 30.0275 0.718733 29.8911 0.423617C29.681 -0.0307298 30.3388 -0.00148022 20.3996 0.00133977C13.1607 0.00343837 11.3967 0.0204239 11.242 0.0896778ZM14.9389 5.26168C15.1646 6.12598 14.4664 7.01598 13.5629 7.01598C13.4421 7.01598 13.1888 6.93695 13 6.84035L12.6567 6.66473L12.9697 6.37381C13.4306 5.94543 14.6302 5.13603 14.828 5.11996C14.8678 5.11675 14.9177 5.18049 14.9389 5.26168ZM8.21785 6.13516C8.38471 6.42122 8.52251 6.67437 8.52411 6.69771C8.52704 6.74159 7.39266 7.51341 7.23251 7.5765C7.11062 7.62451 6.43837 6.51055 6.53151 6.41493C6.66011 6.28291 7.79372 5.58296 7.85333 5.59877C7.88693 5.60769 8.05098 5.84909 8.21785 6.13516ZM6.13147 7.98127C6.19797 8.09741 6.23943 8.20562 6.22366 8.22182C6.15172 8.29567 3.78158 9.77039 3.73481 9.77039C3.68843 9.77039 3.02308 8.6418 3.05317 8.61413C3.05956 8.60816 3.62385 8.24681 4.30708 7.81109L5.5493 7.01893L5.77998 7.39452C5.90686 7.60116 6.06503 7.86519 6.13147 7.98127Z" fill="black"/>
</svg>
