<svg width="18" height="18" viewBox="0 0 18 18" fill="none" xmlns="http://www.w3.org/2000/svg">
<path fill-rule="evenodd" clip-rule="evenodd" d="M9 18C13.9706 18 18 13.9706 18 9C18 4.02944 13.9706 0 9 0C4.02944 0 0 4.02944 0 9C0 13.9706 4.02944 18 9 18ZM11.454 13.272C11.958 12.7773 12.21 12.1473 12.21 11.382C12.21 10.962 12.14 10.5933 12 10.276C11.86 9.95867 11.6407 9.69267 11.342 9.478C11.0433 9.254 10.768 9.08133 10.516 8.96C10.264 8.83867 9.92333 8.69867 9.494 8.54V5.32C10.1753 5.45067 10.6513 5.85667 10.922 6.538L12.014 5.922C11.7713 5.38067 11.4307 4.95133 10.992 4.634C10.5533 4.31667 10.054 4.12067 9.494 4.046V2.8H8.612V4.032C7.856 4.10667 7.226 4.382 6.722 4.858C6.218 5.334 5.966 5.95 5.966 6.706C5.966 7.11667 6.03133 7.48067 6.162 7.798C6.302 8.106 6.512 8.36733 6.792 8.582C7.072 8.79667 7.338 8.96933 7.59 9.1C7.85133 9.22133 8.192 9.35667 8.612 9.506V12.894C7.59467 12.782 6.92733 12.292 6.61 11.424L5.49 12.068C5.73267 12.684 6.12 13.174 6.652 13.538C7.19333 13.902 7.84667 14.112 8.612 14.168V15.4H9.494V14.154C10.2967 14.0607 10.95 13.7667 11.454 13.272ZM7.576 7.574C7.36133 7.35 7.254 7.06067 7.254 6.706C7.254 6.32333 7.37533 6.01067 7.618 5.768C7.87 5.516 8.20133 5.362 8.612 5.306V8.204C8.136 8.008 7.79067 7.798 7.576 7.574ZM10.53 12.376C10.2873 12.6373 9.942 12.8007 9.494 12.866V9.828C9.97933 10.0333 10.334 10.2527 10.558 10.486C10.7913 10.71 10.908 11.0133 10.908 11.396C10.908 11.7787 10.782 12.1053 10.53 12.376Z" fill="#1E1E1E"/>
</svg>
