<svg width="40" height="40" viewBox="0 0 40 40" fill="none" xmlns="http://www.w3.org/2000/svg">
<rect width="40" height="40" rx="6" fill="#615DFA"/>
<path fill-rule="evenodd" clip-rule="evenodd" d="M14.1818 28H25.8182C27.0232 28 28 27.0232 28 25.8182V18.5455C28 17.3405 27.0232 16.3636 25.8182 16.3636H24.3636V14.1818C24.3636 12.9768 23.3868 12 22.1818 12H17.8182C16.6132 12 15.6364 12.9768 15.6364 14.1818V16.3636H14.1818C12.9768 16.3636 12 17.3405 12 18.5455V25.8182C12 27.0232 12.9768 28 14.1818 28ZM17.0909 14.1818C17.0909 13.7802 17.4165 13.4545 17.8182 13.4545H22.1818C22.5835 13.4545 22.9091 13.7802 22.9091 14.1818V16.3636H17.0909V14.1818ZM13.4545 18.5455C13.4545 18.1438 13.7802 17.8182 14.1818 17.8182H25.8182C26.2198 17.8182 26.5455 18.1438 26.5455 18.5455V25.8182C26.5455 26.2198 26.2198 26.5455 25.8182 26.5455H14.1818C13.7802 26.5455 13.4545 26.2198 13.4545 25.8182V18.5455Z" fill="white"/>
<path fill-rule="evenodd" clip-rule="evenodd" d="M19.3092 23.0691C19.2894 23.1329 19.2772 23.1988 19.2728 23.2654V25.4473C19.2728 25.8489 19.5984 26.1745 20.0001 26.1745C20.4017 26.1745 20.7273 25.8489 20.7273 25.4473V23.2654C20.7273 23.2654 20.7273 23.2218 20.7273 23.2C21.7649 22.9505 22.4697 21.9872 22.3935 20.9228C22.3173 19.8584 21.4824 19.0053 20.4199 18.9062C19.3574 18.8072 18.3791 19.4911 18.1074 20.5231C17.8356 21.555 18.3502 22.6321 19.3237 23.0691H19.3092ZM20.211 20.3564C20.6126 20.3564 20.9382 20.682 20.9382 21.0836C20.9382 21.4853 20.6126 21.8109 20.211 21.8109C19.8093 21.8109 19.4837 21.4853 19.4837 21.0836C19.4837 20.682 19.8093 20.3564 20.211 20.3564Z" fill="white"/>
</svg>
