<svg width="40" height="40" viewBox="0 0 40 40" fill="none" xmlns="http://www.w3.org/2000/svg">
<rect width="40" height="40" rx="6" fill="#615DFA"/>
<path d="M12.3008 26.2965L12.3008 26.2965L26.3008 12.2965C26.3932 12.2041 26.5029 12.1308 26.6236 12.0808C26.7443 12.0307 26.8737 12.005 27.0043 12.005C27.135 12.005 27.2644 12.0307 27.3851 12.0808C27.5058 12.1308 27.6155 12.2041 27.7078 12.2965C27.8002 12.3889 27.8735 12.4985 27.9236 12.6192C27.9736 12.7399 27.9993 12.8693 27.9993 13C27.9993 13.1306 27.9736 13.26 27.9236 13.3807C27.8735 13.5014 27.8002 13.6111 27.7078 13.7034L27.7114 13.707L27.7078 13.7034L13.7078 27.7034L13.7078 27.7035C13.6156 27.7968 13.5059 27.871 13.385 27.9218C13.264 27.9725 13.1342 27.9989 13.003 27.9993C12.8719 27.9997 12.7419 27.9742 12.6206 27.9242C12.4994 27.8742 12.3892 27.8007 12.2964 27.7079C12.2037 27.6152 12.1302 27.505 12.0801 27.3837C12.0301 27.2625 12.0046 27.1325 12.005 27.0013C12.0054 26.8701 12.0318 26.7403 12.0825 26.6194C12.1333 26.4984 12.2075 26.3887 12.3008 26.2965ZM17.4261 18.248C16.9336 18.5771 16.3545 18.7528 15.7622 18.7528C14.9681 18.7519 14.2068 18.4361 13.6454 17.8746C13.0839 17.3131 12.768 16.5518 12.7672 15.7578C12.7672 15.1654 12.9428 14.5864 13.2719 14.0939C13.601 13.6013 14.0688 13.2174 14.616 12.9908C15.1633 12.7641 15.7655 12.7048 16.3465 12.8203C16.9274 12.9359 17.4611 13.2211 17.88 13.64C18.2988 14.0589 18.5841 14.5925 18.6996 15.1735C18.8152 15.7545 18.7559 16.3567 18.5292 16.9039C18.3025 17.4512 17.9186 17.9189 17.4261 18.248ZM16.3205 14.9222C16.1553 14.8117 15.9609 14.7528 15.7622 14.7528C15.4957 14.753 15.2402 14.8589 15.0517 15.0473C14.8633 15.2358 14.7574 15.4913 14.7572 15.7578C14.7572 15.9566 14.8161 16.1509 14.9266 16.3161C15.037 16.4814 15.1939 16.6102 15.3776 16.6863C15.5612 16.7623 15.7633 16.7823 15.9582 16.7435C16.1532 16.7047 16.3323 16.609 16.4728 16.4684C16.6134 16.3279 16.7091 16.1488 16.7479 15.9538C16.7866 15.7589 16.7667 15.5568 16.6907 15.3732C16.6146 15.1895 16.4858 15.0326 16.3205 14.9222ZM22.5826 21.7519C23.0752 21.4228 23.6542 21.2472 24.2466 21.2472C25.0406 21.248 25.8019 21.5639 26.3634 22.1253C26.9249 22.6868 27.2407 23.4481 27.2416 24.2422C27.2416 24.8345 27.0659 25.4136 26.7368 25.9061C26.4077 26.3986 25.94 26.7825 25.3927 27.0092C24.8454 27.2359 24.2432 27.2952 23.6623 27.1796C23.0813 27.0641 22.5476 26.7788 22.1288 26.3599C21.7099 25.9411 21.4247 25.4074 21.3091 24.8265C21.1935 24.2455 21.2529 23.6433 21.4795 23.096C21.7062 22.5488 22.0901 22.081 22.5826 21.7519ZM23.6882 25.0778C23.8535 25.1882 24.0478 25.2472 24.2466 25.2472C24.513 25.247 24.7686 25.141 24.957 24.9526C25.1454 24.7642 25.2514 24.5087 25.2516 24.2422C25.2516 24.0434 25.1926 23.8491 25.0822 23.6838C24.9718 23.5185 24.8148 23.3897 24.6312 23.3137C24.4475 23.2376 24.2454 23.2177 24.0505 23.2565C23.8555 23.2953 23.6765 23.391 23.5359 23.5315C23.3954 23.6721 23.2996 23.8511 23.2609 24.0461C23.2221 24.241 23.242 24.4431 23.3181 24.6268C23.3941 24.8104 23.5229 24.9674 23.6882 25.0778Z" fill="white" stroke="#615DFA" stroke-width="0.01"/>
</svg>
